<svg width="40" height="40" viewBox="0 0 40 40" fill="none" xmlns="http://www.w3.org/2000/svg">
<g clip-path="url(#clip0)">
<path d="M25.7743 0.231019C25.5909 0.037842 25.3395 -0.078125 25.0788 -0.078125H9.47486C6.59552 -0.078125 4.21881 2.28913 4.21881 5.16816V34.6754C4.21881 37.5547 6.59552 39.9219 9.47486 39.9219H30.6535C33.5328 39.9219 35.9095 37.5547 35.9095 34.6754V11.2454C35.9095 10.9943 35.7936 10.7529 35.6294 10.5692L25.7743 0.231019ZM26.0545 3.33253L32.6536 10.26H28.3638C27.0884 10.26 26.0545 9.23586 26.0545 7.96052V3.33253ZM30.6535 37.9896H9.47486C7.66822 37.9896 6.15119 36.4921 6.15119 34.6754V5.16816C6.15119 3.36152 7.65845 1.85425 9.47486 1.85425H24.1221V7.96052C24.1221 10.3082 26.016 12.1924 28.3638 12.1924H33.9772V34.6754C33.9772 36.4921 32.4699 37.9896 30.6535 37.9896Z" fill="white"/>
<path d="M28.0158 31.3228H12.1124C11.5811 31.3228 11.1462 31.7573 11.1462 32.2889C11.1462 32.8203 11.5811 33.2551 12.1124 33.2551H28.0255C28.5569 33.2551 28.9917 32.8203 28.9917 32.2889C28.9917 31.7573 28.5569 31.3228 28.0158 31.3228Z" fill="white"/>
<path d="M19.3589 27.8546C19.5426 28.0478 19.7937 28.1637 20.0641 28.1637C20.3348 28.1637 20.586 28.0478 20.7694 27.8546L26.4313 21.7773C26.7985 21.3906 26.7695 20.7724 26.3831 20.415C25.9965 20.0479 25.3782 20.0766 25.0208 20.4632L21.0303 24.7433V14.1928C21.0303 13.6611 20.5954 13.2266 20.0641 13.2266C19.5328 13.2266 19.0979 13.6611 19.0979 14.1928V24.7433L15.1172 20.4632C14.7501 20.0769 14.1413 20.0479 13.7549 20.415C13.3686 20.7821 13.3396 21.3909 13.7067 21.7773L19.3589 27.8546Z" fill="white"/>
</g>
<defs>
<clipPath id="clip0">
<rect width="40" height="40" fill="white"/>
</clipPath>
</defs>
</svg>
