<svg width="114" height="50" viewBox="0 0 114 50" fill="none" xmlns="http://www.w3.org/2000/svg">
<path d="M49.6133 22.5635C49.6133 23.4795 49.4538 24.2839 49.1348 24.9766C48.8203 25.6693 48.3691 26.2025 47.7812 26.5762C47.1934 26.9499 46.5143 27.1367 45.7441 27.1367C44.582 27.1367 43.6432 26.722 42.9277 25.8926C42.2122 25.0586 41.8545 23.9352 41.8545 22.5225V21.4971C41.8545 20.5902 42.014 19.7881 42.333 19.0908C42.6566 18.389 43.1123 17.8512 43.7002 17.4775C44.2881 17.0993 44.9648 16.9102 45.7305 16.9102C46.4961 16.9102 47.1706 17.0947 47.7539 17.4639C48.3418 17.833 48.7952 18.3548 49.1143 19.0293C49.4333 19.7038 49.5996 20.4854 49.6133 21.374V22.5635ZM48.7725 21.4834C48.7725 20.2848 48.5013 19.346 47.959 18.667C47.4167 17.988 46.6738 17.6484 45.7305 17.6484C44.8053 17.6484 44.0671 17.9902 43.5156 18.6738C42.9688 19.3529 42.6953 20.3031 42.6953 21.5244V22.5635C42.6953 23.7438 42.9688 24.6803 43.5156 25.373C44.0625 26.0612 44.8053 26.4053 45.7441 26.4053C46.6966 26.4053 47.4395 26.0658 47.9727 25.3867C48.5059 24.7031 48.7725 23.7529 48.7725 22.5361V21.4834ZM54.959 20.3008C54.7858 20.2689 54.6012 20.2529 54.4053 20.2529C53.8949 20.2529 53.4619 20.3965 53.1064 20.6836C52.7555 20.9661 52.5049 21.3786 52.3545 21.9209V27H51.541V19.6035H52.3408L52.3545 20.7793C52.7874 19.9043 53.4824 19.4668 54.4395 19.4668C54.6673 19.4668 54.8473 19.4964 54.9795 19.5557L54.959 20.3008ZM60.6533 27C60.5713 26.7676 60.5189 26.4235 60.4961 25.9678C60.209 26.3415 59.8421 26.6309 59.3955 26.8359C58.9535 27.0365 58.484 27.1367 57.9873 27.1367C57.2764 27.1367 56.6999 26.9385 56.2578 26.542C55.8203 26.1455 55.6016 25.6442 55.6016 25.0381C55.6016 24.318 55.9001 23.7484 56.4971 23.3291C57.0986 22.9098 57.9349 22.7002 59.0059 22.7002H60.4893V21.8594C60.4893 21.3307 60.3252 20.916 59.9971 20.6152C59.6735 20.3099 59.1995 20.1572 58.5752 20.1572C58.0055 20.1572 57.5339 20.3031 57.1602 20.5947C56.7865 20.8864 56.5996 21.2373 56.5996 21.6475L55.7793 21.6406C55.7793 21.0527 56.0527 20.5446 56.5996 20.1162C57.1465 19.6833 57.8187 19.4668 58.6162 19.4668C59.4411 19.4668 60.0905 19.6742 60.5645 20.0889C61.043 20.499 61.2891 21.0732 61.3027 21.8115V25.3115C61.3027 26.027 61.3779 26.5625 61.5283 26.918V27H60.6533ZM58.083 26.4121C58.6299 26.4121 59.1175 26.2799 59.5459 26.0156C59.9788 25.7513 60.2933 25.3981 60.4893 24.9561V23.3291H59.0264C58.2106 23.3382 57.5726 23.4886 57.1123 23.7803C56.652 24.0674 56.4219 24.4639 56.4219 24.9697C56.4219 25.3844 56.5745 25.7285 56.8799 26.002C57.1898 26.2754 57.5908 26.4121 58.083 26.4121ZM64.2695 19.6035L64.2969 20.8682C64.5749 20.4124 64.9212 20.0661 65.3359 19.8291C65.7507 19.5876 66.2087 19.4668 66.71 19.4668C67.5029 19.4668 68.0931 19.6901 68.4805 20.1367C68.8678 20.5833 69.0638 21.2533 69.0684 22.1465V27H68.2549V22.1396C68.2503 21.4788 68.109 20.9867 67.8311 20.6631C67.5576 20.3395 67.1178 20.1777 66.5117 20.1777C66.0059 20.1777 65.557 20.3372 65.165 20.6562C64.7777 20.9707 64.4906 21.3968 64.3037 21.9346V27H63.4902V19.6035H64.2695ZM70.8594 23.2334C70.8594 22.0758 71.1146 21.1598 71.625 20.4854C72.14 19.8063 72.8372 19.4668 73.7168 19.4668C74.724 19.4668 75.4896 19.8678 76.0137 20.6699L76.0547 19.6035H76.8203V26.8496C76.8203 27.8021 76.5537 28.5563 76.0205 29.1123C75.4873 29.6683 74.765 29.9463 73.8535 29.9463C73.3385 29.9463 72.8464 29.8301 72.377 29.5977C71.9121 29.3698 71.5452 29.0645 71.2764 28.6816L71.7344 28.1895C72.3132 28.9004 73.0013 29.2559 73.7988 29.2559C74.4824 29.2559 75.0156 29.0531 75.3984 28.6475C75.7812 28.2464 75.9795 27.6882 75.9932 26.9727V26.043C75.4691 26.7721 74.7057 27.1367 73.7031 27.1367C72.8464 27.1367 72.1582 26.7949 71.6387 26.1113C71.1191 25.4277 70.8594 24.5049 70.8594 23.3428V23.2334ZM71.6865 23.377C71.6865 24.3203 71.8757 25.0654 72.2539 25.6123C72.6322 26.1546 73.1654 26.4258 73.8535 26.4258C74.8607 26.4258 75.5739 25.9746 75.9932 25.0723V21.6338C75.8018 21.1598 75.526 20.7998 75.166 20.5537C74.806 20.3031 74.373 20.1777 73.8672 20.1777C73.179 20.1777 72.6436 20.4489 72.2607 20.9912C71.8779 21.529 71.6865 22.3242 71.6865 23.377ZM81.8174 27.1367C81.1885 27.1367 80.6188 26.9818 80.1084 26.6719C79.6025 26.362 79.2083 25.9313 78.9258 25.3799C78.6432 24.8239 78.502 24.2018 78.502 23.5137V23.2197C78.502 22.5088 78.6387 21.8685 78.9121 21.2988C79.1901 20.7292 79.5752 20.2826 80.0674 19.959C80.5596 19.6309 81.0928 19.4668 81.667 19.4668C82.5648 19.4668 83.2757 19.7744 83.7998 20.3896C84.3285 21.0003 84.5928 21.8366 84.5928 22.8984V23.3564H79.3154V23.5137C79.3154 24.3522 79.5547 25.0518 80.0332 25.6123C80.5163 26.1683 81.1224 26.4463 81.8516 26.4463C82.2891 26.4463 82.6742 26.3665 83.0068 26.207C83.3441 26.0475 83.6494 25.7923 83.9229 25.4414L84.4355 25.8311C83.834 26.7015 82.9613 27.1367 81.8174 27.1367ZM81.667 20.1641C81.0518 20.1641 80.5322 20.3896 80.1084 20.8408C79.6891 21.292 79.4339 21.8981 79.3428 22.6592H83.7793V22.5703C83.7565 21.8594 83.5537 21.2806 83.1709 20.834C82.7881 20.3874 82.2868 20.1641 81.667 20.1641ZM47.6309 40.2109H43.1123L42.0869 43H41.2051L44.9717 33.0469H45.7715L49.5381 43H48.6631L47.6309 40.2109ZM43.3721 39.4932H47.3643L45.3682 34.0723L43.3721 39.4932ZM56.7637 39.377C56.7637 40.5299 56.5085 41.446 55.998 42.125C55.4876 42.7995 54.804 43.1367 53.9473 43.1367C52.9355 43.1367 52.1608 42.7812 51.623 42.0703V45.8438H50.8096V35.6035H51.5684L51.6094 36.6494C52.1426 35.861 52.915 35.4668 53.9268 35.4668C54.8109 35.4668 55.5036 35.8018 56.0049 36.4717C56.5107 37.1416 56.7637 38.0713 56.7637 39.2607V39.377ZM55.9434 39.2334C55.9434 38.29 55.7497 37.5449 55.3623 36.998C54.9749 36.4512 54.4349 36.1777 53.7422 36.1777C53.2409 36.1777 52.8102 36.2985 52.4502 36.54C52.0902 36.7816 51.8145 37.1325 51.623 37.5928V41.1406C51.819 41.5645 52.0993 41.888 52.4639 42.1113C52.8285 42.3346 53.2591 42.4463 53.7559 42.4463C54.444 42.4463 54.9795 42.1729 55.3623 41.626C55.7497 41.0745 55.9434 40.277 55.9434 39.2334ZM63.251 43C63.1689 42.7676 63.1165 42.4235 63.0938 41.9678C62.8066 42.3415 62.4398 42.6309 61.9932 42.8359C61.5511 43.0365 61.0817 43.1367 60.585 43.1367C59.874 43.1367 59.2975 42.9385 58.8555 42.542C58.418 42.1455 58.1992 41.6442 58.1992 41.0381C58.1992 40.318 58.4977 39.7484 59.0947 39.3291C59.6963 38.9098 60.5326 38.7002 61.6035 38.7002H63.0869V37.8594C63.0869 37.3307 62.9229 36.916 62.5947 36.6152C62.2712 36.3099 61.7972 36.1572 61.1729 36.1572C60.6032 36.1572 60.1315 36.3031 59.7578 36.5947C59.3841 36.8864 59.1973 37.2373 59.1973 37.6475L58.377 37.6406C58.377 37.0527 58.6504 36.5446 59.1973 36.1162C59.7441 35.6833 60.4163 35.4668 61.2139 35.4668C62.0387 35.4668 62.6882 35.6742 63.1621 36.0889C63.6406 36.499 63.8867 37.0732 63.9004 37.8115V41.3115C63.9004 42.027 63.9756 42.5625 64.126 42.918V43H63.251ZM60.6807 42.4121C61.2275 42.4121 61.7152 42.2799 62.1436 42.0156C62.5765 41.7513 62.891 41.3981 63.0869 40.9561V39.3291H61.624C60.8083 39.3382 60.1702 39.4886 59.71 39.7803C59.2497 40.0674 59.0195 40.4639 59.0195 40.9697C59.0195 41.3844 59.1722 41.7285 59.4775 42.002C59.7874 42.2754 60.1885 42.4121 60.6807 42.4121ZM69.5059 36.3008C69.3327 36.2689 69.1481 36.2529 68.9521 36.2529C68.4417 36.2529 68.0088 36.3965 67.6533 36.6836C67.3024 36.9661 67.0518 37.3786 66.9014 37.9209V43H66.0879V35.6035H66.8877L66.9014 36.7793C67.3343 35.9043 68.0293 35.4668 68.9863 35.4668C69.2142 35.4668 69.3942 35.4964 69.5264 35.5557L69.5059 36.3008ZM72.418 33.71V35.6035H73.9492V36.2734H72.418V41.2021C72.418 41.6123 72.4909 41.9176 72.6367 42.1182C72.7871 42.3187 73.0355 42.4189 73.3818 42.4189C73.5186 42.4189 73.7396 42.3962 74.0449 42.3506L74.0791 43.0205C73.8649 43.098 73.5732 43.1367 73.2041 43.1367C72.6436 43.1367 72.2357 42.9749 71.9805 42.6514C71.7253 42.3232 71.5977 41.8424 71.5977 41.209V36.2734H70.2373V35.6035H71.5977V33.71H72.418ZM76.3896 35.6035L76.417 36.8066C76.6904 36.36 77.0322 36.0251 77.4424 35.8018C77.8525 35.5785 78.3083 35.4668 78.8096 35.4668C79.9762 35.4668 80.7168 35.9453 81.0312 36.9023C81.2956 36.4421 81.6488 36.0889 82.0908 35.8428C82.5329 35.5921 83.0205 35.4668 83.5537 35.4668C85.1396 35.4668 85.9486 36.3327 85.9805 38.0645V43H85.1602V38.126C85.1556 37.4652 85.012 36.9753 84.7295 36.6562C84.4515 36.3372 83.9958 36.1777 83.3623 36.1777C82.7744 36.1868 82.2777 36.3783 81.8721 36.752C81.4665 37.1211 81.2409 37.5723 81.1953 38.1055V43H80.375V38.0645C80.3704 37.431 80.2201 36.9593 79.9238 36.6494C79.6322 36.335 79.181 36.1777 78.5703 36.1777C78.0553 36.1777 77.6133 36.3258 77.2441 36.6221C76.875 36.9137 76.6016 37.349 76.4238 37.9277V43H75.6035V35.6035H76.3896ZM90.9229 43.1367C90.2939 43.1367 89.7243 42.9818 89.2139 42.6719C88.708 42.362 88.3138 41.9313 88.0312 41.3799C87.7487 40.8239 87.6074 40.2018 87.6074 39.5137V39.2197C87.6074 38.5088 87.7441 37.8685 88.0176 37.2988C88.2956 36.7292 88.6807 36.2826 89.1729 35.959C89.665 35.6309 90.1982 35.4668 90.7725 35.4668C91.6702 35.4668 92.3812 35.7744 92.9053 36.3896C93.4339 37.0003 93.6982 37.8366 93.6982 38.8984V39.3564H88.4209V39.5137C88.4209 40.3522 88.6602 41.0518 89.1387 41.6123C89.6217 42.1683 90.2279 42.4463 90.957 42.4463C91.3945 42.4463 91.7796 42.3665 92.1123 42.207C92.4495 42.0475 92.7549 41.7923 93.0283 41.4414L93.541 41.8311C92.9395 42.7015 92.0667 43.1367 90.9229 43.1367ZM90.7725 36.1641C90.1572 36.1641 89.6377 36.3896 89.2139 36.8408C88.7946 37.292 88.5394 37.8981 88.4482 38.6592H92.8848V38.5703C92.862 37.8594 92.6592 37.2806 92.2764 36.834C91.8936 36.3874 91.3923 36.1641 90.7725 36.1641ZM96.0703 35.6035L96.0977 36.8682C96.3757 36.4124 96.722 36.0661 97.1367 35.8291C97.5514 35.5876 98.0094 35.4668 98.5107 35.4668C99.3037 35.4668 99.8939 35.6901 100.281 36.1367C100.669 36.5833 100.865 37.2533 100.869 38.1465V43H100.056V38.1396C100.051 37.4788 99.9098 36.9867 99.6318 36.6631C99.3584 36.3395 98.9186 36.1777 98.3125 36.1777C97.8066 36.1777 97.3577 36.3372 96.9658 36.6562C96.5785 36.9707 96.2913 37.3968 96.1045 37.9346V43H95.291V35.6035H96.0703ZM104.26 33.71V35.6035H105.791V36.2734H104.26V41.2021C104.26 41.6123 104.333 41.9176 104.479 42.1182C104.629 42.3187 104.877 42.4189 105.224 42.4189C105.36 42.4189 105.581 42.3962 105.887 42.3506L105.921 43.0205C105.707 43.098 105.415 43.1367 105.046 43.1367C104.485 43.1367 104.077 42.9749 103.822 42.6514C103.567 42.3232 103.439 41.8424 103.439 41.209V36.2734H102.079V35.6035H103.439V33.71H104.26ZM111.916 41.1201C111.916 40.7145 111.752 40.3887 111.424 40.1426C111.1 39.8965 110.61 39.7051 109.954 39.5684C109.298 39.4271 108.787 39.2676 108.423 39.0898C108.063 38.9076 107.794 38.6865 107.616 38.4268C107.443 38.167 107.356 37.8525 107.356 37.4834C107.356 36.9001 107.6 36.4193 108.088 36.041C108.576 35.6582 109.2 35.4668 109.961 35.4668C110.786 35.4668 111.447 35.6719 111.943 36.082C112.445 36.4876 112.695 37.0186 112.695 37.6748H111.875C111.875 37.2419 111.693 36.8818 111.328 36.5947C110.968 36.3076 110.512 36.1641 109.961 36.1641C109.423 36.1641 108.99 36.2848 108.662 36.5264C108.339 36.7633 108.177 37.0732 108.177 37.4561C108.177 37.8252 108.311 38.1123 108.58 38.3174C108.854 38.5179 109.348 38.7025 110.063 38.8711C110.784 39.0397 111.321 39.2197 111.677 39.4111C112.037 39.6025 112.303 39.8327 112.477 40.1016C112.65 40.3704 112.736 40.6963 112.736 41.0791C112.736 41.7035 112.483 42.2025 111.978 42.5762C111.476 42.9499 110.82 43.1367 110.009 43.1367C109.147 43.1367 108.448 42.9294 107.91 42.5146C107.377 42.0954 107.11 41.5667 107.11 40.9287H107.931C107.963 41.4072 108.163 41.7809 108.532 42.0498C108.906 42.3141 109.398 42.4463 110.009 42.4463C110.578 42.4463 111.039 42.321 111.39 42.0703C111.741 41.8197 111.916 41.5029 111.916 41.1201Z" fill="black"/>
<g clip-path="url(#clip0)">
<path fill-rule="evenodd" clip-rule="evenodd" d="M14.0275 32.8023L14.007 32.7589L13.9755 32.7269L13.9476 32.7062L13.9123 32.6854L13.8751 32.6798L13.8324 32.6741L13.7915 32.6854L13.7432 32.7005L13.6911 32.7269L13.6372 32.7589L13.5796 32.8023L13.522 32.8551L13.4216 32.9682L13.3269 33.0757L13.2432 33.1812L13.1689 33.2887L13.1057 33.3905L13.0481 33.4923L12.9998 33.5941L12.9589 33.694L12.8994 33.8882L12.8678 34.0843L12.8641 34.2823L12.879 34.4802L12.905 34.6028L12.9422 34.6989L12.9942 34.7687L13.0537 34.812L13.1224 34.8328L13.2005 34.8271L13.2841 34.7951L13.3752 34.7366L13.5592 34.5349L13.7116 34.3369L13.8379 34.139L13.9383 33.9354L14.0108 33.7261L14.0591 33.5074L14.0851 33.2774V33.0267L14.0647 32.8985L14.0275 32.8023Z" fill="#E68E38"/>
<path fill-rule="evenodd" clip-rule="evenodd" d="M19.0247 33.9731L18.9727 33.7431L18.9039 33.5338L18.8036 33.3321L18.6884 33.1454L18.5397 32.9626L18.3613 32.7872L18.2609 32.7118L18.1661 32.6685L18.1197 32.6571H18.0769L18.0398 32.6628L18.0026 32.6741L17.971 32.6948L17.9394 32.7212L17.9134 32.7589L17.893 32.808L17.8762 32.8608L17.8614 32.9249L17.8502 32.9946L17.8446 33.0757L17.8502 33.2303L17.8614 33.3736L17.8762 33.5074L17.9041 33.6356L17.9301 33.7544L17.9617 33.8656L17.9989 33.9731L18.0398 34.0749L18.1345 34.2502L18.2553 34.4105L18.3873 34.5556L18.5397 34.6838L18.64 34.7479L18.7348 34.7894L18.8203 34.8007L18.8928 34.7894L18.956 34.7536L19.0099 34.6895L19.047 34.6084L19.0675 34.501L19.0563 34.2238L19.0247 33.9731Z" fill="#E68E38"/>
<path fill-rule="evenodd" clip-rule="evenodd" d="M17.945 22.7122L17.9673 22.7556L17.9933 22.7876L18.0249 22.814L18.0565 22.831L18.0918 22.8404H18.1346L18.1829 22.8347L18.2294 22.8197L18.2777 22.7989L18.3353 22.7612L18.3873 22.7235L18.4505 22.6707L18.5564 22.5576L18.6512 22.4501L18.7348 22.3446L18.8148 22.2428L18.8835 22.1409L18.9411 22.0391L18.9876 21.9373L19.0303 21.8355L19.0935 21.6432L19.1251 21.4453L19.1363 21.2473L19.1251 21.0512L19.1047 20.9325L19.0675 20.8363L19.0155 20.7628L18.956 20.7194L18.8835 20.6987L18.8036 20.7025L18.72 20.7307L18.6308 20.7892L18.4412 20.9871L18.2833 21.1832L18.1569 21.3774L18.051 21.5791L17.9766 21.7827L17.9246 22.0014L17.8986 22.2371L17.893 22.4878L17.9079 22.616L17.945 22.7122Z" fill="#E68E38"/>
<path fill-rule="evenodd" clip-rule="evenodd" d="M14.1074 22.0882L14.0907 21.9543L14.0703 21.8261L14.0442 21.7073L14.0164 21.5904L13.9792 21.4886L13.9383 21.3868L13.8435 21.2058L13.732 21.0399L13.6001 20.8948L13.4533 20.7666L13.3473 20.6987L13.2581 20.661L13.1689 20.644L13.0946 20.6553L13.0314 20.693L12.985 20.7571L12.9422 20.8363L12.9218 20.9438L12.9311 21.2209L12.9589 21.4736L13.0054 21.7017L13.0742 21.9166L13.1689 22.1146L13.2842 22.3069L13.4273 22.4878L13.6001 22.6651L13.7004 22.7386L13.7952 22.7819L13.8435 22.7989H13.8863H13.9216L13.9588 22.7819L13.9904 22.7669L14.0219 22.7348L14.048 22.7028L14.0703 22.6537L14.0851 22.601L14.1019 22.5369L14.1111 22.4671L14.1167 22.386L14.1111 22.2314L14.1074 22.0882Z" fill="#E68E38"/>
<path fill-rule="evenodd" clip-rule="evenodd" d="M22.8958 30.4664L22.8382 30.3759L22.6373 30.1893L22.442 30.029L22.2523 29.9008L22.0515 29.799L21.8469 29.7236L21.6312 29.6765L21.4043 29.6501H21.155L21.0286 29.6708L20.9337 29.7029L20.8928 29.7293L20.8612 29.7557L20.8389 29.7877L20.8184 29.8198L20.8073 29.8575V29.9008L20.8128 29.9423L20.8296 29.9913L20.8556 30.0441L20.8872 30.0988L20.93 30.1572L20.9821 30.2157L21.0937 30.3231L21.1978 30.4136L21.3038 30.4985L21.408 30.5739L21.5084 30.6436L21.6088 30.7021L21.7093 30.7492L21.8097 30.7926L21.9994 30.851L22.1947 30.8831L22.3899 30.8944L22.5852 30.8793L22.7005 30.851L22.7954 30.8133L22.8642 30.7605L22.9107 30.7021L22.933 30.6323L22.9274 30.5531L22.8958 30.4664Z" fill="#E68E38"/>
<path fill-rule="evenodd" clip-rule="evenodd" d="M11.0713 29.767L11.049 29.7349L11.0174 29.7029L10.9857 29.6765L10.9393 29.6539L10.8872 29.6388L10.8239 29.6218L10.7551 29.6124L10.6752 29.6067L10.5227 29.6124L10.3795 29.6218L10.2493 29.6331L10.1228 29.6539L10.0056 29.6821L9.89591 29.7142L9.7899 29.7519L9.68947 29.7877L9.51093 29.8839L9.35285 30.0026L9.20965 30.1346L9.08318 30.2854L9.01437 30.3929L8.97717 30.489L8.9623 30.5739L8.97345 30.6493L9.00879 30.7134L9.07202 30.7662L9.15199 30.8039L9.258 30.8246L9.53139 30.8133L9.77874 30.7869L10.0056 30.7341L10.2177 30.6644L10.4111 30.5739L10.597 30.4513L10.7812 30.3062L10.9541 30.1308L11.0285 30.029L11.0713 29.9329L11.0862 29.8424L11.0825 29.8047L11.0713 29.767Z" fill="#E68E38"/>
<path fill-rule="evenodd" clip-rule="evenodd" d="M31.9902 27.35L31.9753 26.9334L31.9567 26.5224L31.9195 26.1114L31.8786 25.7042L31.8209 25.2988L31.7577 24.8972L31.6777 24.4976L31.5847 24.1073L31.4955 23.7171L31.3987 23.3268L31.2872 22.9497L31.1663 22.5727L31.0342 22.1956L30.8985 21.8186L30.7497 21.4547L30.5916 21.0908L30.4279 20.7326L30.2457 20.3876L30.0597 20.0407L29.8737 19.6976L29.6784 19.362L29.4739 19.0302L29.2637 18.704L29.0424 18.3741L28.8174 18.0649L28.5849 17.7539L28.3413 17.4503L28.0939 17.1506L27.841 16.8659L27.5769 16.5831L27.3072 16.3003L27.032 16.0288L26.7493 15.7649L26.4703 15.5085L26.1746 15.2577L25.8752 15.0107L25.5683 14.777L25.2615 14.547L24.9453 14.3226L24.6235 14.1077L24.2962 13.9003L23.9596 13.7023L23.6211 13.5138L23.2789 13.3253L22.9311 13.15L22.5778 12.984L22.2244 12.8238L21.8525 12.6749L21.4805 12.5353L21.1086 12.4015L20.7366 12.2789L20.3646 12.1658L19.9927 12.0603L19.6114 11.9641L19.2227 11.8793L18.8266 11.7982L18.4305 11.7341L18.0362 11.6757L17.6363 11.6398L17.2365 11.6021L16.8255 11.5757L16.4145 11.5588H16.0034H15.5924L15.1796 11.5757L14.7741 11.6021L14.3687 11.6398L13.9688 11.6813L13.5671 11.7398L13.1729 11.8039L12.7786 11.8849L12.3843 11.9641L11.9993 12.0565L11.6144 12.1621L11.2424 12.2752L10.8704 12.3977L10.4985 12.5316L10.1265 12.6711L9.76759 12.82L9.40865 12.9803L9.05529 13.1462L8.70937 13.3272L8.36717 13.5157L8.02869 13.7042L7.69765 13.9022L7.37032 14.1096L7.05416 14.3226L6.73242 14.547L6.42741 14.777L6.12055 15.0107L5.82112 15.2577L5.52542 15.5085L5.24087 15.7649L4.9619 16.0326L4.68665 16.3003L4.41885 16.5831L4.15476 16.8659L3.90183 17.1543L3.65447 17.4541L3.41084 17.7576L3.18023 18.0687L2.95334 18.3741L2.73202 18.704L2.52001 19.0302L2.31543 19.362L2.12015 19.6938L1.93417 20.0369L1.7482 20.3838L1.57524 20.7307L1.41157 21.0889L1.25349 21.4528L1.10657 21.8167L0.968945 22.1937L0.836901 22.5708L0.716015 22.9479L0.604428 23.3249L0.50028 23.7152L0.40915 24.1054L0.32546 24.4957L0.247349 24.8954L0.184116 25.2969L0.124603 25.7023L0.0855475 26.1038L0.048352 26.5148L0.0223152 26.9258L0.00557709 27.3425V27.761L0.0167357 28.2889L0.0371934 28.8187L0.0799684 29.3428L0.137622 29.8556L0.212013 30.3684L0.301283 30.8755L0.401711 31.3827L0.526317 31.8823L0.658361 32.3743L0.805284 32.8551L0.968945 33.3302L1.15492 33.8015L1.3409 34.2653L1.54548 34.7197L1.76121 35.1702L1.99369 35.6076L2.0625 35.7358L2.13689 35.8584L2.42144 36.3071L2.72086 36.752L3.03145 37.1894L3.35877 37.623L3.68795 38.0491L4.03573 38.4771L4.38909 38.8994L4.76105 39.316L5.133 39.7327L5.50496 40.1455L6.28421 40.9562L7.08578 41.7631L7.90408 42.5663L9.55929 44.1575L10.3832 44.9568L11.2108 45.7524L12.0216 46.5537L12.8176 47.3606L13.5932 48.1788L13.9651 48.5898L14.3371 49.0064L14.4431 49.1309L14.5491 49.2478L14.6551 49.3552L14.7648 49.457L14.8708 49.5475L14.975 49.6267L15.081 49.7021L15.187 49.7662L15.293 49.8247L15.3972 49.8737L15.5032 49.9152L15.6129 49.9472L15.8249 49.9906L16.0351 50.0019L16.2471 49.9793L16.4572 49.9321L16.6674 49.8511L16.8794 49.7398L17.0951 49.6003L17.3053 49.4344L17.5173 49.2365L17.7275 49.0121L18.118 48.5521L18.5235 48.0996L18.9345 47.649L19.3566 47.2003L20.2159 46.3199L21.0918 45.4489L21.9827 44.593L22.8679 43.7483L23.7532 42.9094L24.618 42.0874L25.0401 41.6802L25.4567 41.2748L25.8677 40.8676L26.262 40.4679L26.6526 40.0664L27.0245 39.6704L27.3965 39.2708L27.7498 38.8805L28.0827 38.4846L28.4026 38.0943L28.7039 37.7041L28.9829 37.3138L29.247 36.9368L29.4887 36.5597L29.7101 36.1826L29.9109 35.8056L29.9648 35.7094L30.0169 35.6133L30.2494 35.174L30.4688 34.6933L30.6697 34.2389L30.8557 33.7808L31.0417 33.3095L31.2053 32.8344L31.3522 32.3536L31.4843 31.8672L31.6052 31.3751L31.7056 30.8718L31.7949 30.3703L31.8693 29.8575L31.9269 29.3447L31.9697 28.8206L31.9902 28.2964L32.0013 27.7686L31.9902 27.35ZM3.78652 25.8927V25.7419L3.80884 25.5816L3.84045 25.41L3.89253 25.1178L3.95576 24.8237L4.02457 24.5296L4.10268 24.2355L4.18823 23.9414L4.29238 23.653L4.39653 23.3588L4.50812 23.0591L4.629 22.765L4.75547 22.4671L4.89309 22.173L5.03443 21.8732L5.34688 21.2794L5.68908 20.6817L5.77277 20.5366L5.85832 20.4084L5.95317 20.2971L6.0536 20.201L6.15216 20.1199L6.25817 20.0558L6.36976 20.0087L6.47763 19.971L6.58921 19.954H6.7101L6.82541 19.971L6.94629 20.0087L7.06904 20.0615L7.18993 20.1369L7.31081 20.2274L7.4317 20.3348L12.2058 25.0895L12.3211 25.2291L12.4103 25.3686L12.4792 25.5119L12.5163 25.6627L12.5368 25.8116V25.9568L12.5108 26.1001L12.4643 26.2396L12.3955 26.3678L12.3062 26.4903L12.2002 26.6034L12.0737 26.6996L11.9305 26.7844L11.7724 26.8542L11.6051 26.907L11.4191 26.939L4.90983 26.988L4.73501 26.9654L4.57135 26.9334L4.43 26.8919L4.30354 26.8316L4.19195 26.7675L4.09152 26.6939L4.00783 26.6072L3.93902 26.5111L3.87393 26.4111L3.83301 26.2924L3.8014 26.1698L3.78652 26.036V25.8927ZM7.5935 35.0892L7.45215 35.1966L7.31453 35.2871L7.18249 35.3625L7.05602 35.4153L6.92955 35.4474L6.80867 35.4625H6.68778L6.57248 35.4417L6.46089 35.4097L6.3493 35.3569L6.24515 35.2871L6.13915 35.2061L6.03314 35.1061L5.93457 34.993L5.83972 34.8648L5.73371 34.7197L5.57191 34.4746L5.40825 34.2238L5.25575 33.9618L5.10697 33.6997L4.96562 33.4263L4.828 33.1492L4.69595 32.8664L4.57507 32.578L4.45418 32.2782L4.33702 31.9784L4.12128 31.3544L3.9353 30.7115L3.76048 30.0441L3.71957 29.8839L3.68795 29.7293V29.5841V29.4465V29.3088L3.71957 29.1863L3.76234 29.0732L3.81999 28.9714L3.88881 28.8809L3.97436 28.7998L4.06921 28.7263L4.17893 28.6678L4.3054 28.6188L4.44302 28.5868L4.58995 28.566L4.75361 28.5547L11.4488 28.5283L11.6348 28.5434L11.7985 28.5755L11.9473 28.6358L12.0793 28.7093L12.1946 28.8055L12.2895 28.9129L12.3676 29.0298L12.4308 29.1637L12.4736 29.3088L12.4959 29.4521V29.6124L12.4754 29.7689L12.4327 29.9329L12.3694 30.0931L12.2802 30.2534L12.1704 30.4099L7.5935 35.0892ZM15.1591 39.1237L15.1219 39.2896L15.081 39.4348L15.0271 39.563L14.9638 39.6799L14.8913 39.776L14.8057 39.8609L14.7109 39.9306L14.6067 39.9891L14.4896 40.0324L14.3687 40.0588L14.2366 40.0758H14.099H13.9465L13.7884 40.0494L13.6248 40.0173L13.3347 39.9627L13.0445 39.8986L12.7563 39.825L12.4661 39.744L12.176 39.6591L11.871 39.5517L11.5809 39.4499L11.2852 39.333L10.995 39.2104L10.7049 39.0804L10.1284 38.7919L9.53697 38.4771L8.953 38.1302L8.8098 38.0453L8.68333 37.9529L8.5736 37.8568L8.4769 37.7606L8.39879 37.6551L8.33741 37.5476L8.28906 37.4401L8.25744 37.3289L8.24256 37.2101V37.0932L8.26302 36.9707L8.30022 36.8519L8.35229 36.7294L8.4211 36.6068L8.51223 36.4843L8.62196 36.3617L13.3254 31.5354L13.4611 31.4185L13.5987 31.3261L13.7457 31.262L13.8889 31.2205L14.0358 31.2036H14.1846L14.3203 31.23L14.458 31.2846L14.5844 31.3525L14.7053 31.4392L14.8169 31.5505L14.9117 31.6749L14.9954 31.8182L15.0643 31.9784L15.1107 32.1556L15.1424 32.3442L15.174 38.9427L15.1591 39.1237ZM15.1758 23.3588L15.1386 23.5248L15.081 23.6737L15.0066 23.8075L14.9117 23.9244L14.8057 24.0206L14.6904 24.1017L14.5584 24.1658L14.4152 24.2091L14.2683 24.2299H14.1027L13.9558 24.2185L13.7922 24.1752L13.6341 24.1111L13.476 24.0206L13.3235 23.9075L8.72053 19.2376L8.61452 19.1L8.52339 18.9604L8.45458 18.8266L8.4025 18.6927L8.37275 18.5626L8.35601 18.4401V18.3232L8.37275 18.2044L8.40994 18.0876L8.46202 17.9744L8.52525 17.8689L8.60894 17.7614L8.70379 17.6596L8.81538 17.5578L8.94184 17.4616L9.08319 17.3655L9.32682 17.1996L9.57417 17.0356L9.82524 16.881L10.0837 16.732L10.3516 16.5869L10.6268 16.4549L10.9114 16.321L11.1959 16.1928L11.499 16.0703L11.7929 15.9572L12.4103 15.7441L13.0482 15.5462L13.7066 15.3746L13.8666 15.3312L14.0191 15.3048L14.1604 15.2935H14.298L14.4301 15.3105L14.5454 15.3426L14.657 15.3859L14.7611 15.4444L14.8522 15.5141L14.9303 15.599L14.9992 15.6951L15.0568 15.8082L15.1052 15.9364L15.1405 16.0741L15.1628 16.2249V16.3908L15.1777 23.1779L15.1758 23.3588ZM16.8924 16.551L16.9203 16.3738L16.9557 16.2136L16.9984 16.0646L17.0561 15.9364L17.1249 15.8233L17.1993 15.7272L17.283 15.6423L17.3778 15.5782L17.4838 15.5198L17.5991 15.4821L17.72 15.4557L17.8521 15.4387H18.0083L18.1552 15.4557L18.3133 15.4764L18.477 15.5141L18.7671 15.5726L19.0572 15.6423L19.3418 15.7158L19.6319 15.8026L19.922 15.8931L20.2121 15.9949L20.5023 16.1061L20.7924 16.2249L21.0807 16.3531L21.3559 16.4888L21.646 16.6321L21.9417 16.7829L22.522 17.1072L23.106 17.4654L23.2492 17.5521L23.3756 17.6426L23.4816 17.7444L23.5765 17.8406L23.6546 17.9462L23.7178 18.0536L23.7662 18.1667L23.7978 18.2836L23.8071 18.3967V18.5136L23.7848 18.6362L23.7476 18.7531L23.6899 18.8775L23.6174 19L23.5263 19.1169L23.4165 19.2395L18.6406 23.9904L18.503 24.1092L18.3598 24.194L18.2129 24.2581L18.0659 24.3015L17.9172 24.3128H17.7702L17.6326 24.2808L17.4969 24.2317L17.3704 24.1563L17.2476 24.0658L17.1435 23.9546L17.0486 23.8264L16.9631 23.6812L16.8999 23.521L16.8534 23.3456L16.8273 23.1571L16.8924 16.551ZM23.6713 37.0669L23.6546 37.1894L23.6193 37.3025L23.5709 37.4137L23.5021 37.5212L23.424 37.6268L23.3236 37.7342L23.212 37.8361L23.0855 37.9322L22.9442 38.0284L22.7005 38.1999L22.4532 38.3583L22.2002 38.5129L21.9417 38.6675L21.6739 38.8164L21.3987 38.9559L21.1197 39.0954L20.8352 39.2236L20.545 39.3462L20.2493 39.4687L19.6375 39.6874L19.0051 39.891L18.3468 40.0796L18.1887 40.121L18.0362 40.1531L17.893 40.1644H17.7516L17.6252 40.1531L17.5024 40.121L17.3927 40.0796L17.2923 40.0249L17.1974 39.9551L17.1175 39.8703L17.0449 39.7685L16.9873 39.661L16.9389 39.5328L16.9017 39.3952L16.8813 39.2444L16.8701 39.0785L16.7808 32.2914L16.792 32.1029L16.8292 31.937L16.8813 31.788L16.9557 31.6542L17.0449 31.5373L17.1491 31.4355L17.2718 31.3544L17.4039 31.2903L17.5396 31.2488L17.6884 31.2262H17.8409L17.999 31.2488L18.1571 31.2865L18.3207 31.3506L18.4788 31.4355L18.6369 31.5467L23.2864 36.1487L23.4017 36.2845L23.4928 36.424L23.5653 36.5559L23.6193 36.6898L23.6546 36.818L23.6713 36.9405V37.0669ZM28.1106 29.6859L28.0995 29.8405L28.079 30.0008L28.0418 30.1667L27.9898 30.4608L27.9265 30.753L27.8521 31.0471L27.7722 31.3412L27.6792 31.6259L27.5787 31.92L27.4746 32.2141L27.363 32.5082L27.2365 32.8023L27.1212 33.1021L26.978 33.3943L26.8367 33.6941L26.5205 34.2879L26.1727 34.8799L26.0872 35.0251L25.9979 35.1533L25.9031 35.2664L25.8082 35.3625L25.7022 35.4417L25.5981 35.5058L25.4865 35.5548L25.3768 35.5869H25.2596H25.1443L25.029 35.5662L24.9062 35.5284L24.7853 35.4757L24.67 35.4002L24.5492 35.3098L24.4264 35.1966L19.6821 30.4136L19.5668 30.2741L19.4812 30.129L19.4143 29.9857L19.3771 29.8367L19.3604 29.6859V29.5426L19.392 29.3975L19.4403 29.2636L19.5073 29.1297L19.5984 29.0129L19.7026 28.8997L19.829 28.8036L19.9722 28.7187L20.1303 28.6546L20.3033 28.6075L20.4892 28.5755H26.9985L27.1733 28.5962L27.337 28.6339L27.4783 28.6754L27.6048 28.7357L27.7164 28.7998L27.8168 28.8733L27.9005 28.9601L27.9693 29.0562L28.0214 29.1618L28.0641 29.2806L28.0902 29.4031L28.1069 29.537L28.1106 29.6859ZM28.2371 26.068L28.2204 26.2019L28.1943 26.3188L28.1478 26.4319L28.0939 26.5393L28.0214 26.6298L27.9358 26.709L27.841 26.7788L27.7312 26.8372L27.6048 26.8862L27.4672 26.9239L27.3202 26.9447H27.1566L20.4613 26.956L20.2754 26.939L20.1117 26.9013L19.9648 26.8429L19.8327 26.7675L19.723 26.677L19.6226 26.5695L19.5426 26.447L19.485 26.3131L19.4422 26.1698L19.4161 26.019V25.8644L19.4385 25.7042L19.4794 25.5439L19.5426 25.3837L19.6319 25.2177L19.7435 25.0632L24.3464 20.4084L24.4878 20.3028L24.6254 20.2104L24.7574 20.1425L24.8895 20.0879L25.016 20.0558L25.1368 20.0407H25.2615L25.3786 20.0615L25.4883 20.0935L25.5999 20.1463L25.7041 20.2161L25.8101 20.2971L25.9105 20.3989L26.0109 20.5102L26.1058 20.6384L26.2006 20.7835L26.3643 21.0286L26.528 21.285L26.6805 21.5414L26.8274 21.8091L26.9706 22.0806L27.1026 22.3596L27.2328 22.6424L27.3611 22.9309L27.482 23.2306L27.5918 23.5304L27.7034 23.8396L27.8038 24.1544L27.9898 24.8011L28.1571 25.4704L28.1999 25.6306L28.2259 25.7852L28.2371 25.9285V26.068Z" fill="#E68E38"/>
<path fill-rule="evenodd" clip-rule="evenodd" d="M8.98834 25.0632L9.04599 25.1555L9.24685 25.3422L9.44212 25.4968L9.6374 25.625L9.83826 25.7268L10.0428 25.7965L10.2586 25.8437L10.491 25.8663H10.7384L10.8593 25.8437L10.9597 25.8116L10.9969 25.7852L11.0285 25.7588L11.0546 25.7268L11.0713 25.6947L11.0825 25.657V25.6137L11.0769 25.5722L11.0601 25.5232L11.0341 25.4704L11.0025 25.4176L10.9597 25.3573L10.9076 25.2988L10.796 25.197L10.6919 25.1009L10.5803 25.016L10.4799 24.9406L10.3757 24.8765L10.2753 24.8181L10.1749 24.7709L10.0744 24.7276L9.87917 24.6691L9.68947 24.6371L9.4942 24.6314L9.29892 24.6465L9.17803 24.6748L9.08319 24.7106L9.01437 24.7653L8.97346 24.8294L8.95114 24.8991L8.95672 24.9783L8.98834 25.0632Z" fill="#E68E38"/>
<path fill-rule="evenodd" clip-rule="evenodd" d="M22.9107 24.7804L22.8475 24.7276L22.7693 24.6899L22.6633 24.6691L22.3899 24.6786L22.1426 24.7049L21.9157 24.754L21.7037 24.8237L21.5084 24.9199L21.3187 25.0368L21.1402 25.1876L20.9654 25.3629L20.8928 25.4647L20.85 25.5609L20.8352 25.6099V25.6514V25.6891L20.85 25.7268L20.8668 25.7588L20.8984 25.7909L20.93 25.8173L20.9765 25.8399L21.0286 25.855L21.0937 25.8701L21.1606 25.8814L21.2406 25.887L21.3931 25.8814L21.5363 25.8757L21.6665 25.8606L21.7948 25.8399L21.9101 25.8116L22.0254 25.7796L22.1259 25.7475L22.2263 25.706L22.4048 25.6099L22.5685 25.4911L22.7117 25.3573L22.8382 25.2027L22.907 25.1009L22.9423 25.0047L22.959 24.9199L22.9479 24.8445L22.9107 24.7804Z" fill="#E68E38"/>
<path fill-rule="evenodd" clip-rule="evenodd" d="M5.50869 0L6.02013 0.0527884L6.51669 0.1282L7.00024 0.213039L7.47076 0.314845L7.92827 0.437389L8.37276 0.571246L8.79865 0.72584L9.21524 0.897402L9.62067 1.08028L10.0112 1.282L10.385 1.5007L10.7496 1.73636L11.0973 1.98711L11.434 2.25482L11.7557 2.53761L12.0626 2.83738L12.3564 3.15222L12.641 3.48403L12.9051 3.83093L13.1636 4.19479L13.4053 4.57939L13.6322 4.9753L13.8442 5.3863L14.0488 5.81426L14.2348 6.26296L14.4078 6.72298L14.5714 7.20373L14.7183 7.69579L14.8504 8.20294L14.9713 8.73271L15.0773 9.2719L15.1721 9.83372L14.6235 9.76962L14.0916 9.6829L13.5746 9.58675L13.0743 9.47551L12.5833 9.35297L12.1146 9.2078L11.6609 9.04755L11.2238 8.87599L10.8016 8.68369L10.3962 8.48196L10.0056 8.25761L9.63183 8.02195L9.27289 7.7712L8.93069 7.50349L8.60337 7.2207L8.29279 6.92093L7.99708 6.60609L7.71811 6.27428L7.45402 5.93115L7.20667 5.56917L6.9742 5.18834L6.76404 4.79809L6.56319 4.38709L6.38465 3.96478L6.21541 3.52739L6.06849 3.06738L5.93086 2.59794L5.81555 2.11153L5.71513 1.6025L5.62958 1.08405L5.56262 0.550507L5.50869 0Z" fill="#6C9E28"/>
<path fill-rule="evenodd" clip-rule="evenodd" d="M23.5542 2.99763L23.5225 3.35583L23.4761 3.70838L23.4184 4.05151L23.3496 4.38144L23.2696 4.70382L23.1803 5.01867L23.0799 5.3222L22.9702 5.61631L22.8437 5.8991L22.7061 6.17813L22.5629 6.44584L22.4048 6.70224L22.2374 6.94733L22.0515 7.18865L21.8618 7.413L21.6628 7.63735L21.4452 7.84473L21.2183 8.04269L20.9821 8.23499L20.7347 8.41786L20.4762 8.59319L20.2066 8.75344L19.9276 8.90804L19.6319 9.05321L19.3325 9.19272L19.0163 9.32092L18.689 9.43215L18.3505 9.54527L18.0027 9.64142L17.6456 9.73191L17.27 9.8111L16.8906 9.88085L16.9333 9.49625L16.9798 9.11731L17.0431 8.75344L17.1175 8.39524L17.203 8.054L17.296 7.72219L17.402 7.40168L17.5136 7.0925L17.64 6.79273L17.7814 6.50428L17.9302 6.22526L18.0883 5.9632L18.2556 5.7068L18.436 5.46171L18.6313 5.23171L18.8303 5.01301L19.0423 4.79809L19.2692 4.60202L19.5054 4.41349L19.749 4.23815L20.0076 4.07225L20.2754 3.91765L20.5543 3.77814L20.8445 3.64428L21.1457 3.52174L21.4563 3.41428L21.7781 3.31813L22.111 3.23329L22.4532 3.15788L22.8121 3.09378L23.1748 3.04099L23.5542 2.99763Z" fill="#6C9E28"/>
<path fill-rule="evenodd" clip-rule="evenodd" d="M23.5542 2.99763L23.5225 3.35583L23.4761 3.70838L23.4184 4.05151L23.3496 4.38144L23.2696 4.70382L23.1803 5.01867L23.0799 5.3222L22.9702 5.61631L22.8437 5.8991L22.7061 6.17813L22.5629 6.44584L22.4048 6.70224L22.2374 6.94733L22.0515 7.18865L21.8618 7.413L21.6628 7.63735L21.4452 7.84473L21.2183 8.04269L20.9821 8.23499L20.7347 8.41786L20.4762 8.59319L20.2066 8.75344L19.9276 8.90804L19.6319 9.05321L19.3325 9.19272L19.0163 9.32092L18.689 9.43215L18.3505 9.54527L18.0027 9.64142L17.6456 9.73191L17.27 9.8111L16.8906 9.88085L16.9333 9.49625L16.9798 9.11731L17.0431 8.75344L17.1175 8.39524L17.203 8.054L17.296 7.72219L17.402 7.40168L17.5136 7.0925L17.64 6.79273L17.7814 6.50428L17.9302 6.22526L18.0883 5.9632L18.2556 5.7068L18.436 5.46171L18.6313 5.23171L18.8303 5.01301L19.0423 4.79809L19.2692 4.60202L19.5054 4.41349L19.749 4.23815L20.0076 4.07225L20.2754 3.91765L20.5543 3.77814L20.8445 3.64428L21.1457 3.52174L21.4563 3.41428L21.7781 3.31813L22.111 3.23329L22.4532 3.15788L22.8121 3.09378L23.1748 3.04099L23.5542 2.99763Z" stroke="white" stroke-width="0.03" stroke-miterlimit="10"/>
</g>
<defs>
<clipPath id="clip0">
<rect width="31.9939" height="50" fill="white"/>
</clipPath>
</defs>
</svg>
