<svg width="450" height="586" viewBox="0 0 450 586" fill="none" xmlns="http://www.w3.org/2000/svg">
<path d="M229.339 1.19908L229.339 1.19915L438.702 70.1325C445.088 72.2346 449.501 78.7067 449.5 86.0952V338.85C449.5 371.599 437.422 405.152 413.552 438.585C395.319 464.12 370.085 489.776 338.54 514.838C285.543 556.941 233.354 582.771 231.17 583.843L231.39 584.292L231.17 583.843C229.205 584.81 227.102 585.291 225.001 585.291C222.899 585.291 220.797 584.809 218.832 583.843L218.612 584.292L218.832 583.843C216.648 582.771 164.458 556.941 111.461 514.838C79.9153 489.776 54.6813 464.12 36.4485 438.585C12.5782 405.151 0.5 371.598 0.5 338.85V86.0952C0.5 78.7067 4.91441 72.2346 11.3004 70.1325L220.665 1.19915L220.509 0.72423L220.665 1.19913C223.495 0.26694 226.512 0.266992 229.339 1.19908ZM224.768 550.107L225.002 550.231L225.236 550.107C240.588 541.983 281.188 519.37 321.227 487.498C343.555 469.723 368.044 447.173 386.955 421.774C405.862 396.38 419.227 368.092 419.227 338.85V98.8636V98.5019L418.883 98.3887L225.157 34.6039L225.001 34.5524L224.845 34.6039L31.118 98.3887L30.7743 98.5019V98.8636V338.85C30.7743 368.092 44.139 396.38 63.0467 421.774C81.9579 447.173 106.447 469.723 128.777 487.498C168.815 519.37 209.416 541.983 224.768 550.107Z" stroke="#E68E38"/>
<path d="M132 284L210.5 362.5L322 202" stroke="#E68E38"/>
</svg>
