<svg width="450" height="586" viewBox="0 0 450 586" fill="none" xmlns="http://www.w3.org/2000/svg">
<path d="M146.406 138.91C146.406 141.371 145.964 143.552 145.078 145.453C144.206 147.341 142.956 148.806 141.328 149.848C139.701 150.876 137.826 151.391 135.703 151.391C132.5 151.391 129.909 150.251 127.93 147.973C125.951 145.694 124.961 142.621 124.961 138.754V134.652C124.961 132.204 125.397 130.03 126.27 128.129C127.155 126.228 128.411 124.763 130.039 123.734C131.68 122.693 133.555 122.172 135.664 122.172C137.786 122.172 139.661 122.693 141.289 123.734C142.93 124.763 144.193 126.234 145.078 128.148C145.964 130.049 146.406 132.217 146.406 134.652V138.91ZM145.352 134.613C145.352 131.176 144.479 128.422 142.734 126.352C140.99 124.268 138.633 123.227 135.664 123.227C132.734 123.227 130.397 124.262 128.652 126.332C126.908 128.389 126.035 131.195 126.035 134.75V138.91C126.035 141.176 126.426 143.181 127.207 144.926C128.001 146.658 129.128 147.992 130.586 148.93C132.044 149.867 133.75 150.336 135.703 150.336C138.672 150.336 141.022 149.301 142.754 147.23C144.486 145.16 145.352 142.335 145.352 138.754V134.613Z" fill="#E68E38"/>
<path d="M173.73 138.832H163.867V151H162.812V122.562H171.875C174.727 122.562 176.992 123.298 178.672 124.77C180.365 126.241 181.211 128.24 181.211 130.766C181.211 132.706 180.605 134.405 179.395 135.863C178.197 137.309 176.667 138.207 174.805 138.559L182.402 150.727V151H181.289L173.73 138.832ZM163.867 137.777H172.832C175.02 137.777 176.784 137.113 178.125 135.785C179.479 134.457 180.156 132.784 180.156 130.766C180.156 128.552 179.408 126.807 177.91 125.531C176.426 124.255 174.388 123.617 171.797 123.617H163.867V137.777Z" fill="#E68E38"/>
<path d="M214.062 142.504H200.137L196.973 151H195.82L206.465 122.562H207.754L218.398 151H217.246L214.062 142.504ZM200.527 141.449H213.672L207.109 123.832L200.527 141.449Z" fill="#E68E38"/>
<path d="M253.477 151H252.422L234.062 124.359V151H232.988V122.562H234.062L252.422 149.145V122.562H253.477V151Z" fill="#E68E38"/>
<path d="M291.348 147.953C290.632 148.943 289.375 149.763 287.578 150.414C285.781 151.065 283.802 151.391 281.641 151.391C279.531 151.391 277.65 150.876 275.996 149.848C274.342 148.819 273.047 147.367 272.109 145.492C271.185 143.617 270.71 141.495 270.684 139.125V134.242C270.684 131.911 271.133 129.822 272.031 127.973C272.93 126.124 274.193 124.698 275.82 123.695C277.448 122.68 279.277 122.172 281.309 122.172C284.134 122.172 286.432 122.895 288.203 124.34C289.987 125.785 291.022 127.758 291.309 130.258H290.254C289.902 127.992 288.958 126.254 287.422 125.043C285.885 123.832 283.848 123.227 281.309 123.227C278.444 123.227 276.133 124.249 274.375 126.293C272.617 128.337 271.738 131.026 271.738 134.359V138.891C271.738 141.117 272.148 143.103 272.969 144.848C273.802 146.592 274.967 147.947 276.465 148.91C277.975 149.861 279.701 150.336 281.641 150.336C283.542 150.336 285.306 150.056 286.934 149.496C288.561 148.936 289.681 148.259 290.293 147.465V139.184H281.602V138.109H291.348V147.953Z" fill="#E68E38"/>
<path d="M324.082 136.898H309.824V149.945H326.074V151H308.77V122.562H326.074V123.617H309.824V135.844H324.082V136.898Z" fill="#E68E38"/>
<path d="M106.875 187.504H92.9492L89.7852 196H88.6328L99.2773 167.562H100.566L111.211 196H110.059L106.875 187.504ZM93.3398 186.449H106.484L99.9219 168.832L93.3398 186.449Z" fill="#E68E38"/>
<path d="M126.855 183.988V196H125.801V167.562H134.688C137.591 167.562 139.844 168.298 141.445 169.77C143.06 171.228 143.867 173.259 143.867 175.863C143.867 178.441 143.079 180.434 141.504 181.84C139.941 183.246 137.715 183.962 134.824 183.988H126.855ZM126.855 182.934H134.688C137.253 182.934 139.245 182.315 140.664 181.078C142.096 179.841 142.812 178.116 142.812 175.902C142.812 173.611 142.096 171.827 140.664 170.551C139.245 169.262 137.253 168.617 134.688 168.617H126.855V182.934Z" fill="#E68E38"/>
<path d="M172.109 187.504H158.184L155.02 196H153.867L164.512 167.562H165.801L176.445 196H175.293L172.109 187.504ZM158.574 186.449H171.719L165.156 168.832L158.574 186.449Z" fill="#E68E38"/>
<path d="M201.855 183.832H191.992V196H190.938V167.562H200C202.852 167.562 205.117 168.298 206.797 169.77C208.49 171.241 209.336 173.24 209.336 175.766C209.336 177.706 208.73 179.405 207.52 180.863C206.322 182.309 204.792 183.207 202.93 183.559L210.527 195.727V196H209.414L201.855 183.832ZM191.992 182.777H200.957C203.145 182.777 204.909 182.113 206.25 180.785C207.604 179.457 208.281 177.784 208.281 175.766C208.281 173.552 207.533 171.807 206.035 170.531C204.551 169.255 202.513 168.617 199.922 168.617H191.992V182.777Z" fill="#E68E38"/>
<path d="M228.711 167.562L240.41 194.457L252.148 167.562H253.691V196H252.637V169.125L240.84 196H240L228.262 169.262V196H227.207V167.562H228.711Z" fill="#E68E38"/>
<path d="M286.816 181.898H272.559V194.945H288.809V196H271.504V167.562H288.809V168.617H272.559V180.844H286.816V181.898Z" fill="#E68E38"/>
<path d="M324.766 196H323.711L305.352 169.359V196H304.277V167.562H305.352L323.711 194.145V167.562H324.766V196Z" fill="#E68E38"/>
<path d="M360.938 168.617H350.586V196H349.531V168.617H339.18V167.562H360.938V168.617Z" fill="#E68E38"/>
<path d="M229.339 1.19908L229.339 1.19915L438.702 70.1325C445.088 72.2346 449.501 78.7067 449.5 86.0952V338.85C449.5 371.599 437.422 405.152 413.552 438.585C395.319 464.12 370.085 489.776 338.54 514.838C285.543 556.941 233.354 582.771 231.17 583.843L231.39 584.292L231.17 583.843C229.205 584.81 227.102 585.291 225.001 585.291C222.899 585.291 220.797 584.809 218.832 583.843L218.612 584.292L218.832 583.843C216.648 582.771 164.458 556.941 111.461 514.838C79.9153 489.776 54.6813 464.12 36.4485 438.585C12.5782 405.151 0.5 371.598 0.5 338.85V86.0952C0.5 78.7067 4.91441 72.2346 11.3004 70.1325L220.665 1.19915L220.509 0.72423L220.665 1.19913C223.495 0.26694 226.512 0.266992 229.339 1.19908ZM224.768 550.107L225.002 550.231L225.236 550.107C240.588 541.983 281.188 519.37 321.227 487.498C343.555 469.723 368.044 447.173 386.955 421.774C405.862 396.38 419.227 368.092 419.227 338.85V98.8636V98.5019L418.883 98.3887L225.157 34.6039L225.001 34.5524L224.845 34.6039L31.118 98.3887L30.7743 98.5019V98.8636V338.85C30.7743 368.092 44.139 396.38 63.0467 421.774C81.9579 447.173 106.447 469.723 128.777 487.498C168.815 519.37 209.416 541.983 224.768 550.107Z" stroke="#E68E38"/>
<g clip-path="url(#clip0)">
<path fill-rule="evenodd" clip-rule="evenodd" d="M215.771 394.547L215.675 394.346L215.526 394.198L215.396 394.102L215.23 394.007L215.056 393.98L214.855 393.954L214.663 394.007L214.436 394.076L214.192 394.198L213.939 394.346L213.669 394.547L213.399 394.791L212.928 395.313L212.483 395.81L212.091 396.297L211.742 396.794L211.446 397.264L211.175 397.735L210.949 398.205L210.757 398.666L210.478 399.564L210.33 400.469L210.312 401.384L210.382 402.299L210.504 402.865L210.678 403.309L210.923 403.631L211.202 403.832L211.524 403.927L211.89 403.901L212.283 403.753L212.71 403.483L213.573 402.551L214.288 401.637L214.881 400.722L215.352 399.781L215.692 398.815L215.919 397.804L216.041 396.742V395.583L215.945 394.991L215.771 394.547Z" fill="#E68E38"/>
<path fill-rule="evenodd" clip-rule="evenodd" d="M239.2 399.956L238.955 398.893L238.633 397.926L238.162 396.994L237.621 396.132L236.924 395.287L236.087 394.477L235.616 394.129L235.171 393.928L234.953 393.876H234.753L234.578 393.902L234.404 393.954L234.256 394.05L234.107 394.172L233.985 394.346L233.889 394.573L233.811 394.817L233.741 395.113L233.689 395.435L233.663 395.81L233.689 396.524L233.741 397.186L233.811 397.804L233.942 398.397L234.064 398.945L234.212 399.459L234.386 399.956L234.578 400.426L235.023 401.236L235.59 401.976L236.209 402.647L236.924 403.239L237.395 403.535L237.839 403.727L238.24 403.779L238.58 403.727L238.877 403.562L239.13 403.265L239.304 402.891L239.4 402.394L239.348 401.114L239.2 399.956Z" fill="#E68E38"/>
<path fill-rule="evenodd" clip-rule="evenodd" d="M234.134 347.93L234.238 348.131L234.36 348.279L234.509 348.401L234.657 348.479L234.822 348.523H235.023L235.25 348.496L235.468 348.427L235.694 348.331L235.965 348.157L236.209 347.983L236.505 347.739L237.002 347.216L237.447 346.72L237.839 346.232L238.214 345.761L238.537 345.291L238.807 344.821L239.025 344.35L239.226 343.88L239.522 342.992L239.67 342.077L239.723 341.163L239.67 340.257L239.574 339.708L239.4 339.264L239.156 338.924L238.877 338.724L238.537 338.628L238.162 338.645L237.77 338.776L237.351 339.046L236.462 339.961L235.721 340.866L235.128 341.764L234.631 342.696L234.282 343.636L234.038 344.647L233.916 345.735L233.889 346.894L233.959 347.486L234.134 347.93Z" fill="#E68E38"/>
<path fill-rule="evenodd" clip-rule="evenodd" d="M216.145 345.047L216.067 344.429L215.971 343.837L215.849 343.288L215.718 342.748L215.544 342.277L215.352 341.807L214.907 340.971L214.384 340.204L213.765 339.534L213.076 338.942L212.579 338.628L212.161 338.454L211.742 338.375L211.393 338.428L211.097 338.602L210.879 338.898L210.678 339.264L210.582 339.76L210.626 341.041L210.757 342.208L210.975 343.262L211.297 344.255L211.742 345.169L212.283 346.058L212.954 346.894L213.765 347.713L214.236 348.052L214.681 348.253L214.907 348.331H215.108H215.274L215.448 348.253L215.596 348.183L215.744 348.035L215.866 347.887L215.971 347.66L216.041 347.416L216.119 347.12L216.163 346.798L216.189 346.423L216.163 345.709L216.145 345.047Z" fill="#E68E38"/>
<path fill-rule="evenodd" clip-rule="evenodd" d="M257.345 383.755L257.074 383.337L256.133 382.474L255.217 381.734L254.328 381.142L253.386 380.671L252.427 380.323L251.415 380.105L250.352 379.983H249.183L248.59 380.079L248.146 380.227L247.954 380.349L247.806 380.471L247.701 380.619L247.605 380.767L247.553 380.942V381.142L247.579 381.333L247.657 381.56L247.779 381.804L247.928 382.056L248.128 382.326L248.372 382.596L248.896 383.093L249.384 383.511L249.881 383.903L250.369 384.251L250.84 384.574L251.311 384.844L251.782 385.061L252.253 385.262L253.142 385.532L254.057 385.68L254.973 385.732L255.889 385.662L256.429 385.532L256.874 385.358L257.196 385.114L257.414 384.844L257.519 384.521L257.493 384.156L257.345 383.755Z" fill="#E68E38"/>
<path fill-rule="evenodd" clip-rule="evenodd" d="M201.907 380.523L201.802 380.375L201.654 380.227L201.506 380.105L201.288 380.001L201.043 379.931L200.747 379.853L200.424 379.809L200.049 379.783L199.334 379.809L198.663 379.853L198.053 379.905L197.46 380.001L196.91 380.131L196.396 380.28L195.899 380.454L195.428 380.619L194.591 381.063L193.85 381.612L193.179 382.222L192.586 382.919L192.263 383.415L192.089 383.859L192.019 384.251L192.071 384.6L192.237 384.896L192.533 385.14L192.908 385.314L193.405 385.41L194.687 385.358L195.847 385.236L196.91 384.992L197.904 384.669L198.811 384.251L199.683 383.685L200.546 383.015L201.357 382.205L201.706 381.734L201.907 381.29L201.976 380.872L201.959 380.698L201.907 380.523Z" fill="#E68E38"/>
<mask id="path-9-inside-1" fill="white">
<path fill-rule="evenodd" clip-rule="evenodd" d="M299.983 369.357L299.913 367.432L299.826 365.533L299.651 363.635L299.459 361.753L299.189 359.881L298.893 358.025L298.518 356.179L298.082 354.376L297.663 352.573L297.21 350.77L296.687 349.028L296.12 347.286L295.501 345.544L294.864 343.802L294.167 342.121L293.426 340.44L292.658 338.785L291.804 337.191L290.932 335.588L290.06 334.003L289.144 332.453L288.185 330.92L287.2 329.413L286.162 327.888L285.107 326.46L284.017 325.023L282.875 323.62L281.715 322.236L280.53 320.92L279.291 319.614L278.027 318.307L276.737 317.053L275.411 315.834L274.103 314.649L272.717 313.491L271.313 312.35L269.874 311.27L268.436 310.207L266.953 309.17L265.445 308.178L263.91 307.219L262.332 306.305L260.745 305.434L259.141 304.563L257.51 303.753L255.854 302.986L254.197 302.246L252.453 301.558L250.709 300.913L248.965 300.295L247.221 299.729L245.478 299.206L243.734 298.718L241.946 298.274L240.124 297.882L238.267 297.508L236.409 297.212L234.561 296.942L232.686 296.776L230.811 296.602L228.885 296.48L226.958 296.401H225.031H223.104L221.168 296.48L219.267 296.602L217.366 296.776L215.491 296.968L213.608 297.238L211.76 297.534L209.911 297.908L208.063 298.274L206.258 298.701L204.453 299.189L202.709 299.711L200.965 300.277L199.221 300.896L197.477 301.54L195.794 302.229L194.111 302.969L192.455 303.735L190.833 304.572L189.229 305.443L187.642 306.314L186.09 307.228L184.555 308.186L183.073 309.17L181.564 310.207L180.134 311.27L178.696 312.35L177.292 313.491L175.905 314.649L174.571 315.834L173.263 317.071L171.973 318.307L170.717 319.614L169.479 320.92L168.293 322.253L167.134 323.638L165.991 325.04L164.91 326.477L163.846 327.888L162.809 329.413L161.815 330.92L160.856 332.453L159.94 333.985L159.068 335.571L158.196 337.173L157.385 338.776L156.618 340.431L155.877 342.112L155.188 343.793L154.543 345.535L153.924 347.277L153.357 349.019L152.834 350.761L152.346 352.564L151.918 354.367L151.526 356.17L151.16 358.017L150.863 359.872L150.584 361.745L150.401 363.6L150.227 365.499L150.105 367.397L150.026 369.322V371.256L150.078 373.695L150.174 376.142L150.375 378.564L150.645 380.933L150.994 383.302L151.413 385.645L151.883 387.988L152.468 390.296L153.087 392.569L153.776 394.791L154.543 396.985L155.415 399.163L156.287 401.306L157.246 403.405L158.257 405.487L159.347 407.507L159.67 408.1L160.019 408.666L161.353 410.739L162.756 412.794L164.213 414.815L165.747 416.818L167.291 418.787L168.921 420.764L170.578 422.715L172.322 424.64L174.066 426.565L175.809 428.472L179.463 432.218L183.221 435.946L187.057 439.656L194.818 447.007L198.68 450.701L202.561 454.376L206.362 458.078L210.094 461.806L213.73 465.586L215.474 467.485L217.218 469.41L217.715 469.985L218.212 470.525L218.709 471.021L219.223 471.491L219.72 471.91L220.209 472.275L220.706 472.624L221.203 472.92L221.7 473.19L222.188 473.416L222.685 473.608L223.199 473.756L224.193 473.956L225.179 474.009L226.173 473.904L227.158 473.686L228.143 473.312L229.137 472.798L230.149 472.153L231.134 471.387L232.128 470.472L233.113 469.436L234.944 467.311L236.845 465.22L238.772 463.139L240.752 461.066L244.78 456.998L248.887 452.974L253.063 449.02L257.214 445.117L261.364 441.241L265.419 437.444L267.398 435.562L269.351 433.69L271.278 431.808L273.127 429.962L274.958 428.107L276.702 426.277L278.446 424.431L280.102 422.628L281.663 420.799L283.163 418.996L284.575 417.193L285.883 415.39L287.121 413.648L288.255 411.906L289.293 410.164L290.234 408.422L290.487 407.978L290.731 407.533L291.821 405.504L292.85 403.283L293.792 401.184L294.664 399.067L295.536 396.89L296.303 394.695L296.992 392.474L297.611 390.226L298.178 387.953L298.648 385.628L299.067 383.311L299.416 380.942L299.686 378.572L299.887 376.151L299.983 373.73L300.035 371.291L299.983 369.357ZM167.753 362.624V361.927L167.857 361.187L168.006 360.394L168.25 359.044L168.546 357.686L168.869 356.327L169.235 354.968L169.636 353.609L170.124 352.277L170.613 350.918L171.136 349.533L171.703 348.174L172.296 346.798L172.941 345.439L173.603 344.054L175.068 341.311L176.673 338.55L177.065 337.879L177.466 337.287L177.911 336.773L178.382 336.328L178.844 335.954L179.341 335.658L179.864 335.44L180.37 335.266L180.893 335.187H181.46L182 335.266L182.567 335.44L183.142 335.684L183.709 336.032L184.276 336.45L184.843 336.947L207.225 358.914L207.766 359.558L208.185 360.203L208.507 360.865L208.682 361.562L208.778 362.25V362.92L208.655 363.582L208.437 364.227L208.115 364.819L207.696 365.385L207.199 365.908L206.606 366.352L205.935 366.744L205.194 367.066L204.409 367.31L203.537 367.458L173.019 367.685L172.2 367.58L171.432 367.432L170.77 367.241L170.177 366.962L169.654 366.666L169.183 366.326L168.79 365.925L168.468 365.481L168.163 365.019L167.971 364.471L167.822 363.905L167.753 363.286V362.624ZM185.601 405.112L184.939 405.608L184.293 406.027L183.674 406.375L183.081 406.619L182.489 406.767L181.922 406.837H181.355L180.814 406.741L180.291 406.593L179.768 406.349L179.28 406.027L178.783 405.652L178.286 405.19L177.824 404.668L177.379 404.075L176.882 403.405L176.123 402.273L175.356 401.114L174.641 399.903L173.944 398.693L173.281 397.43L172.636 396.149L172.017 394.843L171.45 393.51L170.883 392.125L170.334 390.74L169.322 387.857L168.45 384.887L167.631 381.804L167.439 381.063L167.291 380.349V379.679V379.043V378.407L167.439 377.841L167.639 377.318L167.91 376.848L168.232 376.43L168.633 376.055L169.078 375.715L169.593 375.445L170.185 375.219L170.831 375.071L171.52 374.975L172.287 374.923L203.677 374.801L204.549 374.871L205.316 375.019L206.013 375.297L206.633 375.637L207.173 376.081L207.618 376.578L207.984 377.118L208.281 377.736L208.481 378.407L208.586 379.069V379.809L208.49 380.532L208.289 381.29L207.993 382.03L207.574 382.771L207.06 383.494L185.601 405.112ZM221.072 423.752L220.898 424.518L220.706 425.189L220.453 425.781L220.156 426.321L219.816 426.765L219.415 427.157L218.971 427.479L218.482 427.749L217.933 427.95L217.366 428.072L216.747 428.15H216.102H215.387L214.646 428.028L213.878 427.88L212.518 427.628L211.158 427.331L209.806 426.992L208.446 426.617L207.086 426.225L205.656 425.729L204.296 425.258L202.909 424.718L201.549 424.152L200.189 423.551L197.486 422.219L194.713 420.764L191.975 419.161L191.304 418.769L190.711 418.343L190.196 417.898L189.743 417.454L189.377 416.966L189.089 416.47L188.862 415.973L188.714 415.46L188.644 414.911V414.371L188.74 413.805L188.915 413.256L189.159 412.69L189.481 412.124L189.909 411.557L190.423 410.991L212.475 388.693L213.111 388.153L213.756 387.727L214.445 387.431L215.117 387.239L215.805 387.161H216.503L217.139 387.282L217.785 387.535L218.378 387.849L218.944 388.249L219.468 388.763L219.912 389.338L220.305 390L220.627 390.74L220.845 391.559L220.993 392.43L221.142 422.915L221.072 423.752ZM221.15 350.918L220.976 351.684L220.706 352.372L220.357 352.991L219.912 353.531L219.415 353.975L218.875 354.35L218.256 354.646L217.584 354.846L216.895 354.942H216.119L215.43 354.89L214.663 354.689L213.922 354.393L213.181 353.975L212.466 353.453L190.885 331.878L190.388 331.242L189.961 330.597L189.638 329.979L189.394 329.36L189.255 328.759L189.176 328.193V327.653L189.255 327.105L189.429 326.564L189.673 326.042L189.97 325.554L190.362 325.058L190.807 324.587L191.33 324.117L191.923 323.673L192.586 323.229L193.728 322.462L194.888 321.704L196.065 320.99L197.277 320.302L198.532 319.631L199.823 319.022L201.157 318.403L202.491 317.811L203.912 317.245L205.29 316.722L208.185 315.738L211.175 314.823L214.262 314.031L215.012 313.83L215.727 313.708L216.39 313.656H217.035L217.654 313.735L218.194 313.883L218.718 314.083L219.206 314.353L219.633 314.675L219.999 315.067L220.322 315.511L220.592 316.034L220.819 316.626L220.985 317.262L221.089 317.959V318.725L221.159 350.082L221.15 350.918ZM229.198 319.466L229.329 318.647L229.495 317.907L229.695 317.219L229.966 316.626L230.288 316.104L230.637 315.659L231.029 315.268L231.474 314.971L231.971 314.701L232.512 314.527L233.079 314.405L233.698 314.327H234.43L235.119 314.405L235.86 314.501L236.627 314.675L237.988 314.945L239.348 315.268L240.682 315.607L242.042 316.008L243.402 316.426L244.763 316.896L246.123 317.41L247.483 317.959L248.835 318.551L250.125 319.178L251.485 319.84L252.872 320.537L255.592 322.035L258.33 323.69L259.001 324.091L259.594 324.509L260.091 324.979L260.536 325.423L260.902 325.911L261.199 326.408L261.425 326.93L261.574 327.47L261.617 327.993V328.533L261.513 329.099L261.338 329.639L261.068 330.214L260.728 330.78L260.301 331.32L259.786 331.886L237.395 353.836L236.749 354.384L236.078 354.776L235.389 355.073L234.7 355.273L234.003 355.325H233.314L232.669 355.177L232.032 354.951L231.439 354.602L230.864 354.184L230.376 353.67L229.931 353.078L229.53 352.407L229.233 351.667L229.015 350.857L228.893 349.986L229.198 319.466ZM260.981 414.249L260.902 414.815L260.737 415.338L260.51 415.852L260.187 416.348L259.821 416.836L259.35 417.332L258.827 417.803L258.234 418.247L257.571 418.691L256.429 419.484L255.269 420.215L254.084 420.929L252.872 421.644L251.616 422.332L250.326 422.976L249.018 423.621L247.684 424.213L246.323 424.779L244.937 425.346L242.068 426.356L239.104 427.297L236.017 428.168L235.276 428.359L234.561 428.507L233.889 428.56H233.227L232.634 428.507L232.058 428.359L231.544 428.168L231.073 427.915L230.628 427.593L230.253 427.201L229.913 426.73L229.643 426.234L229.416 425.642L229.242 425.006L229.146 424.309L229.094 423.543L228.675 392.186L228.728 391.315L228.902 390.549L229.146 389.861L229.495 389.242L229.913 388.702L230.402 388.232L230.977 387.857L231.596 387.561L232.233 387.37L232.93 387.265H233.645L234.386 387.37L235.128 387.544L235.895 387.84L236.636 388.232L237.377 388.746L259.176 410.007L259.716 410.634L260.144 411.279L260.484 411.888L260.737 412.507L260.902 413.099L260.981 413.665V414.249ZM281.794 380.149L281.742 380.863L281.646 381.603L281.471 382.37L281.227 383.729L280.931 385.079L280.582 386.438L280.207 387.796L279.771 389.112L279.3 390.47L278.812 391.829L278.289 393.188L277.696 394.547L277.155 395.932L276.484 397.282L275.821 398.667L274.339 401.41L272.708 404.145L272.307 404.816L271.889 405.408L271.444 405.931L270.999 406.375L270.502 406.741L270.014 407.037L269.491 407.263L268.976 407.411H268.427H267.886L267.346 407.316L266.77 407.141L266.204 406.898L265.663 406.549L265.096 406.131L264.521 405.608L242.278 383.511L241.737 382.866L241.336 382.196L241.022 381.534L240.848 380.846L240.769 380.149V379.487L240.917 378.816L241.144 378.198L241.458 377.579L241.885 377.039L242.373 376.517L242.966 376.073L243.638 375.681L244.379 375.384L245.19 375.167L246.062 375.019H276.58L277.399 375.114L278.167 375.289L278.829 375.48L279.422 375.759L279.945 376.055L280.416 376.395L280.809 376.796L281.131 377.24L281.375 377.728L281.576 378.276L281.698 378.842L281.776 379.461L281.794 380.149ZM282.387 363.434L282.308 364.053L282.186 364.593L281.968 365.115L281.715 365.612L281.375 366.03L280.974 366.396L280.53 366.718L280.015 366.988L279.422 367.214L278.777 367.389L278.088 367.484H277.321L245.931 367.537L245.059 367.458L244.292 367.284L243.603 367.014L242.984 366.666L242.469 366.248L241.998 365.751L241.624 365.185L241.353 364.567L241.153 363.905L241.031 363.208V362.494L241.135 361.753L241.327 361.013L241.624 360.273L242.042 359.506L242.565 358.792L264.146 337.287L264.808 336.799L265.454 336.372L266.073 336.058L266.692 335.806L267.285 335.658L267.852 335.588H268.436L268.985 335.684L269.5 335.832L270.023 336.076L270.511 336.398L271.008 336.773L271.479 337.243L271.95 337.757L272.394 338.349L272.839 339.02L273.606 340.152L274.374 341.337L275.089 342.521L275.777 343.758L276.449 345.012L277.068 346.302L277.678 347.608L278.28 348.941L278.847 350.326L279.361 351.71L279.884 353.139L280.355 354.594L281.227 357.581L282.012 360.673L282.212 361.414L282.334 362.128L282.387 362.79V363.434Z"/>
</mask>
<path fill-rule="evenodd" clip-rule="evenodd" d="M299.983 369.357L299.913 367.432L299.826 365.533L299.651 363.635L299.459 361.753L299.189 359.881L298.893 358.025L298.518 356.179L298.082 354.376L297.663 352.573L297.21 350.77L296.687 349.028L296.12 347.286L295.501 345.544L294.864 343.802L294.167 342.121L293.426 340.44L292.658 338.785L291.804 337.191L290.932 335.588L290.06 334.003L289.144 332.453L288.185 330.92L287.2 329.413L286.162 327.888L285.107 326.46L284.017 325.023L282.875 323.62L281.715 322.236L280.53 320.92L279.291 319.614L278.027 318.307L276.737 317.053L275.411 315.834L274.103 314.649L272.717 313.491L271.313 312.35L269.874 311.27L268.436 310.207L266.953 309.17L265.445 308.178L263.91 307.219L262.332 306.305L260.745 305.434L259.141 304.563L257.51 303.753L255.854 302.986L254.197 302.246L252.453 301.558L250.709 300.913L248.965 300.295L247.221 299.729L245.478 299.206L243.734 298.718L241.946 298.274L240.124 297.882L238.267 297.508L236.409 297.212L234.561 296.942L232.686 296.776L230.811 296.602L228.885 296.48L226.958 296.401H225.031H223.104L221.168 296.48L219.267 296.602L217.366 296.776L215.491 296.968L213.608 297.238L211.76 297.534L209.911 297.908L208.063 298.274L206.258 298.701L204.453 299.189L202.709 299.711L200.965 300.277L199.221 300.896L197.477 301.54L195.794 302.229L194.111 302.969L192.455 303.735L190.833 304.572L189.229 305.443L187.642 306.314L186.09 307.228L184.555 308.186L183.073 309.17L181.564 310.207L180.134 311.27L178.696 312.35L177.292 313.491L175.905 314.649L174.571 315.834L173.263 317.071L171.973 318.307L170.717 319.614L169.479 320.92L168.293 322.253L167.134 323.638L165.991 325.04L164.91 326.477L163.846 327.888L162.809 329.413L161.815 330.92L160.856 332.453L159.94 333.985L159.068 335.571L158.196 337.173L157.385 338.776L156.618 340.431L155.877 342.112L155.188 343.793L154.543 345.535L153.924 347.277L153.357 349.019L152.834 350.761L152.346 352.564L151.918 354.367L151.526 356.17L151.16 358.017L150.863 359.872L150.584 361.745L150.401 363.6L150.227 365.499L150.105 367.397L150.026 369.322V371.256L150.078 373.695L150.174 376.142L150.375 378.564L150.645 380.933L150.994 383.302L151.413 385.645L151.883 387.988L152.468 390.296L153.087 392.569L153.776 394.791L154.543 396.985L155.415 399.163L156.287 401.306L157.246 403.405L158.257 405.487L159.347 407.507L159.67 408.1L160.019 408.666L161.353 410.739L162.756 412.794L164.213 414.815L165.747 416.818L167.291 418.787L168.921 420.764L170.578 422.715L172.322 424.64L174.066 426.565L175.809 428.472L179.463 432.218L183.221 435.946L187.057 439.656L194.818 447.007L198.68 450.701L202.561 454.376L206.362 458.078L210.094 461.806L213.73 465.586L215.474 467.485L217.218 469.41L217.715 469.985L218.212 470.525L218.709 471.021L219.223 471.491L219.72 471.91L220.209 472.275L220.706 472.624L221.203 472.92L221.7 473.19L222.188 473.416L222.685 473.608L223.199 473.756L224.193 473.956L225.179 474.009L226.173 473.904L227.158 473.686L228.143 473.312L229.137 472.798L230.149 472.153L231.134 471.387L232.128 470.472L233.113 469.436L234.944 467.311L236.845 465.22L238.772 463.139L240.752 461.066L244.78 456.998L248.887 452.974L253.063 449.02L257.214 445.117L261.364 441.241L265.419 437.444L267.398 435.562L269.351 433.69L271.278 431.808L273.127 429.962L274.958 428.107L276.702 426.277L278.446 424.431L280.102 422.628L281.663 420.799L283.163 418.996L284.575 417.193L285.883 415.39L287.121 413.648L288.255 411.906L289.293 410.164L290.234 408.422L290.487 407.978L290.731 407.533L291.821 405.504L292.85 403.283L293.792 401.184L294.664 399.067L295.536 396.89L296.303 394.695L296.992 392.474L297.611 390.226L298.178 387.953L298.648 385.628L299.067 383.311L299.416 380.942L299.686 378.572L299.887 376.151L299.983 373.73L300.035 371.291L299.983 369.357ZM167.753 362.624V361.927L167.857 361.187L168.006 360.394L168.25 359.044L168.546 357.686L168.869 356.327L169.235 354.968L169.636 353.609L170.124 352.277L170.613 350.918L171.136 349.533L171.703 348.174L172.296 346.798L172.941 345.439L173.603 344.054L175.068 341.311L176.673 338.55L177.065 337.879L177.466 337.287L177.911 336.773L178.382 336.328L178.844 335.954L179.341 335.658L179.864 335.44L180.37 335.266L180.893 335.187H181.46L182 335.266L182.567 335.44L183.142 335.684L183.709 336.032L184.276 336.45L184.843 336.947L207.225 358.914L207.766 359.558L208.185 360.203L208.507 360.865L208.682 361.562L208.778 362.25V362.92L208.655 363.582L208.437 364.227L208.115 364.819L207.696 365.385L207.199 365.908L206.606 366.352L205.935 366.744L205.194 367.066L204.409 367.31L203.537 367.458L173.019 367.685L172.2 367.58L171.432 367.432L170.77 367.241L170.177 366.962L169.654 366.666L169.183 366.326L168.79 365.925L168.468 365.481L168.163 365.019L167.971 364.471L167.822 363.905L167.753 363.286V362.624ZM185.601 405.112L184.939 405.608L184.293 406.027L183.674 406.375L183.081 406.619L182.489 406.767L181.922 406.837H181.355L180.814 406.741L180.291 406.593L179.768 406.349L179.28 406.027L178.783 405.652L178.286 405.19L177.824 404.668L177.379 404.075L176.882 403.405L176.123 402.273L175.356 401.114L174.641 399.903L173.944 398.693L173.281 397.43L172.636 396.149L172.017 394.843L171.45 393.51L170.883 392.125L170.334 390.74L169.322 387.857L168.45 384.887L167.631 381.804L167.439 381.063L167.291 380.349V379.679V379.043V378.407L167.439 377.841L167.639 377.318L167.91 376.848L168.232 376.43L168.633 376.055L169.078 375.715L169.593 375.445L170.185 375.219L170.831 375.071L171.52 374.975L172.287 374.923L203.677 374.801L204.549 374.871L205.316 375.019L206.013 375.297L206.633 375.637L207.173 376.081L207.618 376.578L207.984 377.118L208.281 377.736L208.481 378.407L208.586 379.069V379.809L208.49 380.532L208.289 381.29L207.993 382.03L207.574 382.771L207.06 383.494L185.601 405.112ZM221.072 423.752L220.898 424.518L220.706 425.189L220.453 425.781L220.156 426.321L219.816 426.765L219.415 427.157L218.971 427.479L218.482 427.749L217.933 427.95L217.366 428.072L216.747 428.15H216.102H215.387L214.646 428.028L213.878 427.88L212.518 427.628L211.158 427.331L209.806 426.992L208.446 426.617L207.086 426.225L205.656 425.729L204.296 425.258L202.909 424.718L201.549 424.152L200.189 423.551L197.486 422.219L194.713 420.764L191.975 419.161L191.304 418.769L190.711 418.343L190.196 417.898L189.743 417.454L189.377 416.966L189.089 416.47L188.862 415.973L188.714 415.46L188.644 414.911V414.371L188.74 413.805L188.915 413.256L189.159 412.69L189.481 412.124L189.909 411.557L190.423 410.991L212.475 388.693L213.111 388.153L213.756 387.727L214.445 387.431L215.117 387.239L215.805 387.161H216.503L217.139 387.282L217.785 387.535L218.378 387.849L218.944 388.249L219.468 388.763L219.912 389.338L220.305 390L220.627 390.74L220.845 391.559L220.993 392.43L221.142 422.915L221.072 423.752ZM221.15 350.918L220.976 351.684L220.706 352.372L220.357 352.991L219.912 353.531L219.415 353.975L218.875 354.35L218.256 354.646L217.584 354.846L216.895 354.942H216.119L215.43 354.89L214.663 354.689L213.922 354.393L213.181 353.975L212.466 353.453L190.885 331.878L190.388 331.242L189.961 330.597L189.638 329.979L189.394 329.36L189.255 328.759L189.176 328.193V327.653L189.255 327.105L189.429 326.564L189.673 326.042L189.97 325.554L190.362 325.058L190.807 324.587L191.33 324.117L191.923 323.673L192.586 323.229L193.728 322.462L194.888 321.704L196.065 320.99L197.277 320.302L198.532 319.631L199.823 319.022L201.157 318.403L202.491 317.811L203.912 317.245L205.29 316.722L208.185 315.738L211.175 314.823L214.262 314.031L215.012 313.83L215.727 313.708L216.39 313.656H217.035L217.654 313.735L218.194 313.883L218.718 314.083L219.206 314.353L219.633 314.675L219.999 315.067L220.322 315.511L220.592 316.034L220.819 316.626L220.985 317.262L221.089 317.959V318.725L221.159 350.082L221.15 350.918ZM229.198 319.466L229.329 318.647L229.495 317.907L229.695 317.219L229.966 316.626L230.288 316.104L230.637 315.659L231.029 315.268L231.474 314.971L231.971 314.701L232.512 314.527L233.079 314.405L233.698 314.327H234.43L235.119 314.405L235.86 314.501L236.627 314.675L237.988 314.945L239.348 315.268L240.682 315.607L242.042 316.008L243.402 316.426L244.763 316.896L246.123 317.41L247.483 317.959L248.835 318.551L250.125 319.178L251.485 319.84L252.872 320.537L255.592 322.035L258.33 323.69L259.001 324.091L259.594 324.509L260.091 324.979L260.536 325.423L260.902 325.911L261.199 326.408L261.425 326.93L261.574 327.47L261.617 327.993V328.533L261.513 329.099L261.338 329.639L261.068 330.214L260.728 330.78L260.301 331.32L259.786 331.886L237.395 353.836L236.749 354.384L236.078 354.776L235.389 355.073L234.7 355.273L234.003 355.325H233.314L232.669 355.177L232.032 354.951L231.439 354.602L230.864 354.184L230.376 353.67L229.931 353.078L229.53 352.407L229.233 351.667L229.015 350.857L228.893 349.986L229.198 319.466ZM260.981 414.249L260.902 414.815L260.737 415.338L260.51 415.852L260.187 416.348L259.821 416.836L259.35 417.332L258.827 417.803L258.234 418.247L257.571 418.691L256.429 419.484L255.269 420.215L254.084 420.929L252.872 421.644L251.616 422.332L250.326 422.976L249.018 423.621L247.684 424.213L246.323 424.779L244.937 425.346L242.068 426.356L239.104 427.297L236.017 428.168L235.276 428.359L234.561 428.507L233.889 428.56H233.227L232.634 428.507L232.058 428.359L231.544 428.168L231.073 427.915L230.628 427.593L230.253 427.201L229.913 426.73L229.643 426.234L229.416 425.642L229.242 425.006L229.146 424.309L229.094 423.543L228.675 392.186L228.728 391.315L228.902 390.549L229.146 389.861L229.495 389.242L229.913 388.702L230.402 388.232L230.977 387.857L231.596 387.561L232.233 387.37L232.93 387.265H233.645L234.386 387.37L235.128 387.544L235.895 387.84L236.636 388.232L237.377 388.746L259.176 410.007L259.716 410.634L260.144 411.279L260.484 411.888L260.737 412.507L260.902 413.099L260.981 413.665V414.249ZM281.794 380.149L281.742 380.863L281.646 381.603L281.471 382.37L281.227 383.729L280.931 385.079L280.582 386.438L280.207 387.796L279.771 389.112L279.3 390.47L278.812 391.829L278.289 393.188L277.696 394.547L277.155 395.932L276.484 397.282L275.821 398.667L274.339 401.41L272.708 404.145L272.307 404.816L271.889 405.408L271.444 405.931L270.999 406.375L270.502 406.741L270.014 407.037L269.491 407.263L268.976 407.411H268.427H267.886L267.346 407.316L266.77 407.141L266.204 406.898L265.663 406.549L265.096 406.131L264.521 405.608L242.278 383.511L241.737 382.866L241.336 382.196L241.022 381.534L240.848 380.846L240.769 380.149V379.487L240.917 378.816L241.144 378.198L241.458 377.579L241.885 377.039L242.373 376.517L242.966 376.073L243.638 375.681L244.379 375.384L245.19 375.167L246.062 375.019H276.58L277.399 375.114L278.167 375.289L278.829 375.48L279.422 375.759L279.945 376.055L280.416 376.395L280.809 376.796L281.131 377.24L281.375 377.728L281.576 378.276L281.698 378.842L281.776 379.461L281.794 380.149ZM282.387 363.434L282.308 364.053L282.186 364.593L281.968 365.115L281.715 365.612L281.375 366.03L280.974 366.396L280.53 366.718L280.015 366.988L279.422 367.214L278.777 367.389L278.088 367.484H277.321L245.931 367.537L245.059 367.458L244.292 367.284L243.603 367.014L242.984 366.666L242.469 366.248L241.998 365.751L241.624 365.185L241.353 364.567L241.153 363.905L241.031 363.208V362.494L241.135 361.753L241.327 361.013L241.624 360.273L242.042 359.506L242.565 358.792L264.146 337.287L264.808 336.799L265.454 336.372L266.073 336.058L266.692 335.806L267.285 335.658L267.852 335.588H268.436L268.985 335.684L269.5 335.832L270.023 336.076L270.511 336.398L271.008 336.773L271.479 337.243L271.95 337.757L272.394 338.349L272.839 339.02L273.606 340.152L274.374 341.337L275.089 342.521L275.777 343.758L276.449 345.012L277.068 346.302L277.678 347.608L278.28 348.941L278.847 350.326L279.361 351.71L279.884 353.139L280.355 354.594L281.227 357.581L282.012 360.673L282.212 361.414L282.334 362.128L282.387 362.79V363.434Z" stroke="#E68E38" stroke-width="2" mask="url(#path-9-inside-1)"/>
<path fill-rule="evenodd" clip-rule="evenodd" d="M192.141 358.792L192.411 359.219L193.353 360.081L194.268 360.795L195.184 361.387L196.126 361.858L197.085 362.18L198.096 362.398L199.186 362.502H200.346L200.913 362.398L201.383 362.25L201.558 362.128L201.706 362.006L201.828 361.858L201.907 361.71L201.959 361.535V361.335L201.933 361.143L201.854 360.917L201.732 360.673L201.584 360.429L201.383 360.151L201.139 359.88L200.616 359.41L200.128 358.966L199.605 358.574L199.134 358.226L198.646 357.929L198.175 357.659L197.704 357.442L197.233 357.241L196.318 356.971L195.428 356.823L194.513 356.797L193.597 356.867L193.03 356.997L192.586 357.163L192.263 357.416L192.071 357.712L191.967 358.034L191.993 358.4L192.141 358.792Z" fill="#E68E38"/>
<path fill-rule="evenodd" clip-rule="evenodd" d="M257.414 357.485L257.118 357.241L256.752 357.067L256.255 356.971L254.973 357.015L253.813 357.137L252.75 357.363L251.756 357.686L250.84 358.13L249.951 358.67L249.114 359.367L248.294 360.177L247.954 360.647L247.753 361.091L247.684 361.318V361.509V361.684L247.753 361.858L247.832 362.006L247.98 362.154L248.128 362.276L248.346 362.38L248.59 362.45L248.896 362.52L249.209 362.572L249.584 362.598L250.299 362.572L250.971 362.546L251.581 362.476L252.183 362.38L252.723 362.25L253.264 362.102L253.735 361.954L254.206 361.762L255.043 361.318L255.81 360.769L256.481 360.151L257.074 359.436L257.397 358.966L257.563 358.522L257.641 358.13L257.589 357.781L257.414 357.485Z" fill="#E68E38"/>
<path d="M176.577 245.487L176.385 243.559L178.162 243.74L180.473 244.086L182.725 244.475L184.91 244.941L187.036 245.502L189.099 246.115L191.073 246.821L193.009 247.606L194.89 248.442L196.698 249.363L198.43 250.361L200.119 251.437L201.73 252.581L203.289 253.803L204.778 255.093L206.199 256.461L207.561 257.899L208.879 259.413L210.103 260.998L211.302 262.661L212.422 264.417L213.475 266.228L214.461 268.11L215.411 270.068L216.274 272.121L217.079 274.231L217.841 276.435L218.524 278.691L219.139 281.018L219.702 283.45L220.197 285.927L220.527 287.859L218.629 287.64L216.152 287.242L213.742 286.8L211.411 286.29L209.128 285.728L206.953 285.065L204.843 284.33L202.814 283.546L200.855 282.666L198.975 281.744L197.166 280.72L195.432 279.643L193.77 278.499L192.186 277.278L190.671 275.988L189.233 274.621L187.865 273.185L186.573 271.671L185.35 270.105L184.206 268.455L183.13 266.718L182.156 264.936L181.225 263.059L180.396 261.127L179.611 259.128L178.929 257.023L178.289 254.873L177.754 252.648L177.287 250.313L176.888 247.935L176.577 245.487Z" stroke="#E68E38"/>
<path d="M258.716 257.545L259.879 257.414L259.786 258.448L259.571 260.057L259.304 261.624L258.985 263.129L258.614 264.601L258.201 266.037L257.737 267.42L257.231 268.755L256.649 270.039L256.012 271.312L255.352 272.528L254.625 273.689L253.855 274.8L252.999 275.895L252.121 276.918L251.206 277.934L250.209 278.871L249.16 279.772L248.069 280.648L246.926 281.48L245.735 282.277L244.49 283.006L243.2 283.71L241.829 284.373L240.441 285.011L238.984 285.593L237.465 286.102L237.463 286.102L235.89 286.62L234.278 287.06L232.618 287.474L230.873 287.836L229.762 288.038L229.887 286.932L230.103 285.196L230.396 283.536L230.741 281.899L231.137 280.339L231.568 278.824L232.059 277.361L232.576 275.952L233.158 274.592L233.81 273.28L234.497 272.01L235.227 270.819L235.999 269.653L236.826 268.546L237.724 267.503L238.645 266.507L239.617 265.535L240.659 264.648L241.749 263.791L242.87 262.996L244.061 262.243L245.293 261.541L246.581 260.907L247.924 260.296L249.313 259.739L250.747 259.251L252.236 258.812L253.779 258.425L255.366 258.08L257.031 257.787L258.716 257.545Z" stroke="#E68E38"/>
<path fill-rule="evenodd" clip-rule="evenodd" d="M260.431 256.849L260.283 258.504L260.065 260.133L259.795 261.718L259.472 263.242L259.097 264.732L258.679 266.186L258.208 267.589L257.693 268.947L257.101 270.254L256.455 271.543L255.784 272.78L255.043 273.964L254.258 275.097L253.386 276.212L252.497 277.248L251.564 278.285L250.544 279.243L249.48 280.157L248.372 281.046L247.213 281.89L246.001 282.701L244.736 283.441L243.428 284.155L242.042 284.826L240.638 285.47L239.156 286.063L237.621 286.576L236.034 287.099L234.404 287.543L232.73 287.961L230.968 288.327L229.19 288.649L229.39 286.873L229.608 285.122L229.905 283.441L230.253 281.786L230.655 280.209L231.091 278.676L231.588 277.196L232.111 275.767L232.704 274.382L233.366 273.05L234.064 271.761L234.805 270.55L235.59 269.365L236.436 268.233L237.351 267.17L238.284 266.16L239.278 265.167L240.342 264.261L241.449 263.39L242.591 262.58L243.803 261.814L245.059 261.1L246.367 260.455L247.727 259.837L249.14 259.27L250.596 258.774L252.104 258.33L253.665 257.938L255.269 257.589L256.952 257.293L258.653 257.049L260.431 256.849Z" stroke="white" stroke-width="0.03" stroke-miterlimit="10"/>
</g>
<defs>
<clipPath id="clip0">
<rect width="150" height="231" fill="white" transform="translate(150 243)"/>
</clipPath>
</defs>
</svg>
