<svg width="450" height="586" viewBox="0 0 450 586" fill="none" xmlns="http://www.w3.org/2000/svg">
<path d="M229.339 1.19908L229.339 1.19915L438.702 70.1325C445.088 72.2346 449.501 78.7067 449.5 86.0952V338.85C449.5 371.599 437.422 405.152 413.552 438.585C395.319 464.12 370.085 489.776 338.54 514.838C285.543 556.941 233.354 582.771 231.17 583.843L231.39 584.292L231.17 583.843C229.205 584.81 227.102 585.291 225.001 585.291C222.899 585.291 220.797 584.809 218.832 583.843L218.612 584.292L218.832 583.843C216.648 582.771 164.458 556.941 111.461 514.838C79.9153 489.776 54.6813 464.12 36.4485 438.585C12.5782 405.151 0.5 371.598 0.5 338.85V86.0952C0.5 78.7067 4.91441 72.2346 11.3004 70.1325L220.665 1.19915L220.509 0.72423L220.665 1.19913C223.495 0.26694 226.512 0.266992 229.339 1.19908ZM224.768 550.107L225.002 550.231L225.236 550.107C240.588 541.983 281.188 519.37 321.227 487.498C343.555 469.723 368.044 447.173 386.955 421.774C405.862 396.38 419.227 368.092 419.227 338.85V98.8636V98.5019L418.883 98.3887L225.157 34.6039L225.001 34.5524L224.845 34.6039L31.118 98.3887L30.7743 98.5019V98.8636V338.85C30.7743 368.092 44.139 396.38 63.0467 421.774C81.9579 447.173 106.447 469.723 128.777 487.498C168.815 519.37 209.416 541.983 224.768 550.107Z" stroke="#E68E38"/>
<path d="M151.406 136.91C151.406 139.371 150.964 141.552 150.078 143.453C149.206 145.341 147.956 146.806 146.328 147.848C144.701 148.876 142.826 149.391 140.703 149.391C137.5 149.391 134.909 148.251 132.93 145.973C130.951 143.694 129.961 140.621 129.961 136.754V132.652C129.961 130.204 130.397 128.03 131.27 126.129C132.155 124.228 133.411 122.763 135.039 121.734C136.68 120.693 138.555 120.172 140.664 120.172C142.786 120.172 144.661 120.693 146.289 121.734C147.93 122.763 149.193 124.234 150.078 126.148C150.964 128.049 151.406 130.217 151.406 132.652V136.91ZM150.352 132.613C150.352 129.176 149.479 126.422 147.734 124.352C145.99 122.268 143.633 121.227 140.664 121.227C137.734 121.227 135.397 122.262 133.652 124.332C131.908 126.389 131.035 129.195 131.035 132.75V136.91C131.035 139.176 131.426 141.181 132.207 142.926C133.001 144.658 134.128 145.992 135.586 146.93C137.044 147.867 138.75 148.336 140.703 148.336C143.672 148.336 146.022 147.301 147.754 145.23C149.486 143.16 150.352 140.335 150.352 136.754V132.613ZM176.73 136.832H166.867V149H165.812V120.562H174.875C177.727 120.562 179.992 121.298 181.672 122.77C183.365 124.241 184.211 126.24 184.211 128.766C184.211 130.706 183.605 132.405 182.395 133.863C181.197 135.309 179.667 136.207 177.805 136.559L185.402 148.727V149H184.289L176.73 136.832ZM166.867 135.777H175.832C178.02 135.777 179.784 135.113 181.125 133.785C182.479 132.457 183.156 130.784 183.156 128.766C183.156 126.552 182.408 124.807 180.91 123.531C179.426 122.255 177.388 121.617 174.797 121.617H166.867V135.777ZM215.062 140.504H201.137L197.973 149H196.82L207.465 120.562H208.754L219.398 149H218.246L215.062 140.504ZM201.527 139.449H214.672L208.109 121.832L201.527 139.449ZM252.477 149H251.422L233.062 122.359V149H231.988V120.562H233.062L251.422 147.145V120.562H252.477V149ZM288.348 145.953C287.632 146.943 286.375 147.763 284.578 148.414C282.781 149.065 280.802 149.391 278.641 149.391C276.531 149.391 274.65 148.876 272.996 147.848C271.342 146.819 270.047 145.367 269.109 143.492C268.185 141.617 267.71 139.495 267.684 137.125V132.242C267.684 129.911 268.133 127.822 269.031 125.973C269.93 124.124 271.193 122.698 272.82 121.695C274.448 120.68 276.277 120.172 278.309 120.172C281.134 120.172 283.432 120.895 285.203 122.34C286.987 123.785 288.022 125.758 288.309 128.258H287.254C286.902 125.992 285.958 124.254 284.422 123.043C282.885 121.832 280.848 121.227 278.309 121.227C275.444 121.227 273.133 122.249 271.375 124.293C269.617 126.337 268.738 129.026 268.738 132.359V136.891C268.738 139.117 269.148 141.103 269.969 142.848C270.802 144.592 271.967 145.947 273.465 146.91C274.975 147.861 276.701 148.336 278.641 148.336C280.542 148.336 282.306 148.056 283.934 147.496C285.561 146.936 286.681 146.259 287.293 145.465V137.184H278.602V136.109H288.348V145.953ZM319.082 134.898H304.824V147.945H321.074V149H303.77V120.562H321.074V121.617H304.824V133.844H319.082V134.898ZM83.0234 180.504H69.0977L65.9336 189H64.7812L75.4258 160.562H76.7148L87.3594 189H86.207L83.0234 180.504ZM69.4883 179.449H82.6328L76.0703 161.832L69.4883 179.449ZM101.004 176.988V189H99.9492V160.562H108.836C111.74 160.562 113.992 161.298 115.594 162.77C117.208 164.228 118.016 166.259 118.016 168.863C118.016 171.441 117.228 173.434 115.652 174.84C114.09 176.246 111.863 176.962 108.973 176.988H101.004ZM101.004 175.934H108.836C111.401 175.934 113.393 175.315 114.812 174.078C116.245 172.841 116.961 171.116 116.961 168.902C116.961 166.611 116.245 164.827 114.812 163.551C113.393 162.262 111.401 161.617 108.836 161.617H101.004V175.934ZM144.258 180.504H130.332L127.168 189H126.016L136.66 160.562H137.949L148.594 189H147.441L144.258 180.504ZM130.723 179.449H143.867L137.305 161.832L130.723 179.449ZM172.004 176.832H162.141V189H161.086V160.562H170.148C173 160.562 175.266 161.298 176.945 162.77C178.638 164.241 179.484 166.24 179.484 168.766C179.484 170.706 178.879 172.405 177.668 173.863C176.47 175.309 174.94 176.207 173.078 176.559L180.676 188.727V189H179.562L172.004 176.832ZM162.141 175.777H171.105C173.293 175.777 175.057 175.113 176.398 173.785C177.753 172.457 178.43 170.784 178.43 168.766C178.43 166.552 177.681 164.807 176.184 163.531C174.699 162.255 172.661 161.617 170.07 161.617H162.141V175.777ZM212.719 161.617H202.367V189H201.312V161.617H190.961V160.562H212.719V161.617ZM227.203 160.562L238.902 187.457L250.641 160.562H252.184V189H251.129V162.125L239.332 189H238.492L226.754 162.262V189H225.699V160.562H227.203ZM283.309 174.898H269.051V187.945H285.301V189H267.996V160.562H285.301V161.617H269.051V173.844H283.309V174.898ZM319.258 189H318.203L299.844 162.359V189H298.77V160.562H299.844L318.203 187.145V160.562H319.258V189ZM353.43 161.617H343.078V189H342.023V161.617H331.672V160.562H353.43V161.617ZM383.129 182.184C383.129 180.973 382.842 179.951 382.27 179.117C381.71 178.271 380.818 177.529 379.594 176.891C378.383 176.24 376.547 175.576 374.086 174.898C371.625 174.221 369.776 173.538 368.539 172.848C367.315 172.158 366.417 171.357 365.844 170.445C365.271 169.534 364.984 168.427 364.984 167.125C364.984 165.055 365.857 163.382 367.602 162.105C369.346 160.816 371.618 160.172 374.418 160.172C376.241 160.172 377.875 160.53 379.32 161.246C380.779 161.949 381.905 162.945 382.699 164.234C383.493 165.51 383.891 166.956 383.891 168.57H382.836C382.836 166.448 382.055 164.697 380.492 163.316C378.93 161.923 376.905 161.227 374.418 161.227C371.918 161.227 369.893 161.786 368.344 162.906C366.807 164.013 366.039 165.406 366.039 167.086C366.039 168.792 366.71 170.165 368.051 171.207C369.392 172.249 371.605 173.173 374.691 173.98C377.777 174.775 380.036 175.699 381.469 176.754C383.292 178.095 384.203 179.892 384.203 182.145C384.203 183.577 383.799 184.846 382.992 185.953C382.185 187.047 381.039 187.893 379.555 188.492C378.07 189.091 376.404 189.391 374.555 189.391C372.497 189.391 370.648 189.052 369.008 188.375C367.367 187.685 366.13 186.708 365.297 185.445C364.477 184.182 364.066 182.691 364.066 180.973H365.121C365.121 183.303 365.993 185.113 367.738 186.402C369.483 187.691 371.755 188.336 374.555 188.336C377.042 188.336 379.092 187.77 380.707 186.637C382.322 185.491 383.129 184.007 383.129 182.184Z" fill="#E68E38"/>
<g clip-path="url(#clip0)">
<path fill-rule="evenodd" clip-rule="evenodd" d="M215.771 394.547L215.675 394.346L215.526 394.198L215.396 394.102L215.23 394.007L215.056 393.98L214.855 393.954L214.663 394.007L214.436 394.076L214.192 394.198L213.939 394.346L213.669 394.547L213.399 394.791L212.928 395.313L212.483 395.81L212.091 396.297L211.742 396.794L211.446 397.264L211.175 397.735L210.949 398.205L210.757 398.666L210.478 399.564L210.33 400.469L210.312 401.384L210.382 402.299L210.504 402.865L210.678 403.309L210.923 403.631L211.202 403.832L211.524 403.927L211.89 403.901L212.283 403.753L212.71 403.483L213.573 402.551L214.288 401.637L214.881 400.722L215.352 399.781L215.692 398.815L215.919 397.804L216.041 396.742V395.583L215.945 394.991L215.771 394.547Z" fill="#E68E38"/>
<path fill-rule="evenodd" clip-rule="evenodd" d="M239.2 399.956L238.955 398.893L238.633 397.926L238.162 396.994L237.621 396.132L236.924 395.287L236.087 394.477L235.616 394.129L235.171 393.928L234.953 393.876H234.753L234.578 393.902L234.404 393.954L234.256 394.05L234.107 394.172L233.985 394.346L233.889 394.573L233.811 394.817L233.741 395.113L233.689 395.435L233.663 395.81L233.689 396.524L233.741 397.186L233.811 397.804L233.942 398.397L234.064 398.945L234.212 399.459L234.386 399.956L234.578 400.426L235.023 401.236L235.59 401.976L236.209 402.647L236.924 403.239L237.395 403.535L237.839 403.727L238.24 403.779L238.58 403.727L238.877 403.562L239.13 403.265L239.304 402.891L239.4 402.394L239.348 401.114L239.2 399.956Z" fill="#E68E38"/>
<path fill-rule="evenodd" clip-rule="evenodd" d="M234.134 347.93L234.238 348.131L234.36 348.279L234.509 348.401L234.657 348.479L234.822 348.523H235.023L235.25 348.496L235.468 348.427L235.694 348.331L235.965 348.157L236.209 347.983L236.505 347.739L237.002 347.216L237.447 346.72L237.839 346.232L238.214 345.761L238.537 345.291L238.807 344.821L239.025 344.35L239.226 343.88L239.522 342.992L239.67 342.077L239.723 341.163L239.67 340.257L239.574 339.708L239.4 339.264L239.156 338.924L238.877 338.724L238.537 338.628L238.162 338.645L237.77 338.776L237.351 339.046L236.462 339.961L235.721 340.866L235.128 341.764L234.631 342.696L234.282 343.636L234.038 344.647L233.916 345.735L233.889 346.894L233.959 347.486L234.134 347.93Z" fill="#E68E38"/>
<path fill-rule="evenodd" clip-rule="evenodd" d="M216.145 345.047L216.067 344.429L215.971 343.837L215.849 343.288L215.718 342.748L215.544 342.277L215.352 341.807L214.907 340.971L214.384 340.204L213.765 339.534L213.076 338.942L212.579 338.628L212.161 338.454L211.742 338.375L211.393 338.428L211.097 338.602L210.879 338.898L210.678 339.264L210.582 339.76L210.626 341.041L210.757 342.208L210.975 343.262L211.297 344.255L211.742 345.169L212.283 346.058L212.954 346.894L213.765 347.713L214.236 348.052L214.681 348.253L214.907 348.331H215.108H215.274L215.448 348.253L215.596 348.183L215.744 348.035L215.866 347.887L215.971 347.66L216.041 347.416L216.119 347.12L216.163 346.798L216.189 346.423L216.163 345.709L216.145 345.047Z" fill="#E68E38"/>
<path fill-rule="evenodd" clip-rule="evenodd" d="M257.345 383.755L257.074 383.337L256.133 382.474L255.217 381.734L254.328 381.142L253.386 380.671L252.427 380.323L251.415 380.105L250.352 379.983H249.183L248.59 380.079L248.146 380.227L247.954 380.349L247.806 380.471L247.701 380.619L247.605 380.767L247.553 380.942V381.142L247.579 381.333L247.657 381.56L247.779 381.804L247.928 382.056L248.128 382.326L248.372 382.596L248.896 383.093L249.384 383.511L249.881 383.903L250.369 384.251L250.84 384.574L251.311 384.844L251.782 385.061L252.253 385.262L253.142 385.532L254.057 385.68L254.973 385.732L255.889 385.662L256.429 385.532L256.874 385.358L257.196 385.114L257.414 384.844L257.519 384.521L257.493 384.156L257.345 383.755Z" fill="#E68E38"/>
<path fill-rule="evenodd" clip-rule="evenodd" d="M201.907 380.523L201.802 380.375L201.654 380.227L201.506 380.105L201.288 380.001L201.043 379.931L200.747 379.853L200.424 379.809L200.049 379.783L199.334 379.809L198.663 379.853L198.053 379.905L197.46 380.001L196.91 380.131L196.396 380.28L195.899 380.454L195.428 380.619L194.591 381.063L193.85 381.612L193.179 382.222L192.586 382.919L192.263 383.415L192.089 383.859L192.019 384.251L192.071 384.6L192.237 384.896L192.533 385.14L192.908 385.314L193.405 385.41L194.687 385.358L195.847 385.236L196.91 384.992L197.904 384.669L198.811 384.251L199.683 383.685L200.546 383.015L201.357 382.205L201.706 381.734L201.907 381.29L201.976 380.872L201.959 380.698L201.907 380.523Z" fill="#E68E38"/>
<mask id="path-9-inside-1" fill="white">
<path fill-rule="evenodd" clip-rule="evenodd" d="M299.983 369.357L299.913 367.432L299.826 365.533L299.651 363.635L299.459 361.753L299.189 359.881L298.893 358.025L298.518 356.179L298.082 354.376L297.663 352.573L297.21 350.77L296.687 349.028L296.12 347.286L295.501 345.544L294.864 343.802L294.167 342.121L293.426 340.44L292.658 338.785L291.804 337.191L290.932 335.588L290.06 334.003L289.144 332.453L288.185 330.92L287.2 329.413L286.162 327.888L285.107 326.46L284.017 325.023L282.875 323.62L281.715 322.236L280.53 320.92L279.291 319.614L278.027 318.307L276.737 317.053L275.411 315.834L274.103 314.649L272.717 313.491L271.313 312.35L269.874 311.27L268.436 310.207L266.953 309.17L265.445 308.178L263.91 307.219L262.332 306.305L260.745 305.434L259.141 304.563L257.51 303.753L255.854 302.986L254.197 302.246L252.453 301.558L250.709 300.913L248.965 300.295L247.221 299.729L245.478 299.206L243.734 298.718L241.946 298.274L240.124 297.882L238.267 297.508L236.409 297.212L234.561 296.942L232.686 296.776L230.811 296.602L228.885 296.48L226.958 296.401H225.031H223.104L221.168 296.48L219.267 296.602L217.366 296.776L215.491 296.968L213.608 297.238L211.76 297.534L209.911 297.908L208.063 298.274L206.258 298.701L204.453 299.189L202.709 299.711L200.965 300.277L199.221 300.896L197.477 301.54L195.794 302.229L194.111 302.969L192.455 303.735L190.833 304.572L189.229 305.443L187.642 306.314L186.09 307.228L184.555 308.186L183.073 309.17L181.564 310.207L180.134 311.27L178.696 312.35L177.292 313.491L175.905 314.649L174.571 315.834L173.263 317.071L171.973 318.307L170.717 319.614L169.479 320.92L168.293 322.253L167.134 323.638L165.991 325.04L164.91 326.477L163.846 327.888L162.809 329.413L161.815 330.92L160.856 332.453L159.94 333.985L159.068 335.571L158.196 337.173L157.385 338.776L156.618 340.431L155.877 342.112L155.188 343.793L154.543 345.535L153.924 347.277L153.357 349.019L152.834 350.761L152.346 352.564L151.918 354.367L151.526 356.17L151.16 358.017L150.863 359.872L150.584 361.745L150.401 363.6L150.227 365.499L150.105 367.397L150.026 369.322V371.256L150.078 373.695L150.174 376.142L150.375 378.564L150.645 380.933L150.994 383.302L151.413 385.645L151.883 387.988L152.468 390.296L153.087 392.569L153.776 394.791L154.543 396.985L155.415 399.163L156.287 401.306L157.246 403.405L158.257 405.487L159.347 407.507L159.67 408.1L160.019 408.666L161.353 410.739L162.756 412.794L164.213 414.815L165.747 416.818L167.291 418.787L168.921 420.764L170.578 422.715L172.322 424.64L174.066 426.565L175.809 428.472L179.463 432.218L183.221 435.946L187.057 439.656L194.818 447.007L198.68 450.701L202.561 454.376L206.362 458.078L210.094 461.806L213.73 465.586L215.474 467.485L217.218 469.41L217.715 469.985L218.212 470.525L218.709 471.021L219.223 471.491L219.72 471.91L220.209 472.275L220.706 472.624L221.203 472.92L221.7 473.19L222.188 473.416L222.685 473.608L223.199 473.756L224.193 473.956L225.179 474.009L226.173 473.904L227.158 473.686L228.143 473.312L229.137 472.798L230.149 472.153L231.134 471.387L232.128 470.472L233.113 469.436L234.944 467.311L236.845 465.22L238.772 463.139L240.752 461.066L244.78 456.998L248.887 452.974L253.063 449.02L257.214 445.117L261.364 441.241L265.419 437.444L267.398 435.562L269.351 433.69L271.278 431.808L273.127 429.962L274.958 428.107L276.702 426.277L278.446 424.431L280.102 422.628L281.663 420.799L283.163 418.996L284.575 417.193L285.883 415.39L287.121 413.648L288.255 411.906L289.293 410.164L290.234 408.422L290.487 407.978L290.731 407.533L291.821 405.504L292.85 403.283L293.792 401.184L294.664 399.067L295.536 396.89L296.303 394.695L296.992 392.474L297.611 390.226L298.178 387.953L298.648 385.628L299.067 383.311L299.416 380.942L299.686 378.572L299.887 376.151L299.983 373.73L300.035 371.291L299.983 369.357ZM167.753 362.624V361.927L167.857 361.187L168.006 360.394L168.25 359.044L168.546 357.686L168.869 356.327L169.235 354.968L169.636 353.609L170.124 352.277L170.613 350.918L171.136 349.533L171.703 348.174L172.296 346.798L172.941 345.439L173.603 344.054L175.068 341.311L176.673 338.55L177.065 337.879L177.466 337.287L177.911 336.773L178.382 336.328L178.844 335.954L179.341 335.658L179.864 335.44L180.37 335.266L180.893 335.187H181.46L182 335.266L182.567 335.44L183.142 335.684L183.709 336.032L184.276 336.45L184.843 336.947L207.225 358.914L207.766 359.558L208.185 360.203L208.507 360.865L208.682 361.562L208.778 362.25V362.92L208.655 363.582L208.437 364.227L208.115 364.819L207.696 365.385L207.199 365.908L206.606 366.352L205.935 366.744L205.194 367.066L204.409 367.31L203.537 367.458L173.019 367.685L172.2 367.58L171.432 367.432L170.77 367.241L170.177 366.962L169.654 366.666L169.183 366.326L168.79 365.925L168.468 365.481L168.163 365.019L167.971 364.471L167.822 363.905L167.753 363.286V362.624ZM185.601 405.112L184.939 405.608L184.293 406.027L183.674 406.375L183.081 406.619L182.489 406.767L181.922 406.837H181.355L180.814 406.741L180.291 406.593L179.768 406.349L179.28 406.027L178.783 405.652L178.286 405.19L177.824 404.668L177.379 404.075L176.882 403.405L176.123 402.273L175.356 401.114L174.641 399.903L173.944 398.693L173.281 397.43L172.636 396.149L172.017 394.843L171.45 393.51L170.883 392.125L170.334 390.74L169.322 387.857L168.45 384.887L167.631 381.804L167.439 381.063L167.291 380.349V379.679V379.043V378.407L167.439 377.841L167.639 377.318L167.91 376.848L168.232 376.43L168.633 376.055L169.078 375.715L169.593 375.445L170.185 375.219L170.831 375.071L171.52 374.975L172.287 374.923L203.677 374.801L204.549 374.871L205.316 375.019L206.013 375.297L206.633 375.637L207.173 376.081L207.618 376.578L207.984 377.118L208.281 377.736L208.481 378.407L208.586 379.069V379.809L208.49 380.532L208.289 381.29L207.993 382.03L207.574 382.771L207.06 383.494L185.601 405.112ZM221.072 423.752L220.898 424.518L220.706 425.189L220.453 425.781L220.156 426.321L219.816 426.765L219.415 427.157L218.971 427.479L218.482 427.749L217.933 427.95L217.366 428.072L216.747 428.15H216.102H215.387L214.646 428.028L213.878 427.88L212.518 427.628L211.158 427.331L209.806 426.992L208.446 426.617L207.086 426.225L205.656 425.729L204.296 425.258L202.909 424.718L201.549 424.152L200.189 423.551L197.486 422.219L194.713 420.764L191.975 419.161L191.304 418.769L190.711 418.343L190.196 417.898L189.743 417.454L189.377 416.966L189.089 416.47L188.862 415.973L188.714 415.46L188.644 414.911V414.371L188.74 413.805L188.915 413.256L189.159 412.69L189.481 412.124L189.909 411.557L190.423 410.991L212.475 388.693L213.111 388.153L213.756 387.727L214.445 387.431L215.117 387.239L215.805 387.161H216.503L217.139 387.282L217.785 387.535L218.378 387.849L218.944 388.249L219.468 388.763L219.912 389.338L220.305 390L220.627 390.74L220.845 391.559L220.993 392.43L221.142 422.915L221.072 423.752ZM221.15 350.918L220.976 351.684L220.706 352.372L220.357 352.991L219.912 353.531L219.415 353.975L218.875 354.35L218.256 354.646L217.584 354.846L216.895 354.942H216.119L215.43 354.89L214.663 354.689L213.922 354.393L213.181 353.975L212.466 353.453L190.885 331.878L190.388 331.242L189.961 330.597L189.638 329.979L189.394 329.36L189.255 328.759L189.176 328.193V327.653L189.255 327.105L189.429 326.564L189.673 326.042L189.97 325.554L190.362 325.058L190.807 324.587L191.33 324.117L191.923 323.673L192.586 323.229L193.728 322.462L194.888 321.704L196.065 320.99L197.277 320.302L198.532 319.631L199.823 319.022L201.157 318.403L202.491 317.811L203.912 317.245L205.29 316.722L208.185 315.738L211.175 314.823L214.262 314.031L215.012 313.83L215.727 313.708L216.39 313.656H217.035L217.654 313.735L218.194 313.883L218.718 314.083L219.206 314.353L219.633 314.675L219.999 315.067L220.322 315.511L220.592 316.034L220.819 316.626L220.985 317.262L221.089 317.959V318.725L221.159 350.082L221.15 350.918ZM229.198 319.466L229.329 318.647L229.495 317.907L229.695 317.219L229.966 316.626L230.288 316.104L230.637 315.659L231.029 315.268L231.474 314.971L231.971 314.701L232.512 314.527L233.079 314.405L233.698 314.327H234.43L235.119 314.405L235.86 314.501L236.627 314.675L237.988 314.945L239.348 315.268L240.682 315.607L242.042 316.008L243.402 316.426L244.763 316.896L246.123 317.41L247.483 317.959L248.835 318.551L250.125 319.178L251.485 319.84L252.872 320.537L255.592 322.035L258.33 323.69L259.001 324.091L259.594 324.509L260.091 324.979L260.536 325.423L260.902 325.911L261.199 326.408L261.425 326.93L261.574 327.47L261.617 327.993V328.533L261.513 329.099L261.338 329.639L261.068 330.214L260.728 330.78L260.301 331.32L259.786 331.886L237.395 353.836L236.749 354.384L236.078 354.776L235.389 355.073L234.7 355.273L234.003 355.325H233.314L232.669 355.177L232.032 354.951L231.439 354.602L230.864 354.184L230.376 353.67L229.931 353.078L229.53 352.407L229.233 351.667L229.015 350.857L228.893 349.986L229.198 319.466ZM260.981 414.249L260.902 414.815L260.737 415.338L260.51 415.852L260.187 416.348L259.821 416.836L259.35 417.332L258.827 417.803L258.234 418.247L257.571 418.691L256.429 419.484L255.269 420.215L254.084 420.929L252.872 421.644L251.616 422.332L250.326 422.976L249.018 423.621L247.684 424.213L246.323 424.779L244.937 425.346L242.068 426.356L239.104 427.297L236.017 428.168L235.276 428.359L234.561 428.507L233.889 428.56H233.227L232.634 428.507L232.058 428.359L231.544 428.168L231.073 427.915L230.628 427.593L230.253 427.201L229.913 426.73L229.643 426.234L229.416 425.642L229.242 425.006L229.146 424.309L229.094 423.543L228.675 392.186L228.728 391.315L228.902 390.549L229.146 389.861L229.495 389.242L229.913 388.702L230.402 388.232L230.977 387.857L231.596 387.561L232.233 387.37L232.93 387.265H233.645L234.386 387.37L235.128 387.544L235.895 387.84L236.636 388.232L237.377 388.746L259.176 410.007L259.716 410.634L260.144 411.279L260.484 411.888L260.737 412.507L260.902 413.099L260.981 413.665V414.249ZM281.794 380.149L281.742 380.863L281.646 381.603L281.471 382.37L281.227 383.729L280.931 385.079L280.582 386.438L280.207 387.796L279.771 389.112L279.3 390.47L278.812 391.829L278.289 393.188L277.696 394.547L277.155 395.932L276.484 397.282L275.821 398.667L274.339 401.41L272.708 404.145L272.307 404.816L271.889 405.408L271.444 405.931L270.999 406.375L270.502 406.741L270.014 407.037L269.491 407.263L268.976 407.411H268.427H267.886L267.346 407.316L266.77 407.141L266.204 406.898L265.663 406.549L265.096 406.131L264.521 405.608L242.278 383.511L241.737 382.866L241.336 382.196L241.022 381.534L240.848 380.846L240.769 380.149V379.487L240.917 378.816L241.144 378.198L241.458 377.579L241.885 377.039L242.373 376.517L242.966 376.073L243.638 375.681L244.379 375.384L245.19 375.167L246.062 375.019H276.58L277.399 375.114L278.167 375.289L278.829 375.48L279.422 375.759L279.945 376.055L280.416 376.395L280.809 376.796L281.131 377.24L281.375 377.728L281.576 378.276L281.698 378.842L281.776 379.461L281.794 380.149ZM282.387 363.434L282.308 364.053L282.186 364.593L281.968 365.115L281.715 365.612L281.375 366.03L280.974 366.396L280.53 366.718L280.015 366.988L279.422 367.214L278.777 367.389L278.088 367.484H277.321L245.931 367.537L245.059 367.458L244.292 367.284L243.603 367.014L242.984 366.666L242.469 366.248L241.998 365.751L241.624 365.185L241.353 364.567L241.153 363.905L241.031 363.208V362.494L241.135 361.753L241.327 361.013L241.624 360.273L242.042 359.506L242.565 358.792L264.146 337.287L264.808 336.799L265.454 336.372L266.073 336.058L266.692 335.806L267.285 335.658L267.852 335.588H268.436L268.985 335.684L269.5 335.832L270.023 336.076L270.511 336.398L271.008 336.773L271.479 337.243L271.95 337.757L272.394 338.349L272.839 339.02L273.606 340.152L274.374 341.337L275.089 342.521L275.777 343.758L276.449 345.012L277.068 346.302L277.678 347.608L278.28 348.941L278.847 350.326L279.361 351.71L279.884 353.139L280.355 354.594L281.227 357.581L282.012 360.673L282.212 361.414L282.334 362.128L282.387 362.79V363.434Z"/>
</mask>
<path fill-rule="evenodd" clip-rule="evenodd" d="M299.983 369.357L299.913 367.432L299.826 365.533L299.651 363.635L299.459 361.753L299.189 359.881L298.893 358.025L298.518 356.179L298.082 354.376L297.663 352.573L297.21 350.77L296.687 349.028L296.12 347.286L295.501 345.544L294.864 343.802L294.167 342.121L293.426 340.44L292.658 338.785L291.804 337.191L290.932 335.588L290.06 334.003L289.144 332.453L288.185 330.92L287.2 329.413L286.162 327.888L285.107 326.46L284.017 325.023L282.875 323.62L281.715 322.236L280.53 320.92L279.291 319.614L278.027 318.307L276.737 317.053L275.411 315.834L274.103 314.649L272.717 313.491L271.313 312.35L269.874 311.27L268.436 310.207L266.953 309.17L265.445 308.178L263.91 307.219L262.332 306.305L260.745 305.434L259.141 304.563L257.51 303.753L255.854 302.986L254.197 302.246L252.453 301.558L250.709 300.913L248.965 300.295L247.221 299.729L245.478 299.206L243.734 298.718L241.946 298.274L240.124 297.882L238.267 297.508L236.409 297.212L234.561 296.942L232.686 296.776L230.811 296.602L228.885 296.48L226.958 296.401H225.031H223.104L221.168 296.48L219.267 296.602L217.366 296.776L215.491 296.968L213.608 297.238L211.76 297.534L209.911 297.908L208.063 298.274L206.258 298.701L204.453 299.189L202.709 299.711L200.965 300.277L199.221 300.896L197.477 301.54L195.794 302.229L194.111 302.969L192.455 303.735L190.833 304.572L189.229 305.443L187.642 306.314L186.09 307.228L184.555 308.186L183.073 309.17L181.564 310.207L180.134 311.27L178.696 312.35L177.292 313.491L175.905 314.649L174.571 315.834L173.263 317.071L171.973 318.307L170.717 319.614L169.479 320.92L168.293 322.253L167.134 323.638L165.991 325.04L164.91 326.477L163.846 327.888L162.809 329.413L161.815 330.92L160.856 332.453L159.94 333.985L159.068 335.571L158.196 337.173L157.385 338.776L156.618 340.431L155.877 342.112L155.188 343.793L154.543 345.535L153.924 347.277L153.357 349.019L152.834 350.761L152.346 352.564L151.918 354.367L151.526 356.17L151.16 358.017L150.863 359.872L150.584 361.745L150.401 363.6L150.227 365.499L150.105 367.397L150.026 369.322V371.256L150.078 373.695L150.174 376.142L150.375 378.564L150.645 380.933L150.994 383.302L151.413 385.645L151.883 387.988L152.468 390.296L153.087 392.569L153.776 394.791L154.543 396.985L155.415 399.163L156.287 401.306L157.246 403.405L158.257 405.487L159.347 407.507L159.67 408.1L160.019 408.666L161.353 410.739L162.756 412.794L164.213 414.815L165.747 416.818L167.291 418.787L168.921 420.764L170.578 422.715L172.322 424.64L174.066 426.565L175.809 428.472L179.463 432.218L183.221 435.946L187.057 439.656L194.818 447.007L198.68 450.701L202.561 454.376L206.362 458.078L210.094 461.806L213.73 465.586L215.474 467.485L217.218 469.41L217.715 469.985L218.212 470.525L218.709 471.021L219.223 471.491L219.72 471.91L220.209 472.275L220.706 472.624L221.203 472.92L221.7 473.19L222.188 473.416L222.685 473.608L223.199 473.756L224.193 473.956L225.179 474.009L226.173 473.904L227.158 473.686L228.143 473.312L229.137 472.798L230.149 472.153L231.134 471.387L232.128 470.472L233.113 469.436L234.944 467.311L236.845 465.22L238.772 463.139L240.752 461.066L244.78 456.998L248.887 452.974L253.063 449.02L257.214 445.117L261.364 441.241L265.419 437.444L267.398 435.562L269.351 433.69L271.278 431.808L273.127 429.962L274.958 428.107L276.702 426.277L278.446 424.431L280.102 422.628L281.663 420.799L283.163 418.996L284.575 417.193L285.883 415.39L287.121 413.648L288.255 411.906L289.293 410.164L290.234 408.422L290.487 407.978L290.731 407.533L291.821 405.504L292.85 403.283L293.792 401.184L294.664 399.067L295.536 396.89L296.303 394.695L296.992 392.474L297.611 390.226L298.178 387.953L298.648 385.628L299.067 383.311L299.416 380.942L299.686 378.572L299.887 376.151L299.983 373.73L300.035 371.291L299.983 369.357ZM167.753 362.624V361.927L167.857 361.187L168.006 360.394L168.25 359.044L168.546 357.686L168.869 356.327L169.235 354.968L169.636 353.609L170.124 352.277L170.613 350.918L171.136 349.533L171.703 348.174L172.296 346.798L172.941 345.439L173.603 344.054L175.068 341.311L176.673 338.55L177.065 337.879L177.466 337.287L177.911 336.773L178.382 336.328L178.844 335.954L179.341 335.658L179.864 335.44L180.37 335.266L180.893 335.187H181.46L182 335.266L182.567 335.44L183.142 335.684L183.709 336.032L184.276 336.45L184.843 336.947L207.225 358.914L207.766 359.558L208.185 360.203L208.507 360.865L208.682 361.562L208.778 362.25V362.92L208.655 363.582L208.437 364.227L208.115 364.819L207.696 365.385L207.199 365.908L206.606 366.352L205.935 366.744L205.194 367.066L204.409 367.31L203.537 367.458L173.019 367.685L172.2 367.58L171.432 367.432L170.77 367.241L170.177 366.962L169.654 366.666L169.183 366.326L168.79 365.925L168.468 365.481L168.163 365.019L167.971 364.471L167.822 363.905L167.753 363.286V362.624ZM185.601 405.112L184.939 405.608L184.293 406.027L183.674 406.375L183.081 406.619L182.489 406.767L181.922 406.837H181.355L180.814 406.741L180.291 406.593L179.768 406.349L179.28 406.027L178.783 405.652L178.286 405.19L177.824 404.668L177.379 404.075L176.882 403.405L176.123 402.273L175.356 401.114L174.641 399.903L173.944 398.693L173.281 397.43L172.636 396.149L172.017 394.843L171.45 393.51L170.883 392.125L170.334 390.74L169.322 387.857L168.45 384.887L167.631 381.804L167.439 381.063L167.291 380.349V379.679V379.043V378.407L167.439 377.841L167.639 377.318L167.91 376.848L168.232 376.43L168.633 376.055L169.078 375.715L169.593 375.445L170.185 375.219L170.831 375.071L171.52 374.975L172.287 374.923L203.677 374.801L204.549 374.871L205.316 375.019L206.013 375.297L206.633 375.637L207.173 376.081L207.618 376.578L207.984 377.118L208.281 377.736L208.481 378.407L208.586 379.069V379.809L208.49 380.532L208.289 381.29L207.993 382.03L207.574 382.771L207.06 383.494L185.601 405.112ZM221.072 423.752L220.898 424.518L220.706 425.189L220.453 425.781L220.156 426.321L219.816 426.765L219.415 427.157L218.971 427.479L218.482 427.749L217.933 427.95L217.366 428.072L216.747 428.15H216.102H215.387L214.646 428.028L213.878 427.88L212.518 427.628L211.158 427.331L209.806 426.992L208.446 426.617L207.086 426.225L205.656 425.729L204.296 425.258L202.909 424.718L201.549 424.152L200.189 423.551L197.486 422.219L194.713 420.764L191.975 419.161L191.304 418.769L190.711 418.343L190.196 417.898L189.743 417.454L189.377 416.966L189.089 416.47L188.862 415.973L188.714 415.46L188.644 414.911V414.371L188.74 413.805L188.915 413.256L189.159 412.69L189.481 412.124L189.909 411.557L190.423 410.991L212.475 388.693L213.111 388.153L213.756 387.727L214.445 387.431L215.117 387.239L215.805 387.161H216.503L217.139 387.282L217.785 387.535L218.378 387.849L218.944 388.249L219.468 388.763L219.912 389.338L220.305 390L220.627 390.74L220.845 391.559L220.993 392.43L221.142 422.915L221.072 423.752ZM221.15 350.918L220.976 351.684L220.706 352.372L220.357 352.991L219.912 353.531L219.415 353.975L218.875 354.35L218.256 354.646L217.584 354.846L216.895 354.942H216.119L215.43 354.89L214.663 354.689L213.922 354.393L213.181 353.975L212.466 353.453L190.885 331.878L190.388 331.242L189.961 330.597L189.638 329.979L189.394 329.36L189.255 328.759L189.176 328.193V327.653L189.255 327.105L189.429 326.564L189.673 326.042L189.97 325.554L190.362 325.058L190.807 324.587L191.33 324.117L191.923 323.673L192.586 323.229L193.728 322.462L194.888 321.704L196.065 320.99L197.277 320.302L198.532 319.631L199.823 319.022L201.157 318.403L202.491 317.811L203.912 317.245L205.29 316.722L208.185 315.738L211.175 314.823L214.262 314.031L215.012 313.83L215.727 313.708L216.39 313.656H217.035L217.654 313.735L218.194 313.883L218.718 314.083L219.206 314.353L219.633 314.675L219.999 315.067L220.322 315.511L220.592 316.034L220.819 316.626L220.985 317.262L221.089 317.959V318.725L221.159 350.082L221.15 350.918ZM229.198 319.466L229.329 318.647L229.495 317.907L229.695 317.219L229.966 316.626L230.288 316.104L230.637 315.659L231.029 315.268L231.474 314.971L231.971 314.701L232.512 314.527L233.079 314.405L233.698 314.327H234.43L235.119 314.405L235.86 314.501L236.627 314.675L237.988 314.945L239.348 315.268L240.682 315.607L242.042 316.008L243.402 316.426L244.763 316.896L246.123 317.41L247.483 317.959L248.835 318.551L250.125 319.178L251.485 319.84L252.872 320.537L255.592 322.035L258.33 323.69L259.001 324.091L259.594 324.509L260.091 324.979L260.536 325.423L260.902 325.911L261.199 326.408L261.425 326.93L261.574 327.47L261.617 327.993V328.533L261.513 329.099L261.338 329.639L261.068 330.214L260.728 330.78L260.301 331.32L259.786 331.886L237.395 353.836L236.749 354.384L236.078 354.776L235.389 355.073L234.7 355.273L234.003 355.325H233.314L232.669 355.177L232.032 354.951L231.439 354.602L230.864 354.184L230.376 353.67L229.931 353.078L229.53 352.407L229.233 351.667L229.015 350.857L228.893 349.986L229.198 319.466ZM260.981 414.249L260.902 414.815L260.737 415.338L260.51 415.852L260.187 416.348L259.821 416.836L259.35 417.332L258.827 417.803L258.234 418.247L257.571 418.691L256.429 419.484L255.269 420.215L254.084 420.929L252.872 421.644L251.616 422.332L250.326 422.976L249.018 423.621L247.684 424.213L246.323 424.779L244.937 425.346L242.068 426.356L239.104 427.297L236.017 428.168L235.276 428.359L234.561 428.507L233.889 428.56H233.227L232.634 428.507L232.058 428.359L231.544 428.168L231.073 427.915L230.628 427.593L230.253 427.201L229.913 426.73L229.643 426.234L229.416 425.642L229.242 425.006L229.146 424.309L229.094 423.543L228.675 392.186L228.728 391.315L228.902 390.549L229.146 389.861L229.495 389.242L229.913 388.702L230.402 388.232L230.977 387.857L231.596 387.561L232.233 387.37L232.93 387.265H233.645L234.386 387.37L235.128 387.544L235.895 387.84L236.636 388.232L237.377 388.746L259.176 410.007L259.716 410.634L260.144 411.279L260.484 411.888L260.737 412.507L260.902 413.099L260.981 413.665V414.249ZM281.794 380.149L281.742 380.863L281.646 381.603L281.471 382.37L281.227 383.729L280.931 385.079L280.582 386.438L280.207 387.796L279.771 389.112L279.3 390.47L278.812 391.829L278.289 393.188L277.696 394.547L277.155 395.932L276.484 397.282L275.821 398.667L274.339 401.41L272.708 404.145L272.307 404.816L271.889 405.408L271.444 405.931L270.999 406.375L270.502 406.741L270.014 407.037L269.491 407.263L268.976 407.411H268.427H267.886L267.346 407.316L266.77 407.141L266.204 406.898L265.663 406.549L265.096 406.131L264.521 405.608L242.278 383.511L241.737 382.866L241.336 382.196L241.022 381.534L240.848 380.846L240.769 380.149V379.487L240.917 378.816L241.144 378.198L241.458 377.579L241.885 377.039L242.373 376.517L242.966 376.073L243.638 375.681L244.379 375.384L245.19 375.167L246.062 375.019H276.58L277.399 375.114L278.167 375.289L278.829 375.48L279.422 375.759L279.945 376.055L280.416 376.395L280.809 376.796L281.131 377.24L281.375 377.728L281.576 378.276L281.698 378.842L281.776 379.461L281.794 380.149ZM282.387 363.434L282.308 364.053L282.186 364.593L281.968 365.115L281.715 365.612L281.375 366.03L280.974 366.396L280.53 366.718L280.015 366.988L279.422 367.214L278.777 367.389L278.088 367.484H277.321L245.931 367.537L245.059 367.458L244.292 367.284L243.603 367.014L242.984 366.666L242.469 366.248L241.998 365.751L241.624 365.185L241.353 364.567L241.153 363.905L241.031 363.208V362.494L241.135 361.753L241.327 361.013L241.624 360.273L242.042 359.506L242.565 358.792L264.146 337.287L264.808 336.799L265.454 336.372L266.073 336.058L266.692 335.806L267.285 335.658L267.852 335.588H268.436L268.985 335.684L269.5 335.832L270.023 336.076L270.511 336.398L271.008 336.773L271.479 337.243L271.95 337.757L272.394 338.349L272.839 339.02L273.606 340.152L274.374 341.337L275.089 342.521L275.777 343.758L276.449 345.012L277.068 346.302L277.678 347.608L278.28 348.941L278.847 350.326L279.361 351.71L279.884 353.139L280.355 354.594L281.227 357.581L282.012 360.673L282.212 361.414L282.334 362.128L282.387 362.79V363.434Z" stroke="#E68E38" stroke-width="2" mask="url(#path-9-inside-1)"/>
<path fill-rule="evenodd" clip-rule="evenodd" d="M192.141 358.792L192.411 359.219L193.353 360.081L194.268 360.795L195.184 361.387L196.126 361.858L197.085 362.18L198.096 362.398L199.186 362.502H200.346L200.913 362.398L201.383 362.25L201.558 362.128L201.706 362.006L201.828 361.858L201.907 361.71L201.959 361.535V361.335L201.933 361.143L201.854 360.917L201.732 360.673L201.584 360.429L201.383 360.151L201.139 359.88L200.616 359.41L200.128 358.966L199.605 358.574L199.134 358.226L198.646 357.929L198.175 357.659L197.704 357.442L197.233 357.241L196.318 356.971L195.428 356.823L194.513 356.797L193.597 356.867L193.03 356.997L192.586 357.163L192.263 357.416L192.071 357.712L191.967 358.034L191.993 358.4L192.141 358.792Z" fill="#E68E38"/>
<path fill-rule="evenodd" clip-rule="evenodd" d="M257.414 357.485L257.118 357.241L256.752 357.067L256.255 356.971L254.973 357.015L253.813 357.137L252.75 357.363L251.756 357.686L250.84 358.13L249.951 358.67L249.114 359.367L248.294 360.177L247.954 360.647L247.753 361.091L247.684 361.318V361.509V361.684L247.753 361.858L247.832 362.006L247.98 362.154L248.128 362.276L248.346 362.38L248.59 362.45L248.896 362.52L249.209 362.572L249.584 362.598L250.299 362.572L250.971 362.546L251.581 362.476L252.183 362.38L252.723 362.25L253.264 362.102L253.735 361.954L254.206 361.762L255.043 361.318L255.81 360.769L256.481 360.151L257.074 359.436L257.397 358.966L257.563 358.522L257.641 358.13L257.589 357.781L257.414 357.485Z" fill="#E68E38"/>
<path d="M176.577 245.487L176.385 243.559L178.162 243.74L180.473 244.086L182.725 244.475L184.91 244.941L187.036 245.502L189.099 246.115L191.073 246.821L193.009 247.606L194.89 248.442L196.698 249.363L198.43 250.361L200.119 251.437L201.73 252.581L203.289 253.803L204.778 255.093L206.199 256.461L207.561 257.899L208.879 259.413L210.103 260.998L211.302 262.661L212.422 264.417L213.475 266.228L214.461 268.11L215.411 270.068L216.274 272.121L217.079 274.231L217.841 276.435L218.524 278.691L219.139 281.018L219.702 283.45L220.197 285.927L220.527 287.859L218.629 287.64L216.152 287.242L213.742 286.8L211.411 286.29L209.128 285.728L206.953 285.065L204.843 284.33L202.814 283.546L200.855 282.666L198.975 281.744L197.166 280.72L195.432 279.643L193.77 278.499L192.186 277.278L190.671 275.988L189.233 274.621L187.865 273.185L186.573 271.671L185.35 270.105L184.206 268.455L183.13 266.718L182.156 264.936L181.225 263.059L180.396 261.127L179.611 259.128L178.929 257.023L178.289 254.873L177.754 252.648L177.287 250.313L176.888 247.935L176.577 245.487Z" stroke="#E68E38"/>
<path d="M258.716 257.545L259.879 257.414L259.786 258.448L259.571 260.057L259.304 261.624L258.985 263.129L258.614 264.601L258.201 266.037L257.737 267.42L257.231 268.755L256.649 270.039L256.012 271.312L255.352 272.528L254.625 273.689L253.855 274.8L252.999 275.895L252.121 276.918L251.206 277.934L250.209 278.871L249.16 279.772L248.069 280.648L246.926 281.48L245.735 282.277L244.49 283.006L243.2 283.71L241.829 284.373L240.441 285.011L238.984 285.593L237.465 286.102L237.463 286.102L235.89 286.62L234.278 287.06L232.618 287.474L230.873 287.836L229.762 288.038L229.887 286.932L230.103 285.196L230.396 283.536L230.741 281.899L231.137 280.339L231.568 278.824L232.059 277.361L232.576 275.952L233.158 274.592L233.81 273.28L234.497 272.01L235.227 270.819L235.999 269.653L236.826 268.546L237.724 267.503L238.645 266.507L239.617 265.535L240.659 264.648L241.749 263.791L242.87 262.996L244.061 262.243L245.293 261.541L246.581 260.907L247.924 260.296L249.313 259.739L250.747 259.251L252.236 258.812L253.779 258.425L255.366 258.08L257.031 257.787L258.716 257.545Z" stroke="#E68E38"/>
<path fill-rule="evenodd" clip-rule="evenodd" d="M260.431 256.849L260.283 258.504L260.065 260.133L259.795 261.718L259.472 263.242L259.097 264.732L258.679 266.186L258.208 267.589L257.693 268.947L257.101 270.254L256.455 271.543L255.784 272.78L255.043 273.964L254.258 275.097L253.386 276.212L252.497 277.248L251.564 278.285L250.544 279.243L249.48 280.157L248.372 281.046L247.213 281.89L246.001 282.701L244.736 283.441L243.428 284.155L242.042 284.826L240.638 285.47L239.156 286.063L237.621 286.576L236.034 287.099L234.404 287.543L232.73 287.961L230.968 288.327L229.19 288.649L229.39 286.873L229.608 285.122L229.905 283.441L230.253 281.786L230.655 280.209L231.091 278.676L231.588 277.196L232.111 275.767L232.704 274.382L233.366 273.05L234.064 271.761L234.805 270.55L235.59 269.365L236.436 268.233L237.351 267.17L238.284 266.16L239.278 265.167L240.342 264.261L241.449 263.39L242.591 262.58L243.803 261.814L245.059 261.1L246.367 260.455L247.727 259.837L249.14 259.27L250.596 258.774L252.104 258.33L253.665 257.938L255.269 257.589L256.952 257.293L258.653 257.049L260.431 256.849Z" stroke="white" stroke-width="0.03" stroke-miterlimit="10"/>
</g>
<defs>
<clipPath id="clip0">
<rect width="150" height="231" fill="white" transform="translate(150 243)"/>
</clipPath>
</defs>
</svg>
