<svg width="36" height="36" viewBox="0 0 36 36" fill="none" xmlns="http://www.w3.org/2000/svg">
<path d="M0 18C0 8.05886 8.05886 0 18 0C27.9411 0 36 8.05886 36 18C36 27.9411 27.9411 36 18 36C8.05886 36 0 27.9411 0 18Z" fill="black"/>
<path fill-rule="evenodd" clip-rule="evenodd" d="M17.6358 0C17.5507 7.40533 17.0664 11.5497 14.3081 14.3081C11.5497 17.0664 7.40533 17.5507 0 17.6358V18.7104C7.40533 18.7954 11.5497 19.2797 14.3081 22.038C17.0232 24.7531 17.535 28.8111 17.6315 36H18.7147C18.8112 28.8111 19.3229 24.7531 22.038 22.038C24.7531 19.3229 28.8111 18.8112 36 18.7147V17.6314C28.8111 17.535 24.7531 17.0232 22.038 14.3081C19.2797 11.5497 18.7954 7.40533 18.7104 0H17.6358Z" fill="white"/>
</svg>
