<svg width="36" height="36" viewBox="0 0 36 36" fill="none" xmlns="http://www.w3.org/2000/svg">
<g clip-path="url(#clip0)">
<path d="M27.5444 6.42056C27.1253 6.41854 26.7151 6.54096 26.3657 6.77229C26.0164 7.00362 25.7435 7.33346 25.5818 7.72001C25.42 8.10655 25.3766 8.53242 25.4572 8.94364C25.5377 9.35486 25.7385 9.73292 26.034 10.0299C26.3296 10.3269 26.7067 10.5295 27.1175 10.612C27.5283 10.6945 27.9544 10.6532 28.3417 10.4933C28.7291 10.3334 29.0602 10.0622 29.2932 9.71389C29.5262 9.36563 29.6506 8.95603 29.6506 8.53701C29.652 8.25955 29.5985 7.98457 29.4932 7.72785C29.388 7.47113 29.2331 7.23773 29.0374 7.04106C28.8416 6.8444 28.609 6.68834 28.3528 6.58186C28.0966 6.47537 27.8218 6.42055 27.5444 6.42056Z" fill="black"/>
<path d="M18.1527 9.1374C16.3969 9.13538 14.6801 9.65432 13.2194 10.6285C11.7587 11.6027 10.6198 12.9883 9.94702 14.61C9.2742 16.2317 9.09765 18.0166 9.43969 19.7387C9.78172 21.4608 10.627 23.0427 11.8685 24.2842C13.11 25.5257 14.6919 26.371 16.414 26.713C18.1361 27.0551 19.9209 26.8785 21.5427 26.2057C23.1644 25.5328 24.55 24.394 25.5242 22.9333C26.4984 21.4726 27.0173 19.7558 27.0153 18C27.0099 15.6512 26.0744 13.4 24.4135 11.7391C22.7526 10.0782 20.5015 9.14277 18.1527 9.1374ZM18.1527 23.688C17.0273 23.69 15.9265 23.3581 14.9898 22.7343C14.0531 22.1106 13.3225 21.2229 12.8904 20.1838C12.4583 19.1446 12.3442 18.0006 12.5626 16.8966C12.7809 15.7926 13.3218 14.7781 14.1169 13.9816C14.9119 13.1851 15.9254 12.6424 17.0291 12.4221C18.1327 12.2018 19.2769 12.3139 20.3168 12.7441C21.3568 13.1743 22.2457 13.9033 22.8711 14.8389C23.4966 15.7745 23.8304 16.8746 23.8304 18C23.8344 18.7487 23.6906 19.4908 23.4072 20.1837C23.1238 20.8767 22.7064 21.5069 22.1789 22.0382C21.6514 22.5694 21.0242 22.9914 20.3333 23.2797C19.6424 23.5681 18.9013 23.7172 18.1527 23.7185V23.688Z" fill="black"/>
<path d="M25.1939 36.0102H10.8163C7.94846 36.0075 5.19887 34.867 3.17101 32.8392C1.14314 30.8113 0.00269406 28.0617 0 25.1939V10.8163C0.00269406 7.94846 1.14314 5.19885 3.17101 3.17099C5.19887 1.14313 7.94846 0.00269406 10.8163 0H25.1939C28.06 0.00538609 30.8069 1.14701 32.8326 3.17458C34.8583 5.20215 35.9973 7.95022 36 10.8163V25.1939C35.9973 28.06 34.8583 30.808 32.8326 32.8356C30.8069 34.8632 28.06 36.0048 25.1939 36.0102ZM10.8163 3.368C8.8471 3.37069 6.95937 4.15414 5.56694 5.54656C4.17452 6.93898 3.39106 8.82675 3.38837 10.7959V25.1735C3.39106 27.1427 4.17452 29.0305 5.56694 30.4229C6.95937 31.8153 8.8471 32.5988 10.8163 32.6015H25.1939C27.1623 32.5961 29.0485 31.8118 30.4403 30.4199C31.8322 29.0281 32.6164 27.1419 32.6218 25.1735V10.8163C32.6164 8.84793 31.8322 6.96172 30.4403 5.56988C29.0485 4.17804 27.1623 3.39373 25.1939 3.38836L10.8163 3.368Z" fill="black"/>
</g>
<defs>
<clipPath id="clip0">
<rect width="36" height="36" fill="white"/>
</clipPath>
</defs>
</svg>
