<svg width="31" height="36" viewBox="0 0 31 36" fill="none" xmlns="http://www.w3.org/2000/svg">
<g clip-path="url(#clip0)">
<path d="M30.8028 14.5633C30.5071 14.5782 30.2108 14.5782 29.915 14.5633C28.3191 14.5633 26.7483 14.1657 25.3446 13.4063C23.9409 12.647 22.7485 11.5499 21.8751 10.2142V25.0172C21.8751 27.1873 21.2316 29.3088 20.0259 31.1132C18.8202 32.9176 17.1066 34.324 15.1016 35.1545C13.0966 35.985 10.8904 36.2023 8.76191 35.7789C6.63344 35.3555 4.67835 34.3105 3.14381 32.7759C1.60927 31.2414 0.5642 29.2863 0.140821 27.1578C-0.282558 25.0293 -0.0652508 22.8231 0.765237 20.8181C1.59572 18.8132 3.0021 17.0995 4.80653 15.8938C6.61095 14.6881 8.73238 14.0446 10.9026 14.0446C11.132 14.0446 11.3515 14.0446 11.5709 14.0446V19.4311C11.35 19.3926 11.1267 19.3692 10.9026 19.3613C10.1498 19.3295 9.39835 19.4502 8.69348 19.7164C7.9886 19.9825 7.34489 20.3885 6.80099 20.9099C6.25709 21.4312 5.82426 22.0573 5.5286 22.7503C5.23293 23.4433 5.08056 24.1889 5.08056 24.9423C5.08056 25.6958 5.23293 26.4414 5.5286 27.1344C5.82426 27.8274 6.25709 28.4535 6.80099 28.9748C7.34489 29.4962 7.9886 29.9022 8.69348 30.1683C9.39835 30.4345 10.1498 30.5552 10.9026 30.5234C12.3983 30.5479 13.8441 29.985 14.9295 28.9555C16.0149 27.9261 16.6534 26.5121 16.708 25.0172V-0.119995H21.8651C22.1 2.12043 23.1148 4.20705 24.7321 5.77515C26.3494 7.34324 28.4664 8.29306 30.713 8.45856V14.4436" fill="black"/>
</g>
<defs>
<clipPath id="clip0">
<rect width="30.803" height="36" fill="white"/>
</clipPath>
</defs>
</svg>
