<svg width="106" height="50" viewBox="0 0 106 50" fill="none" xmlns="http://www.w3.org/2000/svg">
<path d="M49.6503 21.8756C49.6503 22.8049 49.4907 23.6209 49.1715 24.3236C48.8568 25.0264 48.4053 25.5673 47.8169 25.9464C47.2286 26.3255 46.5491 26.5151 45.7783 26.5151C44.6153 26.5151 43.6758 26.0943 42.9598 25.2529C42.2438 24.4069 41.8858 23.2672 41.8858 21.834V20.7938C41.8858 19.8737 42.0454 19.0601 42.3646 18.3527C42.6884 17.6407 43.1445 17.0952 43.7328 16.7161C44.3212 16.3323 44.9984 16.1405 45.7646 16.1405C46.5308 16.1405 47.2058 16.3277 47.7896 16.7022C48.3779 17.0767 48.8317 17.606 49.1509 18.2903C49.4702 18.9745 49.6367 19.7674 49.6503 20.6689V21.8756ZM48.8089 20.7799C48.8089 19.564 48.5375 18.6116 47.9948 17.9227C47.4521 17.2339 46.7087 16.8894 45.7646 16.8894C44.8388 16.8894 44.1 17.2362 43.5481 17.9297C43.0008 18.6185 42.7272 19.5825 42.7272 20.8215V21.8756C42.7272 23.073 43.0008 24.0231 43.5481 24.7259C44.0954 25.424 44.8388 25.773 45.7783 25.773C46.7315 25.773 47.4749 25.4286 48.0085 24.7397C48.5421 24.0462 48.8089 23.0823 48.8089 21.8479V20.7799Z" fill="#1D1D1D"/>
<path d="M55 19.5802C54.8267 19.5478 54.642 19.5316 54.4459 19.5316C53.9351 19.5316 53.5018 19.6773 53.1461 19.9685C52.7949 20.2552 52.5441 20.6736 52.3936 21.2237V26.3764H51.5795V18.8728H52.3799L52.3936 20.0656C52.8269 19.1779 53.5224 18.7341 54.4801 18.7341C54.7081 18.7341 54.8883 18.7642 55.0206 18.8243L55 19.5802Z" fill="#1D1D1D"/>
<path d="M60.6986 26.3764C60.6165 26.1406 60.5641 25.7915 60.5413 25.3292C60.254 25.7083 59.8868 26.0019 59.4399 26.2099C58.9975 26.4134 58.5277 26.5151 58.0306 26.5151C57.3191 26.5151 56.7422 26.314 56.2998 25.9117C55.862 25.5095 55.6431 25.0009 55.6431 24.3861C55.6431 23.6556 55.9418 23.0777 56.5393 22.6523C57.1413 22.227 57.9782 22.0143 59.0499 22.0143H60.5344V21.1613C60.5344 20.625 60.3703 20.2043 60.0419 19.8992C59.7181 19.5894 59.2438 19.4345 58.6189 19.4345C58.0489 19.4345 57.5768 19.5825 57.2028 19.8784C56.8289 20.1743 56.6419 20.5303 56.6419 20.9463L55.821 20.9394C55.821 20.343 56.0946 19.8275 56.6419 19.3929C57.1892 18.9537 57.8619 18.7341 58.66 18.7341C59.4855 18.7341 60.1354 18.9445 60.6097 19.3652C61.0886 19.7813 61.3348 20.3638 61.3485 21.1128V24.6634C61.3485 25.3893 61.4238 25.9325 61.5743 26.2931V26.3764H60.6986ZM58.1264 25.78C58.6737 25.78 59.1617 25.6459 59.5904 25.3777C60.0236 25.1096 60.3383 24.7513 60.5344 24.3028V22.6523H59.0705C58.2541 22.6616 57.6156 22.8141 57.155 23.11C56.6943 23.4013 56.464 23.8035 56.464 24.3167C56.464 24.7374 56.6168 25.0865 56.9224 25.3639C57.2325 25.6413 57.6338 25.78 58.1264 25.78Z" fill="#1D1D1D"/>
<path d="M64.3175 18.8728L64.3449 20.1558C64.6231 19.6934 64.9697 19.3421 65.3847 19.1017C65.7998 18.8566 66.2581 18.7341 66.7598 18.7341C67.5533 18.7341 68.144 18.9607 68.5316 19.4137C68.9193 19.8668 69.1154 20.5464 69.1199 21.4526V26.3764H68.3059V21.4457C68.3013 20.7753 68.1599 20.276 67.8817 19.9477C67.6081 19.6195 67.168 19.4553 66.5614 19.4553C66.0552 19.4553 65.6059 19.6172 65.2137 19.9408C64.8261 20.2598 64.5387 20.6921 64.3517 21.2376V26.3764H63.5377V18.8728H64.3175Z" fill="#1D1D1D"/>
<path d="M70.9123 22.5552C70.9123 21.3809 71.1677 20.4517 71.6785 19.7674C72.1939 19.0785 72.8916 18.7341 73.7719 18.7341C74.7798 18.7341 75.546 19.141 76.0704 19.9547L76.1115 18.8728H76.8777V26.2238C76.8777 27.1901 76.6109 27.9552 76.0773 28.5192C75.5437 29.0833 74.8208 29.3653 73.9087 29.3653C73.3933 29.3653 72.9008 29.2474 72.431 29.0116C71.9658 28.7805 71.5987 28.4707 71.3296 28.0823L71.788 27.583C72.3672 28.3043 73.0558 28.6649 73.8539 28.6649C74.5381 28.6649 75.0717 28.4591 75.4548 28.0477C75.8379 27.6408 76.0362 27.0745 76.0499 26.3486V25.4055C75.5254 26.1452 74.7615 26.5151 73.7582 26.5151C72.9008 26.5151 72.2121 26.1683 71.6922 25.4748C71.1723 24.7813 70.9123 23.8451 70.9123 22.6662V22.5552ZM71.7401 22.7009C71.7401 23.6579 71.9293 24.4138 72.3079 24.9686C72.6864 25.5188 73.22 25.7938 73.9087 25.7938C74.9166 25.7938 75.6303 25.3361 76.0499 24.4207V20.9325C75.8584 20.4517 75.5825 20.0864 75.2222 19.8368C74.8619 19.5825 74.4286 19.4553 73.9224 19.4553C73.2337 19.4553 72.6978 19.7304 72.3147 20.2806C71.9316 20.8261 71.7401 21.6329 71.7401 22.7009Z" fill="#1D1D1D"/>
<path d="M81.8785 26.5151C81.2491 26.5151 80.679 26.3579 80.1682 26.0435C79.662 25.7291 79.2675 25.2922 78.9847 24.7328C78.702 24.1688 78.5606 23.5377 78.5606 22.8396V22.5414C78.5606 21.8201 78.6974 21.1706 78.971 20.5927C79.2493 20.0148 79.6346 19.5617 80.1272 19.2334C80.6197 18.9006 81.1533 18.7341 81.728 18.7341C82.6264 18.7341 83.3379 19.0462 83.8624 19.6703C84.3914 20.2898 84.656 21.1382 84.656 22.2154V22.6801H79.3747V22.8396C79.3747 23.6903 79.6141 24.3999 80.093 24.9686C80.5764 25.5326 81.183 25.8146 81.9127 25.8146C82.3505 25.8146 82.7359 25.7337 83.0688 25.5719C83.4063 25.4101 83.7119 25.1512 83.9855 24.7952L84.4986 25.1905C83.8966 26.0735 83.0232 26.5151 81.8785 26.5151ZM81.728 19.4415C81.1123 19.4415 80.5924 19.6703 80.1682 20.128C79.7486 20.5857 79.4932 21.2006 79.402 21.9727H83.8419V21.8826C83.8191 21.1613 83.6161 20.5742 83.233 20.1211C82.8499 19.668 82.3482 19.4415 81.728 19.4415Z" fill="#1D1D1D"/>
<path d="M47.6664 39.7785H43.1445L42.1183 42.608H41.2359L45.0053 32.5108H45.8057L49.5751 42.608H48.6994L47.6664 39.7785ZM43.4045 39.0504H47.3996L45.4021 33.551L43.4045 39.0504Z" fill="#1D1D1D"/>
<path d="M56.8061 38.9325C56.8061 40.1022 56.5507 41.0314 56.0399 41.7203C55.5291 42.4046 54.845 42.7467 53.9876 42.7467C52.9751 42.7467 52.1998 42.3861 51.6616 41.6648V45.4929H50.8475V35.1044H51.6069L51.6479 36.1655C52.1815 35.3656 52.9546 34.9657 53.967 34.9657C54.8518 34.9657 55.545 35.3055 56.0467 35.9852C56.553 36.6648 56.8061 37.6079 56.8061 38.8146V38.9325ZM55.9851 38.7869C55.9851 37.8298 55.7913 37.0739 55.4037 36.5191C55.016 35.9644 54.4756 35.687 53.7823 35.687C53.2807 35.687 52.8497 35.8095 52.4894 36.0545C52.1291 36.2995 51.8532 36.6555 51.6616 37.1225V40.7217C51.8577 41.1516 52.1382 41.4799 52.5031 41.7064C52.8679 41.933 53.2989 42.0463 53.796 42.0463C54.4847 42.0463 55.0206 41.7689 55.4037 41.2141C55.7913 40.6546 55.9851 39.8456 55.9851 38.7869Z" fill="#1D1D1D"/>
<path d="M63.2982 42.608C63.2161 42.3722 63.1637 42.0231 63.1409 41.5608C62.8536 41.9399 62.4864 42.2335 62.0395 42.4415C61.5971 42.645 61.1273 42.7467 60.6302 42.7467C59.9187 42.7467 59.3418 42.5456 58.8994 42.1433C58.4616 41.7411 58.2427 41.2326 58.2427 40.6177C58.2427 39.8872 58.5414 39.3093 59.1389 38.8839C59.7409 38.4586 60.5778 38.2459 61.6495 38.2459H63.134V37.3929C63.134 36.8566 62.9698 36.4359 62.6415 36.1308C62.3177 35.821 61.8434 35.6661 61.2185 35.6661C60.6485 35.6661 60.1764 35.8141 59.8024 36.11C59.4285 36.4059 59.2415 36.7619 59.2415 37.178L58.4206 37.171C58.4206 36.5746 58.6942 36.0591 59.2415 35.6245C59.7888 35.1853 60.4615 34.9657 61.2596 34.9657C62.0851 34.9657 62.735 35.1761 63.2093 35.5968C63.6882 36.0129 63.9344 36.5954 63.9481 37.3444V40.8951C63.9481 41.6209 64.0234 42.1641 64.1739 42.5248V42.608H63.2982ZM60.726 42.0116C61.2733 42.0116 61.7613 41.8775 62.19 41.6094C62.6232 41.3412 62.9379 40.9829 63.134 40.5344V38.8839H61.6701C60.8537 38.8932 60.2152 39.0458 59.7546 39.3416C59.2939 39.6329 59.0636 40.0351 59.0636 40.5483C59.0636 40.969 59.2164 41.3181 59.522 41.5955C59.8321 41.8729 60.2334 42.0116 60.726 42.0116Z" fill="#1D1D1D"/>
<path d="M69.5578 35.8118C69.3845 35.7794 69.1998 35.7632 69.0036 35.7632C68.4929 35.7632 68.0596 35.9089 67.7039 36.2001C67.3527 36.4868 67.1018 36.9052 66.9513 37.4554V42.608H66.1373V35.1044H66.9377L66.9513 36.2972C67.3846 35.4096 68.0801 34.9657 69.0379 34.9657C69.2659 34.9657 69.446 34.9958 69.5783 35.0559L69.5578 35.8118Z" fill="#1D1D1D"/>
<path d="M72.4721 33.1835V35.1044H74.0045V35.784H72.4721V40.7841C72.4721 41.2002 72.545 41.51 72.691 41.7134C72.8415 41.9168 73.09 42.0185 73.4366 42.0185C73.5735 42.0185 73.7947 41.9954 74.1002 41.9492L74.1344 42.6288C73.9201 42.7074 73.6282 42.7467 73.2588 42.7467C72.6978 42.7467 72.2896 42.5825 72.0342 42.2543C71.7788 41.9214 71.6511 41.4337 71.6511 40.791V35.784H70.2898V35.1044H71.6511V33.1835H72.4721Z" fill="#1D1D1D"/>
<path d="M76.4467 35.1044L76.4741 36.325C76.7477 35.8719 77.0898 35.5321 77.5002 35.3055C77.9107 35.079 78.3668 34.9657 78.8684 34.9657C80.036 34.9657 80.7771 35.4512 81.0918 36.4221C81.3563 35.9551 81.7097 35.5968 82.1521 35.3471C82.5945 35.0929 83.0825 34.9657 83.6161 34.9657C85.2032 34.9657 86.0128 35.8441 86.0447 37.601V42.608H85.2238V37.6634C85.2192 36.993 85.0755 36.496 84.7928 36.1724C84.5146 35.8488 84.0585 35.687 83.4246 35.687C82.8362 35.6962 82.3391 35.8904 81.9332 36.2695C81.5273 36.644 81.3016 37.1017 81.256 37.6426V42.608H80.435V37.601C80.4305 36.9584 80.28 36.4798 79.9835 36.1655C79.6916 35.8465 79.2401 35.687 78.629 35.687C78.1136 35.687 77.6712 35.8372 77.3018 36.1377C76.9324 36.4336 76.6588 36.8751 76.4809 37.4623V42.608H75.66V35.1044H76.4467Z" fill="#1D1D1D"/>
<path d="M90.9908 42.7467C90.3614 42.7467 89.7913 42.5895 89.2805 42.2751C88.7743 41.9607 88.3798 41.5238 88.097 40.9644C87.8142 40.4004 87.6729 39.7693 87.6729 39.0712V38.773C87.6729 38.0518 87.8097 37.4022 88.0833 36.8243C88.3615 36.2464 88.7469 35.7933 89.2395 35.465C89.732 35.1322 90.2656 34.9657 90.8403 34.9657C91.7387 34.9657 92.4502 35.2778 92.9747 35.9019C93.5037 36.5215 93.7682 37.3698 93.7682 38.447V38.9117H88.4869V39.0712C88.4869 39.9219 88.7264 40.6315 89.2052 41.2002C89.6887 41.7642 90.2953 42.0463 91.025 42.0463C91.4628 42.0463 91.8482 41.9653 92.1811 41.8035C92.5186 41.6417 92.8242 41.3828 93.0978 41.0268L93.6109 41.4221C93.0089 42.3052 92.1355 42.7467 90.9908 42.7467ZM90.8403 35.6731C90.2246 35.6731 89.7046 35.9019 89.2805 36.3596C88.8609 36.8173 88.6055 37.4322 88.5143 38.2043H92.9541V38.1142C92.9313 37.3929 92.7284 36.8058 92.3453 36.3527C91.9622 35.8996 91.4605 35.6731 90.8403 35.6731Z" fill="#1D1D1D"/>
<path d="M96.1421 35.1044L96.1694 36.3874C96.4476 35.9251 96.7942 35.5737 97.2093 35.3333C97.6243 35.0882 98.0826 34.9657 98.5843 34.9657C99.3779 34.9657 99.9685 35.1923 100.356 35.6453C100.744 36.0984 100.94 36.778 100.944 37.6842V42.608H100.13V37.6773C100.126 37.0069 99.9845 36.5076 99.7062 36.1793C99.4326 35.8511 98.9925 35.687 98.3859 35.687C97.8797 35.687 97.4305 35.8488 97.0382 36.1724C96.6506 36.4914 96.3633 36.9237 96.1763 37.4692V42.608H95.3622V35.1044H96.1421Z" fill="#1D1D1D"/>
<path d="M104.338 33.1835V35.1044H105.87V35.784H104.338V40.7841C104.338 41.2002 104.411 41.51 104.557 41.7134C104.707 41.9168 104.956 42.0185 105.302 42.0185C105.439 42.0185 105.66 41.9954 105.966 41.9492L106 42.6288C105.786 42.7074 105.494 42.7467 105.124 42.7467C104.563 42.7467 104.155 42.5825 103.9 42.2543C103.644 41.9214 103.517 41.4337 103.517 40.791V35.784H102.155V35.1044H103.517V33.1835H104.338Z" fill="#1D1D1D"/>
<g clip-path="url(#clip0)">
<path fill-rule="evenodd" clip-rule="evenodd" d="M14.0275 32.8023L14.007 32.7589L13.9755 32.7269L13.9476 32.7062L13.9123 32.6854L13.8751 32.6798L13.8324 32.6741L13.7915 32.6854L13.7432 32.7005L13.6911 32.7269L13.6372 32.7589L13.5796 32.8023L13.522 32.8551L13.4216 32.9682L13.3269 33.0757L13.2432 33.1812L13.1689 33.2887L13.1057 33.3905L13.0481 33.4923L12.9998 33.5941L12.9589 33.694L12.8994 33.8882L12.8678 34.0843L12.8641 34.2823L12.879 34.4802L12.905 34.6028L12.9422 34.6989L12.9942 34.7687L13.0537 34.812L13.1224 34.8328L13.2005 34.8271L13.2841 34.7951L13.3752 34.7366L13.5592 34.5349L13.7116 34.3369L13.8379 34.139L13.9383 33.9354L14.0108 33.7261L14.0591 33.5074L14.0851 33.2774V33.0267L14.0647 32.8985L14.0275 32.8023Z" fill="#E68E38"/>
<path fill-rule="evenodd" clip-rule="evenodd" d="M19.0247 33.9731L18.9727 33.7431L18.9039 33.5338L18.8036 33.3321L18.6884 33.1454L18.5397 32.9626L18.3613 32.7872L18.2609 32.7118L18.1661 32.6685L18.1197 32.6571H18.0769L18.0398 32.6628L18.0026 32.6741L17.971 32.6948L17.9394 32.7212L17.9134 32.7589L17.893 32.808L17.8762 32.8608L17.8614 32.9249L17.8502 32.9946L17.8446 33.0757L17.8502 33.2303L17.8614 33.3736L17.8762 33.5074L17.9041 33.6356L17.9301 33.7544L17.9617 33.8656L17.9989 33.9731L18.0398 34.0749L18.1345 34.2502L18.2553 34.4105L18.3873 34.5556L18.5397 34.6838L18.64 34.7479L18.7348 34.7894L18.8203 34.8007L18.8928 34.7894L18.956 34.7536L19.0099 34.6895L19.047 34.6084L19.0675 34.501L19.0563 34.2238L19.0247 33.9731Z" fill="#E68E38"/>
<path fill-rule="evenodd" clip-rule="evenodd" d="M17.945 22.7122L17.9673 22.7556L17.9933 22.7876L18.0249 22.814L18.0565 22.831L18.0918 22.8404H18.1346L18.1829 22.8347L18.2294 22.8197L18.2777 22.7989L18.3353 22.7612L18.3873 22.7235L18.4505 22.6707L18.5564 22.5576L18.6512 22.4501L18.7348 22.3446L18.8148 22.2428L18.8835 22.1409L18.9411 22.0391L18.9876 21.9373L19.0303 21.8355L19.0935 21.6432L19.1251 21.4453L19.1363 21.2473L19.1251 21.0512L19.1047 20.9325L19.0675 20.8363L19.0155 20.7628L18.956 20.7194L18.8835 20.6987L18.8036 20.7025L18.72 20.7307L18.6308 20.7892L18.4412 20.9871L18.2833 21.1832L18.1569 21.3774L18.051 21.5791L17.9766 21.7827L17.9246 22.0014L17.8986 22.2371L17.893 22.4878L17.9079 22.616L17.945 22.7122Z" fill="#E68E38"/>
<path fill-rule="evenodd" clip-rule="evenodd" d="M14.1074 22.0882L14.0907 21.9543L14.0703 21.8261L14.0442 21.7073L14.0164 21.5904L13.9792 21.4886L13.9383 21.3868L13.8435 21.2058L13.732 21.0399L13.6001 20.8948L13.4533 20.7666L13.3473 20.6987L13.2581 20.661L13.1689 20.644L13.0946 20.6553L13.0314 20.693L12.985 20.7571L12.9422 20.8363L12.9218 20.9438L12.9311 21.2209L12.9589 21.4736L13.0054 21.7017L13.0742 21.9166L13.1689 22.1146L13.2842 22.3069L13.4273 22.4878L13.6001 22.6651L13.7004 22.7386L13.7952 22.7819L13.8435 22.7989H13.8863H13.9216L13.9588 22.7819L13.9904 22.7669L14.0219 22.7348L14.048 22.7028L14.0703 22.6537L14.0851 22.601L14.1019 22.5369L14.1111 22.4671L14.1167 22.386L14.1111 22.2314L14.1074 22.0882Z" fill="#E68E38"/>
<path fill-rule="evenodd" clip-rule="evenodd" d="M22.8958 30.4664L22.8382 30.3759L22.6373 30.1893L22.442 30.029L22.2523 29.9008L22.0515 29.799L21.8469 29.7236L21.6312 29.6765L21.4043 29.6501H21.155L21.0286 29.6708L20.9337 29.7029L20.8928 29.7293L20.8612 29.7557L20.8389 29.7877L20.8184 29.8198L20.8073 29.8575V29.9008L20.8128 29.9423L20.8296 29.9913L20.8556 30.0441L20.8872 30.0988L20.93 30.1572L20.9821 30.2157L21.0937 30.3231L21.1978 30.4136L21.3038 30.4985L21.408 30.5739L21.5084 30.6436L21.6088 30.7021L21.7093 30.7492L21.8097 30.7926L21.9994 30.851L22.1947 30.8831L22.3899 30.8944L22.5852 30.8793L22.7005 30.851L22.7954 30.8133L22.8642 30.7605L22.9107 30.7021L22.933 30.6323L22.9274 30.5531L22.8958 30.4664Z" fill="#E68E38"/>
<path fill-rule="evenodd" clip-rule="evenodd" d="M11.0713 29.767L11.049 29.7349L11.0174 29.7029L10.9857 29.6765L10.9393 29.6539L10.8872 29.6388L10.8239 29.6218L10.7551 29.6124L10.6752 29.6067L10.5227 29.6124L10.3795 29.6218L10.2493 29.6331L10.1228 29.6539L10.0056 29.6821L9.89591 29.7142L9.7899 29.7519L9.68947 29.7877L9.51093 29.8839L9.35285 30.0026L9.20965 30.1346L9.08318 30.2854L9.01437 30.3929L8.97717 30.489L8.9623 30.5739L8.97345 30.6493L9.00879 30.7134L9.07202 30.7662L9.15199 30.8039L9.258 30.8246L9.53139 30.8133L9.77874 30.7869L10.0056 30.7341L10.2177 30.6644L10.4111 30.5739L10.597 30.4513L10.7812 30.3062L10.9541 30.1308L11.0285 30.029L11.0713 29.9329L11.0862 29.8424L11.0825 29.8047L11.0713 29.767Z" fill="#E68E38"/>
<path fill-rule="evenodd" clip-rule="evenodd" d="M31.9902 27.35L31.9753 26.9334L31.9567 26.5224L31.9195 26.1114L31.8786 25.7042L31.8209 25.2988L31.7577 24.8972L31.6777 24.4976L31.5847 24.1073L31.4955 23.7171L31.3987 23.3268L31.2872 22.9497L31.1663 22.5727L31.0342 22.1956L30.8985 21.8186L30.7497 21.4547L30.5916 21.0908L30.4279 20.7326L30.2457 20.3876L30.0597 20.0407L29.8737 19.6976L29.6784 19.362L29.4739 19.0302L29.2637 18.704L29.0424 18.3741L28.8174 18.0649L28.5849 17.7539L28.3413 17.4503L28.0939 17.1506L27.841 16.8659L27.5769 16.5831L27.3072 16.3003L27.032 16.0288L26.7493 15.7649L26.4703 15.5085L26.1746 15.2577L25.8752 15.0107L25.5683 14.777L25.2615 14.547L24.9453 14.3226L24.6235 14.1077L24.2962 13.9003L23.9596 13.7023L23.6211 13.5138L23.2789 13.3253L22.9311 13.15L22.5778 12.984L22.2244 12.8238L21.8525 12.6749L21.4805 12.5353L21.1086 12.4015L20.7366 12.2789L20.3646 12.1658L19.9927 12.0603L19.6114 11.9641L19.2227 11.8793L18.8266 11.7982L18.4305 11.7341L18.0362 11.6757L17.6363 11.6398L17.2365 11.6021L16.8255 11.5757L16.4145 11.5588H16.0034H15.5924L15.1796 11.5757L14.7741 11.6021L14.3687 11.6398L13.9688 11.6813L13.5671 11.7398L13.1729 11.8039L12.7786 11.8849L12.3843 11.9641L11.9993 12.0565L11.6144 12.1621L11.2424 12.2752L10.8704 12.3977L10.4985 12.5316L10.1265 12.6711L9.76759 12.82L9.40865 12.9803L9.05529 13.1462L8.70937 13.3272L8.36717 13.5157L8.02869 13.7042L7.69765 13.9022L7.37032 14.1096L7.05416 14.3226L6.73242 14.547L6.42741 14.777L6.12055 15.0107L5.82112 15.2577L5.52542 15.5085L5.24087 15.7649L4.9619 16.0326L4.68665 16.3003L4.41885 16.5831L4.15476 16.8659L3.90183 17.1543L3.65447 17.4541L3.41084 17.7576L3.18023 18.0687L2.95334 18.3741L2.73202 18.704L2.52001 19.0302L2.31543 19.362L2.12015 19.6938L1.93417 20.0369L1.7482 20.3838L1.57524 20.7307L1.41157 21.0889L1.25349 21.4528L1.10657 21.8167L0.968945 22.1937L0.836901 22.5708L0.716015 22.9479L0.604428 23.3249L0.50028 23.7152L0.40915 24.1054L0.32546 24.4957L0.247349 24.8954L0.184116 25.2969L0.124603 25.7023L0.0855475 26.1038L0.048352 26.5148L0.0223152 26.9258L0.00557709 27.3425V27.761L0.0167357 28.2889L0.0371934 28.8187L0.0799684 29.3428L0.137622 29.8556L0.212013 30.3684L0.301283 30.8755L0.401711 31.3827L0.526317 31.8823L0.658361 32.3743L0.805284 32.8551L0.968945 33.3302L1.15492 33.8015L1.3409 34.2653L1.54548 34.7197L1.76121 35.1702L1.99369 35.6076L2.0625 35.7358L2.13689 35.8584L2.42144 36.3071L2.72086 36.752L3.03145 37.1894L3.35877 37.623L3.68795 38.0491L4.03573 38.4771L4.38909 38.8994L4.76105 39.316L5.133 39.7327L5.50496 40.1455L6.28421 40.9562L7.08578 41.7631L7.90408 42.5663L9.55929 44.1575L10.3832 44.9568L11.2108 45.7524L12.0216 46.5537L12.8176 47.3606L13.5932 48.1788L13.9651 48.5898L14.3371 49.0064L14.4431 49.1309L14.5491 49.2478L14.6551 49.3552L14.7648 49.457L14.8708 49.5475L14.975 49.6267L15.081 49.7021L15.187 49.7662L15.293 49.8247L15.3972 49.8737L15.5032 49.9152L15.6129 49.9472L15.8249 49.9906L16.0351 50.0019L16.2471 49.9793L16.4572 49.9321L16.6674 49.8511L16.8794 49.7398L17.0951 49.6003L17.3053 49.4344L17.5173 49.2365L17.7275 49.0121L18.118 48.5521L18.5235 48.0996L18.9345 47.649L19.3566 47.2003L20.2159 46.3199L21.0918 45.4489L21.9827 44.593L22.8679 43.7483L23.7532 42.9094L24.618 42.0874L25.0401 41.6802L25.4567 41.2748L25.8677 40.8676L26.262 40.4679L26.6526 40.0664L27.0245 39.6704L27.3965 39.2708L27.7498 38.8805L28.0827 38.4846L28.4026 38.0943L28.7039 37.7041L28.9829 37.3138L29.247 36.9368L29.4887 36.5597L29.7101 36.1826L29.9109 35.8056L29.9648 35.7094L30.0169 35.6133L30.2494 35.174L30.4688 34.6933L30.6697 34.2389L30.8557 33.7808L31.0417 33.3095L31.2053 32.8344L31.3522 32.3536L31.4843 31.8672L31.6052 31.3751L31.7056 30.8718L31.7949 30.3703L31.8693 29.8575L31.9269 29.3447L31.9697 28.8206L31.9902 28.2964L32.0013 27.7686L31.9902 27.35ZM3.78652 25.8927V25.7419L3.80884 25.5816L3.84045 25.41L3.89253 25.1178L3.95576 24.8237L4.02457 24.5296L4.10268 24.2355L4.18823 23.9414L4.29238 23.653L4.39653 23.3588L4.50812 23.0591L4.629 22.765L4.75547 22.4671L4.89309 22.173L5.03443 21.8732L5.34688 21.2794L5.68908 20.6817L5.77277 20.5366L5.85832 20.4084L5.95317 20.2971L6.0536 20.201L6.15216 20.1199L6.25817 20.0558L6.36976 20.0087L6.47763 19.971L6.58921 19.954H6.7101L6.82541 19.971L6.94629 20.0087L7.06904 20.0615L7.18993 20.1369L7.31081 20.2274L7.4317 20.3348L12.2058 25.0895L12.3211 25.2291L12.4103 25.3686L12.4792 25.5119L12.5163 25.6627L12.5368 25.8116V25.9568L12.5108 26.1001L12.4643 26.2396L12.3955 26.3678L12.3062 26.4903L12.2002 26.6034L12.0737 26.6996L11.9305 26.7844L11.7724 26.8542L11.6051 26.907L11.4191 26.939L4.90983 26.988L4.73501 26.9654L4.57135 26.9334L4.43 26.8919L4.30354 26.8316L4.19195 26.7675L4.09152 26.6939L4.00783 26.6072L3.93902 26.5111L3.87393 26.4111L3.83301 26.2924L3.8014 26.1698L3.78652 26.036V25.8927ZM7.5935 35.0892L7.45215 35.1966L7.31453 35.2871L7.18249 35.3625L7.05602 35.4153L6.92955 35.4474L6.80867 35.4625H6.68778L6.57248 35.4417L6.46089 35.4097L6.3493 35.3569L6.24515 35.2871L6.13915 35.2061L6.03314 35.1061L5.93457 34.993L5.83972 34.8648L5.73371 34.7197L5.57191 34.4746L5.40825 34.2238L5.25575 33.9618L5.10697 33.6997L4.96562 33.4263L4.828 33.1492L4.69595 32.8664L4.57507 32.578L4.45418 32.2782L4.33702 31.9784L4.12128 31.3544L3.9353 30.7115L3.76048 30.0441L3.71957 29.8839L3.68795 29.7293V29.5841V29.4465V29.3088L3.71957 29.1863L3.76234 29.0732L3.81999 28.9714L3.88881 28.8809L3.97436 28.7998L4.06921 28.7263L4.17893 28.6678L4.3054 28.6188L4.44302 28.5868L4.58995 28.566L4.75361 28.5547L11.4488 28.5283L11.6348 28.5434L11.7985 28.5755L11.9473 28.6358L12.0793 28.7093L12.1946 28.8055L12.2895 28.9129L12.3676 29.0298L12.4308 29.1637L12.4736 29.3088L12.4959 29.4521V29.6124L12.4754 29.7689L12.4327 29.9329L12.3694 30.0931L12.2802 30.2534L12.1704 30.4099L7.5935 35.0892ZM15.1591 39.1237L15.1219 39.2896L15.081 39.4348L15.0271 39.563L14.9638 39.6799L14.8913 39.776L14.8057 39.8609L14.7109 39.9306L14.6067 39.9891L14.4896 40.0324L14.3687 40.0588L14.2366 40.0758H14.099H13.9465L13.7884 40.0494L13.6248 40.0173L13.3347 39.9627L13.0445 39.8986L12.7563 39.825L12.4661 39.744L12.176 39.6591L11.871 39.5517L11.5809 39.4499L11.2852 39.333L10.995 39.2104L10.7049 39.0804L10.1284 38.7919L9.53697 38.4771L8.953 38.1302L8.8098 38.0453L8.68333 37.9529L8.5736 37.8568L8.4769 37.7606L8.39879 37.6551L8.33741 37.5476L8.28906 37.4401L8.25744 37.3289L8.24256 37.2101V37.0932L8.26302 36.9707L8.30022 36.8519L8.35229 36.7294L8.4211 36.6068L8.51223 36.4843L8.62196 36.3617L13.3254 31.5354L13.4611 31.4185L13.5987 31.3261L13.7457 31.262L13.8889 31.2205L14.0358 31.2036H14.1846L14.3203 31.23L14.458 31.2846L14.5844 31.3525L14.7053 31.4392L14.8169 31.5505L14.9117 31.6749L14.9954 31.8182L15.0643 31.9784L15.1107 32.1556L15.1424 32.3442L15.174 38.9427L15.1591 39.1237ZM15.1758 23.3588L15.1386 23.5248L15.081 23.6737L15.0066 23.8075L14.9117 23.9244L14.8057 24.0206L14.6904 24.1017L14.5584 24.1658L14.4152 24.2091L14.2683 24.2299H14.1027L13.9558 24.2185L13.7922 24.1752L13.6341 24.1111L13.476 24.0206L13.3235 23.9075L8.72053 19.2376L8.61452 19.1L8.52339 18.9604L8.45458 18.8266L8.4025 18.6927L8.37275 18.5626L8.35601 18.4401V18.3232L8.37275 18.2044L8.40994 18.0876L8.46202 17.9744L8.52525 17.8689L8.60894 17.7614L8.70379 17.6596L8.81538 17.5578L8.94184 17.4616L9.08319 17.3655L9.32682 17.1996L9.57417 17.0356L9.82524 16.881L10.0837 16.732L10.3516 16.5869L10.6268 16.4549L10.9114 16.321L11.1959 16.1928L11.499 16.0703L11.7929 15.9572L12.4103 15.7441L13.0482 15.5462L13.7066 15.3746L13.8666 15.3312L14.0191 15.3048L14.1604 15.2935H14.298L14.4301 15.3105L14.5454 15.3426L14.657 15.3859L14.7611 15.4444L14.8522 15.5141L14.9303 15.599L14.9992 15.6951L15.0568 15.8082L15.1052 15.9364L15.1405 16.0741L15.1628 16.2249V16.3908L15.1777 23.1779L15.1758 23.3588ZM16.8924 16.551L16.9203 16.3738L16.9557 16.2136L16.9984 16.0646L17.0561 15.9364L17.1249 15.8233L17.1993 15.7272L17.283 15.6423L17.3778 15.5782L17.4838 15.5198L17.5991 15.4821L17.72 15.4557L17.8521 15.4387H18.0083L18.1552 15.4557L18.3133 15.4764L18.477 15.5141L18.7671 15.5726L19.0572 15.6423L19.3418 15.7158L19.6319 15.8026L19.922 15.8931L20.2121 15.9949L20.5023 16.1061L20.7924 16.2249L21.0807 16.3531L21.3559 16.4888L21.646 16.6321L21.9417 16.7829L22.522 17.1072L23.106 17.4654L23.2492 17.5521L23.3756 17.6426L23.4816 17.7444L23.5765 17.8406L23.6546 17.9462L23.7178 18.0536L23.7662 18.1667L23.7978 18.2836L23.8071 18.3967V18.5136L23.7848 18.6362L23.7476 18.7531L23.6899 18.8775L23.6174 19L23.5263 19.1169L23.4165 19.2395L18.6406 23.9904L18.503 24.1092L18.3598 24.194L18.2129 24.2581L18.0659 24.3015L17.9172 24.3128H17.7702L17.6326 24.2808L17.4969 24.2317L17.3704 24.1563L17.2476 24.0658L17.1435 23.9546L17.0486 23.8264L16.9631 23.6812L16.8999 23.521L16.8534 23.3456L16.8273 23.1571L16.8924 16.551ZM23.6713 37.0669L23.6546 37.1894L23.6193 37.3025L23.5709 37.4137L23.5021 37.5212L23.424 37.6268L23.3236 37.7342L23.212 37.8361L23.0855 37.9322L22.9442 38.0284L22.7005 38.1999L22.4532 38.3583L22.2002 38.5129L21.9417 38.6675L21.6739 38.8164L21.3987 38.9559L21.1197 39.0954L20.8352 39.2236L20.545 39.3462L20.2493 39.4687L19.6375 39.6874L19.0051 39.891L18.3468 40.0796L18.1887 40.121L18.0362 40.1531L17.893 40.1644H17.7516L17.6252 40.1531L17.5024 40.121L17.3927 40.0796L17.2923 40.0249L17.1974 39.9551L17.1175 39.8703L17.0449 39.7685L16.9873 39.661L16.9389 39.5328L16.9017 39.3952L16.8813 39.2444L16.8701 39.0785L16.7808 32.2914L16.792 32.1029L16.8292 31.937L16.8813 31.788L16.9557 31.6542L17.0449 31.5373L17.1491 31.4355L17.2718 31.3544L17.4039 31.2903L17.5396 31.2488L17.6884 31.2262H17.8409L17.999 31.2488L18.1571 31.2865L18.3207 31.3506L18.4788 31.4355L18.6369 31.5467L23.2864 36.1487L23.4017 36.2845L23.4928 36.424L23.5653 36.5559L23.6193 36.6898L23.6546 36.818L23.6713 36.9405V37.0669ZM28.1106 29.6859L28.0995 29.8405L28.079 30.0008L28.0418 30.1667L27.9898 30.4608L27.9265 30.753L27.8521 31.0471L27.7722 31.3412L27.6792 31.6259L27.5787 31.92L27.4746 32.2141L27.363 32.5082L27.2365 32.8023L27.1212 33.1021L26.978 33.3943L26.8367 33.6941L26.5205 34.2879L26.1727 34.8799L26.0872 35.0251L25.9979 35.1533L25.9031 35.2664L25.8082 35.3625L25.7022 35.4417L25.5981 35.5058L25.4865 35.5548L25.3768 35.5869H25.2596H25.1443L25.029 35.5662L24.9062 35.5284L24.7853 35.4757L24.67 35.4002L24.5492 35.3098L24.4264 35.1966L19.6821 30.4136L19.5668 30.2741L19.4812 30.129L19.4143 29.9857L19.3771 29.8367L19.3604 29.6859V29.5426L19.392 29.3975L19.4403 29.2636L19.5073 29.1297L19.5984 29.0129L19.7026 28.8997L19.829 28.8036L19.9722 28.7187L20.1303 28.6546L20.3033 28.6075L20.4892 28.5755H26.9985L27.1733 28.5962L27.337 28.6339L27.4783 28.6754L27.6048 28.7357L27.7164 28.7998L27.8168 28.8733L27.9005 28.9601L27.9693 29.0562L28.0214 29.1618L28.0641 29.2806L28.0902 29.4031L28.1069 29.537L28.1106 29.6859ZM28.2371 26.068L28.2204 26.2019L28.1943 26.3188L28.1478 26.4319L28.0939 26.5393L28.0214 26.6298L27.9358 26.709L27.841 26.7788L27.7312 26.8372L27.6048 26.8862L27.4672 26.9239L27.3202 26.9447H27.1566L20.4613 26.956L20.2754 26.939L20.1117 26.9013L19.9648 26.8429L19.8327 26.7675L19.723 26.677L19.6226 26.5695L19.5426 26.447L19.485 26.3131L19.4422 26.1698L19.4161 26.019V25.8644L19.4385 25.7042L19.4794 25.5439L19.5426 25.3837L19.6319 25.2177L19.7435 25.0632L24.3464 20.4084L24.4878 20.3028L24.6254 20.2104L24.7574 20.1425L24.8895 20.0879L25.016 20.0558L25.1368 20.0407H25.2615L25.3786 20.0615L25.4883 20.0935L25.5999 20.1463L25.7041 20.2161L25.8101 20.2971L25.9105 20.3989L26.0109 20.5102L26.1058 20.6384L26.2006 20.7835L26.3643 21.0286L26.528 21.285L26.6805 21.5414L26.8274 21.8091L26.9706 22.0806L27.1026 22.3596L27.2328 22.6424L27.3611 22.9309L27.482 23.2306L27.5918 23.5304L27.7034 23.8396L27.8038 24.1544L27.9898 24.8011L28.1571 25.4704L28.1999 25.6306L28.2259 25.7852L28.2371 25.9285V26.068Z" fill="#E68E38"/>
<path fill-rule="evenodd" clip-rule="evenodd" d="M8.98834 25.0632L9.04599 25.1555L9.24685 25.3422L9.44212 25.4968L9.6374 25.625L9.83826 25.7268L10.0428 25.7965L10.2586 25.8437L10.491 25.8663H10.7384L10.8593 25.8437L10.9597 25.8116L10.9969 25.7852L11.0285 25.7588L11.0546 25.7268L11.0713 25.6947L11.0825 25.657V25.6137L11.0769 25.5722L11.0601 25.5232L11.0341 25.4704L11.0025 25.4176L10.9597 25.3573L10.9076 25.2988L10.796 25.197L10.6919 25.1009L10.5803 25.016L10.4799 24.9406L10.3757 24.8765L10.2753 24.8181L10.1749 24.7709L10.0744 24.7276L9.87917 24.6691L9.68947 24.6371L9.4942 24.6314L9.29892 24.6465L9.17803 24.6748L9.08319 24.7106L9.01437 24.7653L8.97346 24.8294L8.95114 24.8991L8.95672 24.9783L8.98834 25.0632Z" fill="#E68E38"/>
<path fill-rule="evenodd" clip-rule="evenodd" d="M22.9107 24.7804L22.8475 24.7276L22.7693 24.6899L22.6633 24.6691L22.3899 24.6786L22.1426 24.7049L21.9157 24.754L21.7037 24.8237L21.5084 24.9199L21.3187 25.0368L21.1402 25.1876L20.9654 25.3629L20.8928 25.4647L20.85 25.5609L20.8352 25.6099V25.6514V25.6891L20.85 25.7268L20.8668 25.7588L20.8984 25.7909L20.93 25.8173L20.9765 25.8399L21.0286 25.855L21.0937 25.8701L21.1606 25.8814L21.2406 25.887L21.3931 25.8814L21.5363 25.8757L21.6665 25.8606L21.7948 25.8399L21.9101 25.8116L22.0254 25.7796L22.1259 25.7475L22.2263 25.706L22.4048 25.6099L22.5685 25.4911L22.7117 25.3573L22.8382 25.2027L22.907 25.1009L22.9423 25.0047L22.959 24.9199L22.9479 24.8445L22.9107 24.7804Z" fill="#E68E38"/>
<path fill-rule="evenodd" clip-rule="evenodd" d="M5.50869 0L6.02013 0.0527884L6.51669 0.1282L7.00024 0.213039L7.47076 0.314845L7.92827 0.437389L8.37276 0.571246L8.79865 0.72584L9.21524 0.897402L9.62067 1.08028L10.0112 1.282L10.385 1.5007L10.7496 1.73636L11.0973 1.98711L11.434 2.25482L11.7557 2.53761L12.0626 2.83738L12.3564 3.15222L12.641 3.48403L12.9051 3.83093L13.1636 4.19479L13.4053 4.57939L13.6322 4.9753L13.8442 5.3863L14.0488 5.81426L14.2348 6.26296L14.4078 6.72298L14.5714 7.20373L14.7183 7.69579L14.8504 8.20294L14.9713 8.73271L15.0773 9.2719L15.1721 9.83372L14.6235 9.76962L14.0916 9.6829L13.5746 9.58675L13.0743 9.47551L12.5833 9.35297L12.1146 9.2078L11.6609 9.04755L11.2238 8.87599L10.8016 8.68369L10.3962 8.48196L10.0056 8.25761L9.63183 8.02195L9.27289 7.7712L8.93069 7.50349L8.60337 7.2207L8.29279 6.92093L7.99708 6.60609L7.71811 6.27428L7.45402 5.93115L7.20667 5.56917L6.9742 5.18834L6.76404 4.79809L6.56319 4.38709L6.38465 3.96478L6.21541 3.52739L6.06849 3.06738L5.93086 2.59794L5.81555 2.11153L5.71513 1.6025L5.62958 1.08405L5.56262 0.550507L5.50869 0Z" fill="#6C9E28"/>
<path fill-rule="evenodd" clip-rule="evenodd" d="M23.5542 2.99763L23.5225 3.35583L23.4761 3.70838L23.4184 4.05151L23.3496 4.38144L23.2696 4.70382L23.1803 5.01867L23.0799 5.3222L22.9702 5.61631L22.8437 5.8991L22.7061 6.17813L22.5629 6.44584L22.4048 6.70224L22.2374 6.94733L22.0515 7.18865L21.8618 7.413L21.6628 7.63735L21.4452 7.84473L21.2183 8.04269L20.9821 8.23499L20.7347 8.41786L20.4762 8.59319L20.2066 8.75344L19.9276 8.90804L19.6319 9.05321L19.3325 9.19272L19.0163 9.32092L18.689 9.43215L18.3505 9.54527L18.0027 9.64142L17.6456 9.73191L17.27 9.8111L16.8906 9.88085L16.9333 9.49625L16.9798 9.11731L17.0431 8.75344L17.1175 8.39524L17.203 8.054L17.296 7.72219L17.402 7.40168L17.5136 7.0925L17.64 6.79273L17.7814 6.50428L17.9302 6.22526L18.0883 5.9632L18.2556 5.7068L18.436 5.46171L18.6313 5.23171L18.8303 5.01301L19.0423 4.79809L19.2692 4.60202L19.5054 4.41349L19.749 4.23815L20.0076 4.07225L20.2754 3.91765L20.5543 3.77814L20.8445 3.64428L21.1457 3.52174L21.4563 3.41428L21.7781 3.31813L22.111 3.23329L22.4532 3.15788L22.8121 3.09378L23.1748 3.04099L23.5542 2.99763Z" fill="#6C9E28"/>
<path fill-rule="evenodd" clip-rule="evenodd" d="M23.5542 2.99763L23.5225 3.35583L23.4761 3.70838L23.4184 4.05151L23.3496 4.38144L23.2696 4.70382L23.1803 5.01867L23.0799 5.3222L22.9702 5.61631L22.8437 5.8991L22.7061 6.17813L22.5629 6.44584L22.4048 6.70224L22.2374 6.94733L22.0515 7.18865L21.8618 7.413L21.6628 7.63735L21.4452 7.84473L21.2183 8.04269L20.9821 8.23499L20.7347 8.41786L20.4762 8.59319L20.2066 8.75344L19.9276 8.90804L19.6319 9.05321L19.3325 9.19272L19.0163 9.32092L18.689 9.43215L18.3505 9.54527L18.0027 9.64142L17.6456 9.73191L17.27 9.8111L16.8906 9.88085L16.9333 9.49625L16.9798 9.11731L17.0431 8.75344L17.1175 8.39524L17.203 8.054L17.296 7.72219L17.402 7.40168L17.5136 7.0925L17.64 6.79273L17.7814 6.50428L17.9302 6.22526L18.0883 5.9632L18.2556 5.7068L18.436 5.46171L18.6313 5.23171L18.8303 5.01301L19.0423 4.79809L19.2692 4.60202L19.5054 4.41349L19.749 4.23815L20.0076 4.07225L20.2754 3.91765L20.5543 3.77814L20.8445 3.64428L21.1457 3.52174L21.4563 3.41428L21.7781 3.31813L22.111 3.23329L22.4532 3.15788L22.8121 3.09378L23.1748 3.04099L23.5542 2.99763Z" stroke="white" stroke-width="0.03" stroke-miterlimit="10"/>
</g>
<defs>
<clipPath id="clip0">
<rect width="31.9939" height="50" fill="white"/>
</clipPath>
</defs>
</svg>
