<svg width="589" height="585" viewBox="0 0 589 585" fill="none" xmlns="http://www.w3.org/2000/svg">
<rect x="0.5" y="0.5" width="147" height="146" stroke="#E68E38"/>
<rect x="0.5" y="292.5" width="147" height="146" stroke="#E68E38"/>
<rect x="0.5" y="146.5" width="147" height="146" stroke="#E68E38"/>
<rect x="0.5" y="438.5" width="147" height="146" stroke="#E68E38"/>
<rect x="294.5" y="0.5" width="147" height="146" stroke="#E68E38"/>
<rect x="294.5" y="292.5" width="147" height="146" stroke="#E68E38"/>
<rect x="294.5" y="146.5" width="147" height="146" stroke="#E68E38"/>
<rect x="294.5" y="438.5" width="147" height="146" stroke="#E68E38"/>
<rect x="147.5" y="0.5" width="147" height="146" stroke="#E68E38"/>
<rect x="147.5" y="292.5" width="147" height="146" stroke="#E68E38"/>
<rect x="147.5" y="146.5" width="147" height="146" stroke="#E68E38"/>
<rect x="147.5" y="438.5" width="147" height="146" stroke="#E68E38"/>
<rect x="441.5" y="0.5" width="147" height="146" stroke="#E68E38"/>
<rect x="441.5" y="292.5" width="147" height="146" stroke="#E68E38"/>
<rect x="441.5" y="146.5" width="147" height="146" stroke="#E68E38"/>
<rect x="441.5" y="438.5" width="147" height="146" stroke="#E68E38"/>
<rect x="39.5" y="21.5" width="69" height="86" stroke="#E68E38"/>
<rect x="39.5" y="313.5" width="69" height="86" stroke="#E68E38"/>
<rect x="39.5" y="167.5" width="69" height="86" stroke="#E68E38"/>
<rect x="39.5" y="459.5" width="69" height="86" stroke="#E68E38"/>
<rect x="333.5" y="21.5" width="69" height="86" stroke="#E68E38"/>
<rect x="333.5" y="313.5" width="69" height="86" stroke="#E68E38"/>
<rect x="333.5" y="167.5" width="69" height="86" stroke="#E68E38"/>
<rect x="333.5" y="459.5" width="69" height="86" stroke="#E68E38"/>
<rect x="186.5" y="21.5" width="69" height="86" stroke="#E68E38"/>
<rect x="186.5" y="313.5" width="69" height="86" stroke="#E68E38"/>
<rect x="186.5" y="167.5" width="69" height="86" stroke="#E68E38"/>
<rect x="186.5" y="459.5" width="69" height="86" stroke="#E68E38"/>
<rect x="480.5" y="21.5" width="69" height="86" stroke="#E68E38"/>
<rect x="480.5" y="313.5" width="69" height="86" stroke="#E68E38"/>
<rect x="480.5" y="167.5" width="69" height="86" stroke="#E68E38"/>
<rect x="480.5" y="459.5" width="69" height="86" stroke="#E68E38"/>
</svg>
