<svg width="20" height="23" viewBox="0 0 20 23" fill="none" xmlns="http://www.w3.org/2000/svg">
<path d="M11.4531 18.4531H6.21875V22.75H3.23438V18.4531H0V15.9844H3.23438V13.8438H0V11.3906H3.23438V0H11.625C14.0625 0 15.9948 0.619792 17.4219 1.85938C18.849 3.09896 19.5625 4.77604 19.5625 6.89062C19.5625 9.10938 18.875 10.8229 17.5 12.0312C16.1354 13.2292 14.1927 13.8333 11.6719 13.8438H6.21875V15.9844H11.4531V18.4531ZM6.21875 11.3906H11.625C13.2396 11.3906 14.4688 11.0104 15.3125 10.25C16.1562 9.48958 16.5781 8.38021 16.5781 6.92188C16.5781 5.59896 16.1406 4.53125 15.2656 3.71875C14.3906 2.89583 13.2083 2.47917 11.7188 2.46875H6.21875V11.3906Z" fill="white"/>
</svg>
