<svg width="30" height="30" viewBox="0 0 30 30" fill="none" xmlns="http://www.w3.org/2000/svg">
<g clip-path="url(#clip0)">
<path d="M5.863 5.06092C5.73787 4.56692 5.2358 4.26805 4.7418 4.39305C4.2476 4.51832 3.94867 5.02032 4.07387 5.51445L10.1031 29.3036C10.2091 29.7217 10.5847 30.0001 10.9971 30.0001C11.0722 30.0001 11.1485 29.9908 11.2246 29.9715C11.7185 29.8464 12.0176 29.3443 11.8924 28.8503L5.863 5.06092Z" fill="white"/>
<path d="M25.932 11.7613C24.9494 8.1331 23.9659 4.50517 22.9831 0.876966C22.8765 0.484233 22.6898 0.0629665 21.9878 0.0208332C16.4619 -0.379367 12.8335 5.12363 7.3076 4.72337C6.87153 4.66963 6.59127 4.8967 6.69774 5.28943C7.6806 8.91757 8.65587 12.5479 9.6466 16.1738C9.8056 16.7558 10.2058 16.9762 10.642 17.03C16.1678 17.4302 19.7963 11.9272 25.3223 12.3275C25.7583 12.3811 26.0385 12.1541 25.932 11.7613ZM21.5956 1.3905C21.8667 2.3915 22.1381 3.39243 22.4092 4.39343C21.2468 4.4317 20.2209 4.66623 19.1337 5.07363C18.8627 4.07263 18.5913 3.07163 18.3203 2.0707C19.4073 1.66343 20.4332 1.4287 21.5956 1.3905ZM10.2087 12.6132C9.9002 11.4759 9.59227 10.3384 9.28413 9.20103C10.506 9.16563 11.5902 8.90083 12.7243 8.45257C12.4529 7.45157 12.1817 6.45056 11.9107 5.44957C13.0193 4.95403 14.0649 4.36077 15.1121 3.74803C15.3832 4.74897 15.6547 5.74997 15.9258 6.75097C14.8785 7.36363 13.8328 7.9571 12.7243 8.45257C13.0325 9.5899 13.3405 10.7274 13.6487 11.8647C12.5145 12.3129 11.4305 12.5777 10.2087 12.6132ZM14.4743 14.9116C14.199 13.896 13.9239 12.8803 13.6487 11.8646C14.7495 11.3728 15.7878 10.7845 16.8275 10.1761C17.1027 11.1918 17.3779 12.2075 17.6531 13.2232C16.6135 13.8317 15.5751 14.4198 14.4743 14.9116ZM16.85 10.163C16.5421 9.02563 16.2339 7.88823 15.9258 6.75083C16.9729 6.1395 18.0193 5.5545 19.1337 5.0737C19.442 6.21103 19.7501 7.34843 20.0582 8.48577C18.944 8.9667 17.8972 9.55163 16.85 10.163ZM20.903 11.5251C20.6277 10.5095 20.3526 9.49376 20.0773 8.47803C21.1581 8.07503 22.1787 7.8433 23.3335 7.80563C23.6088 8.82136 23.884 9.83703 24.1593 10.8526C23.0044 10.8904 21.9836 11.122 20.903 11.5251Z" fill="white"/>
</g>
<defs>
<clipPath id="clip0">
<rect width="30" height="30" fill="white"/>
</clipPath>
</defs>
</svg>
