<svg width="257" height="510" viewBox="0 0 257 510" fill="none" xmlns="http://www.w3.org/2000/svg">
<path d="M51.6035 352.217C51.6035 320.316 55.4772 294.909 63.2246 275.996C70.972 257.083 85.0996 238.512 105.607 220.283C126.343 201.826 140.129 186.901 146.965 175.508C153.801 163.887 157.219 151.696 157.219 138.936C157.219 100.426 139.445 81.1719 103.898 81.1719C87.0365 81.1719 73.4785 86.4128 63.2246 96.8945C53.1986 107.148 47.9577 121.39 47.502 139.619H-51.6191C-51.1634 96.097 -37.1497 62.0312 -9.57812 37.4219C18.2214 12.8125 56.0469 0.507812 103.898 0.507812C152.206 0.507812 189.689 12.2428 216.35 35.7129C243.01 58.9551 256.34 91.8815 256.34 134.492C256.34 153.861 252.01 172.204 243.352 189.521C234.693 206.611 219.54 225.638 197.893 246.602L170.207 272.92C152.889 289.554 142.977 309.036 140.471 331.367L139.104 352.217H51.6035ZM41.6914 457.148C41.6914 441.882 46.8184 429.349 57.0723 419.551C67.554 409.525 80.8841 404.512 97.0625 404.512C113.241 404.512 126.457 409.525 136.711 419.551C147.193 429.349 152.434 441.882 152.434 457.148C152.434 472.188 147.307 484.606 137.053 494.404C127.027 504.202 113.697 509.102 97.0625 509.102C80.4284 509.102 66.9844 504.202 56.7305 494.404C46.7044 484.606 41.6914 472.188 41.6914 457.148Z" fill="black" fill-opacity="0.02"/>
</svg>
