<svg width="100" height="100" viewBox="0 0 100 100" fill="none" xmlns="http://www.w3.org/2000/svg">
<g clip-path="url(#clip0)">
<path d="M99.3164 43.6717L38.3789 8.49128C36.6292 7.48452 34.5517 7.21252 32.6018 7.73488C30.6519 8.25725 28.9886 9.53138 27.9766 11.278L20.9609 23.4288L16.2906 31.5171C15.2833 33.2674 15.0112 35.3457 15.534 37.2964C16.0569 39.247 17.332 40.9107 19.0797 41.9225L39.9727 53.9842L36.7234 59.5249C36.2912 60.2582 35.6755 60.8664 34.9369 61.2896C34.1983 61.7127 33.3622 61.9363 32.5109 61.9382H20.3125V52.6413C20.3125 52.2787 20.1685 51.9309 19.9121 51.6745C19.6557 51.4181 19.3079 51.2741 18.9453 51.2741H11.5234V49.51C11.5216 47.9048 10.8831 46.3658 9.74801 45.2308C8.61293 44.0957 7.07398 43.4572 5.46875 43.4553H1.36719C1.18762 43.4552 1.00979 43.4905 0.843866 43.5592C0.677945 43.6279 0.527187 43.7286 0.400211 43.8556C0.273236 43.9825 0.172533 44.1333 0.103862 44.2992C0.0351908 44.4651 -0.000102476 44.643 2.2349e-07 44.8225V91.1639C-0.000102476 91.3435 0.0351908 91.5213 0.103862 91.6873C0.172533 91.8532 0.273236 92.0039 0.400211 92.1309C0.527187 92.2579 0.677945 92.3586 0.843866 92.4273C1.00979 92.4959 1.18762 92.5312 1.36719 92.5311H5.46875C7.07398 92.5293 8.61293 91.8908 9.74801 90.7557C10.8831 89.6206 11.5216 88.0817 11.5234 86.4764V82.1335H18.9453C19.3079 82.1335 19.6557 81.9894 19.9121 81.733C20.1685 81.4766 20.3125 81.1289 20.3125 80.7663V74.0475H32.5109C35.4727 74.0412 38.3817 73.2639 40.9519 71.792C43.522 70.3201 45.6645 68.2043 47.1687 65.653L50.4602 60.0405L61.9125 66.6522C63.0656 67.3213 64.3747 67.6743 65.7078 67.6757C66.3779 67.6754 67.0451 67.5871 67.6922 67.4132C68.9358 67.0824 70.0745 66.44 71.0008 65.5468C72.4987 66.2417 74.1299 66.6027 75.7812 66.6046C76.7933 66.6039 77.8008 66.4704 78.7781 66.2077C81.2708 65.5452 83.4658 64.0582 85.0055 61.9889L87.8055 63.6053C87.961 63.6953 88.1327 63.7536 88.3107 63.7771C88.4888 63.8006 88.6698 63.7888 88.8433 63.7423C89.0168 63.6957 89.1794 63.6155 89.3219 63.5061C89.4643 63.3966 89.5838 63.2602 89.6734 63.1046L99.8141 45.5413C99.9041 45.3858 99.9627 45.2142 99.9865 45.0361C100.01 44.8581 99.9986 44.677 99.9524 44.5034C99.9062 44.3298 99.8263 44.167 99.7171 44.0243C99.608 43.8816 99.4718 43.7618 99.3164 43.6717V43.6717ZM8.78906 86.4764C8.78824 87.3568 8.43815 88.2008 7.81565 88.8233C7.19315 89.4458 6.3491 89.7959 5.46875 89.7968H2.73438V46.1897H5.46875C6.3491 46.1905 7.19315 46.5406 7.81565 47.1631C8.43815 47.7856 8.78824 48.6297 8.78906 49.51V86.4764ZM17.5781 79.3991H11.5234V54.0085H17.5781V79.3991ZM44.8094 64.2694C43.5475 66.4104 41.7499 68.1859 39.5935 69.4211C37.437 70.6563 34.9961 71.3086 32.5109 71.3139H20.3125V64.6733H32.5109C33.8388 64.6704 35.143 64.3218 36.2951 63.6618C37.4473 63.0018 38.4078 62.0532 39.082 60.9092L42.3438 55.353L48.0953 58.6733L44.8094 64.2694ZM63.2812 64.2842L20.4469 39.5546C19.3264 38.9061 18.5089 37.8396 18.1737 36.589C17.8386 35.3385 18.0133 34.0061 18.6594 32.8842L22.6437 25.9803L61.8992 48.6444L73.9344 55.5928L69.9492 62.4999L69.9437 62.5085C69.8398 62.6849 69.7247 62.8545 69.5992 63.0163V63.0218C68.8782 63.9625 67.84 64.6092 66.6777 64.8414C65.5155 65.0737 64.3084 64.8757 63.2812 64.2842V64.2842ZM78.0758 63.5663C76.285 64.0505 74.3864 63.9506 72.6562 63.2811L76.307 56.9585L82.6297 60.6085C81.4651 62.0545 79.869 63.0908 78.0742 63.5663H78.0758ZM87.9938 60.5507L79.1523 55.446L76.4844 53.9061L46.2992 36.4796L24.0125 23.6124L30.3445 12.6452C30.9933 11.5249 32.0599 10.7078 33.3104 10.373C34.5609 10.0381 35.8931 10.213 37.0148 10.8592L96.7648 45.3569L87.9938 60.5507Z" fill="black"/>
<path d="M82.1516 53.1194C82.9477 53.5819 83.8519 53.8258 84.7727 53.8265C85.2349 53.8261 85.695 53.7651 86.1414 53.6452C87.3164 53.3305 88.3459 52.6181 89.0546 51.6294C89.7632 50.6408 90.1071 49.437 90.0277 48.2231C89.9483 47.0093 89.4505 45.8606 88.6191 44.9727C87.7876 44.0848 86.6741 43.5126 85.4681 43.3537C84.2621 43.1947 83.0383 43.4589 82.0052 44.1011C80.9722 44.7433 80.1937 45.7239 79.8026 46.8757C79.4114 48.0275 79.4317 49.2793 79.8601 50.4178C80.2884 51.5563 81.0982 52.5111 82.1516 53.1194V53.1194ZM82.5961 47.3046C82.7615 47.0178 82.982 46.7667 83.245 46.5655C83.5079 46.3644 83.8081 46.2173 84.1281 46.1327C84.3422 46.0754 84.5628 46.0463 84.7844 46.046C85.3404 46.0461 85.8808 46.2296 86.3219 46.5682C86.763 46.9067 87.08 47.3813 87.2239 47.9184C87.3677 48.4555 87.3303 49.025 87.1174 49.5387C86.9046 50.0524 86.5282 50.4814 86.0466 50.7594C85.565 51.0373 85.0052 51.1486 84.454 51.0759C83.9027 51.0032 83.3908 50.7507 82.9977 50.3575C82.6047 49.9642 82.3523 49.4523 82.2798 48.901C82.2073 48.3498 82.3188 47.79 82.5969 47.3085L82.5961 47.3046Z" fill="black"/>
<path d="M35.5469 39.2735L24.3437 32.8039C24.1882 32.7128 24.0161 32.6532 23.8375 32.6288C23.6589 32.6044 23.4771 32.6155 23.3028 32.6616C23.1285 32.7077 22.965 32.7878 22.8218 32.8973C22.6786 33.0069 22.5584 33.1436 22.4683 33.2998C22.3781 33.4559 22.3197 33.6284 22.2965 33.8072C22.2733 33.986 22.2856 34.1676 22.3329 34.3416C22.3801 34.5156 22.4613 34.6786 22.5718 34.8211C22.6822 34.9636 22.8198 35.0828 22.9765 35.1719L34.1828 41.6407C34.4955 41.8042 34.8594 41.8404 35.1982 41.7418C35.5371 41.6433 35.8247 41.4175 36.0009 41.1117C36.177 40.8059 36.2282 40.4439 36.1436 40.1013C36.0589 39.7587 35.8451 39.4621 35.5469 39.2735V39.2735Z" fill="black"/>
</g>
<defs>
<clipPath id="clip0">
<rect width="100" height="100" fill="white"/>
</clipPath>
</defs>
</svg>
