<svg width="120" height="120" viewBox="0 0 120 120" fill="none" xmlns="http://www.w3.org/2000/svg">
<g clip-path="url(#clip0)">
<path d="M119.56 37.2084C118.68 33.9221 116.572 31.1751 113.626 29.4741L98.7162 20.8661C97.5954 20.2192 96.1621 20.6029 95.5147 21.7239C94.8674 22.8448 95.2515 24.278 96.3725 24.9253L111.282 33.5333C113.144 34.6085 114.476 36.3443 115.033 38.4212C115.589 40.4984 115.304 42.6677 114.228 44.5299L102.396 65.0235V48.3135C102.396 44.2063 99.0548 40.8647 94.9476 40.8647C93.9724 40.8647 93.0406 41.0531 92.1861 41.3953V35.0313C92.1861 30.9241 88.8445 27.5825 84.7372 27.5825C83.7192 27.5825 82.7484 27.7876 81.8637 28.1591C81.2506 24.6649 78.1938 22.0014 74.5267 22.0014C70.8595 22.0014 67.803 24.6649 67.1899 28.1591C66.3051 27.7878 65.3342 27.5825 64.3163 27.5825C60.2091 27.5825 56.8675 30.9241 56.8675 35.0313L56.867 63.393L54.2658 59.3324C52.2205 56.1392 48.2715 54.7217 44.6627 55.8865C40.3502 57.278 37.9477 61.7803 39.1931 66.1372L39.3881 66.819C40.4116 70.3996 41.8072 73.8518 43.5335 77.1221L27.3863 67.7995C23.542 65.5799 22.2202 60.6467 24.4396 56.8024L52.2013 8.71872C53.2766 6.85645 55.0125 5.52432 57.0894 4.96771C59.1664 4.41086 61.3359 4.69678 63.1982 5.77205L78.1085 14.3803C79.2297 15.0278 80.6628 14.6437 81.3099 13.5225C81.9572 12.4015 81.5731 10.9684 80.4521 10.3211L65.5418 1.71285C62.5951 0.0118269 59.1624 -0.440498 55.8761 0.440246C52.5899 1.32076 49.8429 3.42863 48.1419 6.37507L46.6609 8.93996C40.9344 7.28605 35.0134 6.38515 29.0313 6.26468C29.0151 6.26445 28.9992 6.26421 28.9832 6.26421C27.7109 6.26421 26.6668 7.28276 26.641 8.56076C26.615 9.85469 27.6429 10.925 28.9371 10.951C34.1217 11.0553 39.2564 11.7891 44.2416 13.1306L28.7196 40.0153C25.3513 38.8573 21.8367 38.2368 18.2456 38.1728C16.9486 38.1468 15.8836 39.1801 15.8604 40.474C15.8372 41.7684 16.8677 42.8359 18.1619 42.8591C20.9518 42.909 23.6873 43.3478 26.3248 44.1631L20.3809 54.4586C16.8691 60.541 18.9606 68.3468 25.0431 71.8585L49.2823 85.8529C52.0794 89.322 55.3045 92.4515 58.8936 95.1427V117.655C58.8936 118.949 59.9428 119.999 61.2372 119.999C62.5316 119.999 63.5809 118.949 63.5809 117.655V93.9547C63.5809 93.1981 63.2155 92.4878 62.6001 92.0479C53.584 85.6038 46.9412 76.1863 43.8952 65.5307L43.7002 64.8489C43.1532 62.9355 44.2083 60.9582 46.1019 60.3474C47.6863 59.8365 49.421 60.4585 50.3191 61.8605L57.2376 72.6607C57.7989 73.5368 58.8708 73.938 59.8695 73.6458C60.8683 73.3535 61.5546 72.4374 61.5546 71.3966V61.6897C61.5548 61.6742 61.555 61.6587 61.555 61.6432V35.0316C61.555 33.5089 62.7939 32.2701 64.3165 32.2701C65.8392 32.2701 67.0781 33.5089 67.0781 35.0316V57.0415C67.0781 58.3357 68.1273 59.3851 69.4217 59.3851C70.7161 59.3851 71.7654 58.3357 71.7654 57.0415V29.4502C71.7654 27.9275 73.0042 26.6887 74.5269 26.6887C76.0498 26.6887 77.2884 27.9275 77.2884 29.4502V57.0415C77.2884 58.3357 78.3377 59.3851 79.6321 59.3851C80.9265 59.3851 81.9757 58.3357 81.9757 57.0415V35.0316C81.9757 33.5089 83.2146 32.2701 84.7372 32.2701C86.2599 32.2701 87.4988 33.5089 87.4988 35.0316V57.0415C87.4988 58.3357 88.548 59.3851 89.8424 59.3851C91.1368 59.3851 92.1861 58.3357 92.1861 57.0415V48.314C92.1861 46.7913 93.4249 45.5525 94.9476 45.5525C96.4703 45.5525 97.7091 46.7913 97.7091 48.314V67.5249C97.7091 76.7305 93.9705 85.7381 87.4519 92.2379C87.011 92.6776 86.7631 93.2748 86.7631 93.8975V117.656C86.7631 118.95 87.8123 119.999 89.1067 119.999C90.4011 119.999 91.4504 118.95 91.4504 117.656V94.8535C96.5443 89.5214 99.9817 83.0096 101.504 75.944L118.288 46.874C119.989 43.9274 120.441 40.4946 119.56 37.2084Z" fill="black"/>
<path d="M2.34577 15.9655C2.64482 15.9655 2.94903 15.9079 3.24245 15.786C7.95647 13.8319 12.9123 12.4484 17.9725 11.6738C19.2522 11.4781 20.1306 10.2822 19.9346 9.00278C19.7389 7.72315 18.5434 6.84616 17.2636 7.04068C11.8308 7.87197 6.5095 9.35761 1.44745 11.4564C0.251719 11.952 -0.315679 13.3231 0.180003 14.5188C0.553815 15.4211 1.42612 15.9655 2.34577 15.9655Z" fill="black"/>
<path d="M2.34553 31.2476C2.6427 31.2476 2.9448 31.1907 3.23659 31.0704C10.5511 28.0603 18.5835 26.9815 26.4654 27.9506C27.7505 28.1106 28.9197 27.1955 29.0777 25.9107C29.2356 24.6261 28.3223 23.4564 27.0375 23.2984C18.3578 22.2304 9.5103 23.4198 1.4526 26.7361C0.255698 27.2287 -0.315449 28.5981 0.177186 29.7953C0.549826 30.7004 1.42377 31.2476 2.34553 31.2476Z" fill="black"/>
<path d="M5.82678 40.2706C4.24412 40.8539 2.69239 41.5619 1.21448 42.3749C0.0803911 42.9988 -0.333263 44.4237 0.290616 45.5578C0.717395 46.3338 1.51916 46.7725 2.34623 46.7725C2.72801 46.7725 3.11565 46.6788 3.47376 46.4819C4.74707 45.7816 6.08412 45.1716 7.44789 44.6689C8.66237 44.2212 9.28414 42.8739 8.83626 41.6592C8.38863 40.4449 7.04103 39.8227 5.82678 40.2706Z" fill="black"/>
<path d="M88.4129 19.9677C89.0293 19.9677 89.6316 19.7169 90.0699 19.281C90.5058 18.845 90.7566 18.2403 90.7566 17.6239C90.7566 17.0052 90.5058 16.4005 90.0699 15.9645C89.6316 15.5288 89.029 15.2778 88.4129 15.2778C87.7965 15.2778 87.1918 15.5286 86.7558 15.9645C86.3176 16.4028 86.0691 17.0052 86.0691 17.6239C86.0691 18.2403 86.3176 18.8427 86.7558 19.281C87.1918 19.7169 87.7939 19.9677 88.4129 19.9677Z" fill="black"/>
</g>
<defs>
<clipPath id="clip0">
<rect width="120" height="120" fill="white"/>
</clipPath>
</defs>
</svg>
