<svg width="108" height="108" viewBox="0 0 108 108" fill="none" xmlns="http://www.w3.org/2000/svg">
<path d="M92.1839 15.8161C81.9847 5.61706 68.4239 0 54 0C39.5761 0 26.0153 5.61706 15.8161 15.8161C5.61684 26.0151 0 39.5761 0 54C0 68.4239 5.61706 81.9847 15.8161 92.1839C26.0151 102.383 39.5761 108 54 108C68.4239 108 81.9847 102.383 92.1839 92.1839C102.383 81.9849 108 68.4239 108 54C108 39.5761 102.383 26.0153 92.1839 15.8161ZM54 104.836C25.9689 104.836 3.16406 82.0311 3.16406 54C3.16406 25.9689 25.9689 3.16406 54 3.16406C82.0311 3.16406 104.836 25.9689 104.836 54C104.836 82.0311 82.0311 104.836 54 104.836Z" fill="black"/>
<path d="M87.5148 29.7891C87.2433 29.4136 86.8206 29.1761 86.3589 29.1392C85.8984 29.1027 85.4419 29.2698 85.1143 29.5976L29.5977 85.114C29.2701 85.4418 29.1024 85.8966 29.1393 86.3585C29.1762 86.8203 29.4139 87.243 29.7892 87.5145C36.8524 92.6228 45.2256 95.3232 54.0029 95.3236C65.0577 95.3236 75.4382 91.0302 83.2342 83.2341C90.2167 76.2515 94.4688 66.9761 95.2073 57.1165C95.9375 47.3632 93.2057 37.6581 87.5148 29.7891ZM80.9968 80.9969C73.7982 88.1956 64.2117 92.16 54.0031 92.1595C46.5237 92.1591 39.3639 90.0375 33.18 86.0063L86.0068 33.1793C95.8685 48.2774 93.8868 68.1072 80.9968 80.9969Z" fill="black"/>
<path d="M78.8604 21.641C78.8235 21.1792 78.5858 20.7565 78.2105 20.4851C70.7936 15.1207 61.6378 12.3595 52.4241 12.7069C43.1633 13.0573 34.1997 16.5471 27.1846 22.5335C26.5199 23.1005 26.441 24.0993 27.008 24.7637C27.575 25.4284 28.5736 25.5073 29.2382 24.9403C42.1968 13.8825 60.684 12.7679 74.8201 21.9928L21.9932 74.82C12.7678 60.6836 13.8826 42.1962 24.9404 29.2383C25.5074 28.5739 25.4285 27.5751 24.7638 27.0081C24.0994 26.4411 23.1006 26.5202 22.5336 27.1846C16.5472 34.1996 13.0574 43.1632 12.7071 52.4239C12.3588 61.6356 15.121 70.7934 20.4854 78.2104C20.7569 78.5859 21.1796 78.8234 21.6413 78.8603C21.6835 78.8637 21.7253 78.8652 21.7675 78.8652C22.1851 78.8652 22.5882 78.6996 22.8861 78.4019L78.4023 22.8855C78.7297 22.5577 78.8973 22.1029 78.8604 21.641Z" fill="black"/>
</svg>
