<svg width="127" height="127" viewBox="0 0 127 127" fill="none" xmlns="http://www.w3.org/2000/svg">
<g clip-path="url(#clip0)">
<path d="M121.295 19.1821H5.70508C4.19256 19.184 2.74252 19.7856 1.67301 20.8551C0.603497 21.9246 0.00183797 23.3747 0 24.8872L0 91.6952C0.00183797 93.2077 0.603497 94.6577 1.67301 95.7272C2.74252 96.7967 4.19256 97.3984 5.70508 97.4002H9.92188V102.113C9.92371 103.626 10.5254 105.076 11.5949 106.145C12.6644 107.215 14.1144 107.816 15.627 107.818H32.5765C34.089 107.816 35.539 107.215 36.6086 106.145C37.6781 105.076 38.2797 103.626 38.2816 102.113V97.4002H88.7184V102.113C88.7203 103.626 89.3219 105.076 90.3914 106.145C91.4609 107.215 92.911 107.816 94.4235 107.818H111.373C112.886 107.816 114.336 107.215 115.405 106.145C116.475 105.076 117.076 103.626 117.078 102.113V97.4002H121.295C122.807 97.3984 124.257 96.7967 125.327 95.7272C126.397 94.6577 126.998 93.2077 127 91.6952V24.8872C126.998 23.3747 126.397 21.9246 125.327 20.8551C124.257 19.7856 122.807 19.184 121.295 19.1821V19.1821ZM34.8089 102.113C34.8081 102.705 34.5727 103.272 34.1542 103.691C33.7357 104.109 33.1683 104.345 32.5765 104.346H15.627C15.0351 104.345 14.4678 104.109 14.0493 103.691C13.6308 103.272 13.3953 102.705 13.3945 102.113V97.4002H34.8089V102.113ZM113.605 102.113C113.605 102.705 113.369 103.272 112.951 103.691C112.532 104.109 111.965 104.345 111.373 104.346H94.4235C93.8317 104.345 93.2643 104.109 92.8458 103.691C92.4273 103.272 92.1919 102.705 92.1911 102.113V97.4002H113.605V102.113ZM123.527 91.6952C123.527 92.287 123.291 92.8544 122.873 93.2728C122.454 93.6913 121.887 93.9268 121.295 93.9276H5.70508C5.11324 93.9268 4.54588 93.6913 4.12739 93.2728C3.7089 92.8544 3.47344 92.287 3.47266 91.6952V24.8872C3.47344 24.2954 3.7089 23.728 4.12739 23.3095C4.54588 22.891 5.11324 22.6556 5.70508 22.6548H121.295C121.887 22.6556 122.454 22.891 122.873 23.3095C123.291 23.728 123.527 24.2954 123.527 24.8872V91.6952Z" fill="black"/>
<path d="M110.671 29.104H106.874C105.189 29.125 103.579 29.8093 102.395 31.0088C101.21 32.2083 100.546 33.8262 100.546 35.512C100.546 37.1979 101.21 38.8158 102.395 40.0153C103.579 41.2147 105.189 41.8991 106.874 41.9201H110.671C112.356 41.8991 113.966 41.2147 115.15 40.0153C116.335 38.8158 116.999 37.1979 116.999 35.512C116.999 33.8262 116.335 32.2083 115.15 31.0088C113.966 29.8093 112.356 29.125 110.671 29.104ZM110.671 38.4474H106.874C106.096 38.4466 105.35 38.1372 104.8 37.587C104.25 37.0367 103.94 36.2907 103.94 35.5125C103.94 34.7343 104.25 33.9882 104.8 33.4378C105.35 32.8874 106.096 32.5777 106.874 32.5767H110.671C111.44 32.5908 112.173 32.9063 112.712 33.4552C113.251 34.0042 113.552 34.7427 113.552 35.512C113.552 36.2813 113.251 37.0199 112.712 37.5689C112.173 38.1178 111.44 38.4333 110.671 38.4474V38.4474Z" fill="black"/>
<path d="M110.671 48.377H106.874C105.175 48.377 103.545 49.052 102.344 50.2537C101.142 51.4553 100.467 53.0851 100.467 54.7845C100.467 56.4839 101.142 58.1137 102.344 59.3153C103.545 60.517 105.175 61.192 106.874 61.192H110.671C112.37 61.192 114 60.517 115.201 59.3153C116.403 58.1137 117.078 56.4839 117.078 54.7845C117.078 53.0851 116.403 51.4553 115.201 50.2537C114 49.052 112.37 48.377 110.671 48.377V48.377ZM110.671 57.7194H106.874C106.096 57.7194 105.35 57.4102 104.799 56.8598C104.249 56.3094 103.94 55.5629 103.94 54.7845C103.94 54.0061 104.249 53.2596 104.799 52.7092C105.35 52.1588 106.096 51.8496 106.874 51.8496H110.671C111.449 51.8496 112.195 52.1588 112.746 52.7092C113.296 53.2596 113.605 54.0061 113.605 54.7845C113.605 55.5629 113.296 56.3094 112.746 56.8598C112.195 57.4102 111.449 57.7194 110.671 57.7194V57.7194Z" fill="black"/>
<path d="M92.2734 29.104H11.6582C11.1978 29.1043 10.7563 29.2873 10.4307 29.6129C10.1052 29.9384 9.92214 30.3799 9.92188 30.8403V85.742C9.92214 86.2025 10.1052 86.6439 10.4307 86.9695C10.7563 87.2951 11.1978 87.4781 11.6582 87.4784H92.2734C92.7339 87.4781 93.1753 87.2951 93.5009 86.9695C93.8265 86.6439 94.0095 86.2025 94.0098 85.742V30.8403C94.0095 30.3799 93.8265 29.9384 93.5009 29.6129C93.1753 29.2873 92.7339 29.1043 92.2734 29.104V29.104ZM90.5371 84.0057H13.3945V32.5767H90.5371V84.0057Z" fill="black"/>
<path d="M44.2139 67.7793C44.4444 67.7795 44.6727 67.7337 44.8853 67.6446C45.0979 67.5555 45.2906 67.4249 45.4521 67.2604C50.8367 61.7875 59.6225 52.9153 60.6981 51.9728C61.0041 51.7633 61.235 51.4613 61.3569 51.111C61.4789 50.7608 61.4855 50.3807 61.3758 50.0265C61.2661 49.6722 61.0459 49.3624 60.7473 49.1423C60.4488 48.9223 60.0877 48.8036 59.7168 48.8037C58.7425 48.8037 58.7425 48.8037 42.9766 64.8246C42.7369 65.0686 42.5745 65.378 42.51 65.714C42.4454 66.0499 42.4814 66.3975 42.6135 66.713C42.7457 67.0286 42.968 67.2981 43.2527 67.4878C43.5374 67.6775 43.8718 67.7789 44.2139 67.7793V67.7793Z" fill="black"/>
<path d="M27.5412 64.5915C27.7716 64.5919 27.9999 64.5463 28.2125 64.4573C28.4251 64.3684 28.6178 64.2379 28.7794 64.0736C31.883 60.9184 36.9669 55.7848 37.7021 55.1211C37.9945 54.904 38.2113 54.6004 38.3217 54.2534C38.4321 53.9063 38.4306 53.5333 38.3173 53.1872C38.2041 52.8411 37.9849 52.5393 37.6908 52.3246C37.3966 52.1099 37.0424 51.9931 36.6782 51.9907C35.8041 51.9907 35.8041 51.9907 26.3039 61.6447C26.0664 61.889 25.906 62.1977 25.8426 62.5325C25.7793 62.8672 25.8159 63.2132 25.9478 63.5274C26.0797 63.8415 26.3011 64.1099 26.5844 64.2991C26.8677 64.4883 27.2005 64.59 27.5412 64.5915V64.5915Z" fill="black"/>
<path d="M67.2534 64.5915C67.4839 64.5919 67.7121 64.5463 67.9247 64.4573C68.1374 64.3684 68.3301 64.2379 68.4917 64.0736C71.5952 60.9184 76.6792 55.7848 77.4144 55.1211C77.7068 54.904 77.9235 54.6004 78.0339 54.2534C78.1443 53.9063 78.1428 53.5333 78.0296 53.1872C77.9164 52.8411 77.6972 52.5393 77.403 52.3246C77.1089 52.1099 76.7547 51.9931 76.3905 51.9907C75.5164 51.9907 75.5164 51.9907 66.0162 61.6447C65.7786 61.889 65.6182 62.1977 65.5549 62.5325C65.4916 62.8672 65.5281 63.2132 65.66 63.5274C65.7919 63.8415 66.0133 64.1099 66.2967 64.2991C66.58 64.4883 66.9127 64.59 67.2534 64.5915V64.5915Z" fill="black"/>
<path d="M115.342 67.6504H102.203C101.743 67.6504 101.301 67.8333 100.976 68.159C100.65 68.4846 100.467 68.9262 100.467 69.3867C100.467 69.8472 100.65 70.2889 100.976 70.6145C101.301 70.9401 101.743 71.123 102.203 71.123H115.342C115.802 71.123 116.244 70.9401 116.57 70.6145C116.895 70.2889 117.078 69.8472 117.078 69.3867C117.078 68.9262 116.895 68.4846 116.57 68.159C116.244 67.8333 115.802 67.6504 115.342 67.6504V67.6504Z" fill="black"/>
<path d="M115.342 77.5791H102.203C101.975 77.5791 101.749 77.624 101.539 77.7113C101.328 77.7985 101.137 77.9264 100.976 78.0877C100.814 78.2489 100.686 78.4403 100.599 78.651C100.512 78.8616 100.467 79.0874 100.467 79.3154C100.467 79.5434 100.512 79.7692 100.599 79.9799C100.686 80.1906 100.814 80.382 100.976 80.5432C101.137 80.7044 101.328 80.8323 101.539 80.9196C101.749 81.0068 101.975 81.0518 102.203 81.0518H115.342C115.802 81.0518 116.244 80.8688 116.57 80.5432C116.895 80.2176 117.078 79.7759 117.078 79.3154C117.078 78.8549 116.895 78.4133 116.57 78.0877C116.244 77.762 115.802 77.5791 115.342 77.5791V77.5791Z" fill="black"/>
</g>
<defs>
<clipPath id="clip0">
<rect width="127" height="127" fill="white"/>
</clipPath>
</defs>
</svg>
