<svg width="120" height="120" viewBox="0 0 120 120" fill="none" xmlns="http://www.w3.org/2000/svg">
<path d="M102.641 17.4912H99.0054V9.03C99.0054 4.05094 94.9545 0 89.9752 0H18.7404C13.7613 0 9.71039 4.05094 9.71039 9.03V31.5663C9.71039 36.5454 13.7613 40.5963 18.7404 40.5963H89.9752C94.9545 40.5963 99.0054 36.5454 99.0054 31.5663V22.1787H102.641C104.274 22.1787 105.602 23.5031 105.602 25.1316V48.7758C105.602 50.4038 104.274 51.7284 102.641 51.7284H54.3579C53.0637 51.7284 52.0141 52.778 52.0141 54.0722V66.4648H45.4758C44.1816 66.4648 43.132 67.5143 43.132 68.8085V112.658C43.132 116.706 46.4259 120 50.4743 120H58.241C62.2894 120 65.5833 116.706 65.5833 112.658V68.8085C65.5833 67.5143 64.5337 66.4648 63.2395 66.4648H56.7014V56.4159H102.641C106.858 56.4159 110.29 52.9887 110.29 48.7758V25.1316C110.29 20.9187 106.858 17.4912 102.641 17.4912ZM94.3179 31.5666C94.3179 33.9612 92.3695 35.9091 89.9752 35.9091H18.7404C16.3458 35.9091 14.3979 33.9609 14.3979 31.5666V9.03C14.3979 6.63562 16.3458 4.6875 18.7404 4.6875H89.9752C92.3698 4.6875 94.3179 6.63562 94.3179 9.03V31.5666ZM60.8958 112.658C60.8958 114.122 59.7049 115.312 58.241 115.312H50.4743C49.0104 115.312 47.8195 114.122 47.8195 112.658V71.1523H60.8958V112.658Z" fill="black"/>
</svg>
