<svg width="120" height="120" viewBox="0 0 120 120" fill="none" xmlns="http://www.w3.org/2000/svg">
<path d="M90.3572 40.6519L73.8557 19.7868C71.047 16.2507 66.9843 13.9184 62.5203 13.2664V2.50783C62.5203 1.12852 61.3918 0 60.0125 0C58.6332 0 57.5047 1.12852 57.5047 2.50783V13.2664C53.0408 13.8934 48.9781 16.2256 46.1944 19.7868L29.6427 40.6769C28.2133 42.5077 27.4108 44.7647 27.4108 47.097V109.768C27.4358 115.435 32.0502 120.025 37.7179 119.999C37.743 119.999 37.743 119.999 37.7681 119.999H82.2319C87.8995 120.05 92.539 115.485 92.5892 109.818C92.5892 109.793 92.5892 109.793 92.5892 109.768V47.097C92.5892 44.7647 91.7867 42.5077 90.3572 40.6519ZM60.0125 37.7177C64.0501 37.7177 67.3103 40.9779 67.3103 45.0155C67.3103 49.0531 64.0501 52.3133 60.0125 52.3133C55.9749 52.3133 52.7147 49.0531 52.7147 45.0155C52.7147 41.003 55.9749 37.7177 60.0125 37.7177ZM87.5986 109.768C87.5986 112.702 85.1911 114.984 82.2569 114.984H37.7681C34.8339 114.984 32.4264 112.702 32.4264 109.768V47.097C32.4264 45.8932 32.8277 44.7145 33.58 43.7867L50.1066 22.8965C51.9624 20.5642 54.5705 18.9341 57.5047 18.3573V32.9528C50.8339 34.3321 46.5706 40.8525 47.9499 47.5233C49.3292 54.1941 55.8495 58.4574 62.5203 57.0781C69.1912 55.6988 73.4545 49.1785 72.0752 42.5077C71.072 37.7177 67.3354 33.956 62.5203 32.9528V18.3573C63.5485 18.5579 64.5517 18.909 65.5047 19.3604C67.21 20.188 68.7147 21.3918 69.8933 22.8965L86.445 43.7616C87.1974 44.7145 87.5986 45.8932 87.5986 47.097V109.768Z" fill="black"/>
<path d="M63.1953 99.5859H55.6484V105H49.7422V99.5859H44.9375V94.8281H49.7422V92.3203H44.9375V87.5625H49.7422V70.875H62.7969C66.5625 70.875 69.5703 71.8594 71.8203 73.8281C74.0703 75.7812 75.1953 78.3828 75.1953 81.6328C75.1953 84.9453 74.125 87.5469 71.9844 89.4375C69.8438 91.3125 66.8672 92.2734 63.0547 92.3203H55.6484V94.8281H63.1953V99.5859ZM55.6484 87.5625H62.7031C64.8281 87.5625 66.4531 87.0703 67.5781 86.0859C68.7031 85.1016 69.2656 83.6328 69.2656 81.6797C69.2656 79.9297 68.7109 78.5 67.6016 77.3906C66.5078 76.2812 64.9922 75.7031 63.0547 75.6562H55.6484V87.5625Z" fill="black"/>
</svg>
