<svg width="93" height="93" viewBox="0 0 93 93" fill="none" xmlns="http://www.w3.org/2000/svg">
<g clip-path="url(#clip0)">
<path d="M0.294211 8.53088L6.49657 19.3844C6.70578 19.7511 7.05595 20.0165 7.46545 20.1192L13.2519 21.5658L33.0983 41.4122L35.2912 39.2199L15.1342 19.0635C14.9358 18.8645 14.6871 18.7236 14.4147 18.6553L8.85466 17.2604L3.57398 8.01423L8.10137 3.48684L17.3513 8.77262L18.7469 14.3327C18.8145 14.6057 18.9561 14.8551 19.1545 15.0534L39.3115 35.2105L41.5038 33.0176L21.6574 13.1712L20.2108 7.38787C20.1081 6.97774 19.8427 6.62693 19.476 6.41708L8.62185 0.215358C8.01654 -0.129075 7.25496 -0.0270207 6.76127 0.464754L0.559552 6.66711C0.060761 7.15761 -0.0476717 7.92047 0.294211 8.53088Z" fill="black"/>
<path d="M64.7575 30.5585L30.6465 64.6701L28.4536 62.4772L62.5653 28.3662L64.7575 30.5585Z" fill="black"/>
<path d="M24.6763 65.8765C24.3957 65.4096 23.8918 65.1245 23.3471 65.1245H14.0442C13.5001 65.1245 12.9956 65.4096 12.7155 65.8765L8.06378 73.6288C7.76846 74.12 7.76846 74.7342 8.06378 75.226L12.7155 82.9783C12.9956 83.4446 13.5001 83.7303 14.0442 83.7303H23.3471C23.8918 83.7303 24.3957 83.4446 24.6763 82.9783L29.3275 75.226C29.6228 74.7342 29.6228 74.12 29.3275 73.6288L24.6763 65.8765ZM22.47 80.6291H14.9218L11.2007 74.4274L14.9218 68.2251H22.47L26.1912 74.4274L22.47 80.6291Z" fill="black"/>
<path d="M74.5139 37.2154C84.7545 37.2498 93.0847 28.9757 93.1191 18.7352C93.1242 17.1764 92.9328 15.6238 92.5495 14.1128C92.3428 13.2817 91.5015 12.7759 90.6704 12.9826C90.3974 13.0508 90.1487 13.1918 89.9497 13.3901L80.2979 23.0355L72.64 20.4836L70.0861 12.8276L79.7379 3.17386C80.3432 2.56791 80.3425 1.58627 79.7366 0.980962C79.5369 0.781318 79.2856 0.639718 79.0107 0.572107C69.0795 -1.9429 58.9908 4.06874 56.4758 13.9993C56.0938 15.5058 55.903 17.0545 55.9081 18.6089C55.912 19.8298 56.0376 21.0468 56.2851 22.2421L22.3284 56.1981C21.1331 55.9513 19.9161 55.8256 18.6959 55.8212C8.41967 55.8212 0.0894775 64.1513 0.0894775 74.4276C0.0894775 84.7032 8.41967 93.0334 18.6959 93.0334C28.9715 93.0334 37.3017 84.7032 37.3017 74.4276C37.2979 73.2067 37.1716 71.9898 36.9247 70.7944L45.054 62.6652L48.6093 66.2205C49.2153 66.8258 50.1963 66.8258 50.8022 66.2205L51.5772 65.4449C52.2571 64.7694 53.3561 64.7694 54.0361 65.4449C54.7154 66.1223 54.7167 67.2219 54.0393 67.9012C54.0386 67.9018 54.0374 67.9031 54.0361 67.9044L53.2611 68.6794C52.6558 69.2847 52.6558 70.2663 53.2611 70.8716L71.7572 89.3677C76.622 94.2771 84.5452 94.3129 89.4547 89.4481C94.3635 84.5833 94.3992 76.6594 89.5344 71.7506C89.5083 71.7238 89.4815 71.697 89.4547 71.6702L70.9586 53.1748C70.3533 52.5694 69.3717 52.5694 68.7664 53.1748L67.9914 53.9497C67.3108 54.6258 66.2124 54.6258 65.5319 53.9497C64.8532 53.2723 64.8513 52.1727 65.5287 51.494C65.53 51.4928 65.5312 51.4921 65.5319 51.4909L66.3075 50.7152C66.9128 50.1099 66.9128 49.1283 66.3075 48.523L62.7522 44.9677L70.8814 36.8384C72.0768 37.0852 73.2938 37.2115 74.5139 37.2154ZM80.6059 89.9328C79.4795 89.9309 78.3627 89.7274 77.3083 89.3313L89.4177 77.2213C91.2451 82.0823 88.7862 87.5039 83.9253 89.3313C82.8645 89.73 81.74 89.9341 80.6059 89.9328ZM63.0405 49.6347C61.3234 51.6828 61.5926 54.7355 63.6407 56.452C65.4407 57.9605 68.0641 57.9592 69.8622 56.4475L87.2625 73.8631C87.4512 74.0525 87.6279 74.2522 87.7989 74.455L74.542 87.7119C74.3385 87.5416 74.1389 87.3649 73.9494 87.1754L56.5358 69.7605C58.2528 67.7124 57.9837 64.6597 55.9356 62.9433C54.1356 61.4341 51.5115 61.4361 49.7134 62.9471L47.2329 60.4665L60.5593 47.1599L63.0405 49.6347ZM69.3015 34.0402L34.1278 69.2069C33.7419 69.5921 33.5869 70.1515 33.7183 70.6803C35.8455 79.0341 30.7977 87.5307 22.4432 89.6573C14.0894 91.7845 5.59276 86.7366 3.46557 78.3822C1.33901 70.0284 6.38687 61.5317 14.7413 59.4045C17.2684 58.7616 19.9161 58.7616 22.4432 59.4045C22.972 59.534 23.5301 59.379 23.9166 58.9957L59.082 23.8284C59.4673 23.4431 59.6223 22.8837 59.4896 22.3556C57.3771 14.0994 62.3573 5.69396 70.6135 3.5808C72.1737 3.18215 73.7874 3.02907 75.3948 3.12921L67.2158 11.3114C66.8005 11.726 66.6551 12.3403 66.8407 12.8971L69.9413 22.2006C70.0963 22.663 70.4598 23.0266 70.9229 23.1803L80.2264 26.2815C80.7826 26.4671 81.3969 26.3223 81.8121 25.9077L89.9911 17.7287C90.0096 18.0247 90.0192 18.3174 90.0192 18.6089C90.0626 27.1286 83.1918 34.0702 74.6721 34.1142C73.355 34.1206 72.0423 33.9586 70.7666 33.632C70.2379 33.4999 69.6785 33.6543 69.2932 34.0396H69.3015V34.0402Z" fill="black"/>
<path d="M80.2634 77.9821L78.0705 80.175L62.5659 64.6704L64.7582 62.4775L80.2634 77.9821Z" fill="black"/>
</g>
<defs>
<clipPath id="clip0">
<rect width="93" height="93" fill="white"/>
</clipPath>
</defs>
</svg>
